<svg width="306" height="60" viewBox="0 0 306 60" fill="none" xmlns="http://www.w3.org/2000/svg">
<path d="M42.6232 60C39.3983 60 36.8831 58.7775 34.2133 55.904C31.5506 53.0375 29.6606 48.6323 28.41 45.7237C28.136 45.0773 27.8761 44.4731 27.6653 44.0304C27.6091 43.911 27.5669 43.7845 27.5318 43.6581C27.4686 43.5948 27.4194 43.5316 27.3632 43.4684C25.4171 40.9251 24.7637 38.4239 25.3749 35.8173C25.5576 35.0304 25.8878 34.3068 26.1758 33.6674C26.2953 33.4005 26.5623 32.8173 26.6185 32.5855C26.5559 32.3703 26.5182 32.1488 26.5061 31.9251C26.4733 31.8196 26.4498 31.7114 26.4358 31.6019C26.4358 31.5738 26.4358 31.5457 26.4288 31.5246H25.9651C25.1922 31.5246 24.4264 31.4754 23.6887 31.3841C22.958 32.0094 22.0096 33.5691 21.3491 35.2201C20.6185 37.0679 17.6185 41.185 13.6981 42.7588C12.6864 43.1663 11.5552 43.37 10.3398 43.37C7.11496 43.37 4.08685 41.9227 3.12432 41.2272C-0.339378 38.726 -0.233991 35.2834 0.24376 32.5644C0.292941 32.2974 0.335095 31.9953 0.391301 31.6651C0.580997 30.4426 0.847976 28.7705 1.3187 27.3653C2.26015 24.5621 3.77772 23.9719 4.88076 23.9719C5.01425 23.9719 5.15477 23.9789 5.28826 24L5.45688 24.0211C5.52011 23.9719 5.58334 23.9297 5.64657 23.8946C6.581 23.3466 7.44517 23.0656 8.218 23.0656C8.99083 23.0656 9.91823 23.1218 10.8527 23.2131H10.9089C11.1126 23.0585 11.3374 22.9461 11.5833 22.8759C13.0798 22.4684 14.2602 22.2576 15.0892 22.2576H15.1173C15.1595 22.2295 15.1946 22.2014 15.2367 22.1733C16.2063 21.5761 17.1899 21.2529 18.0822 21.2529C18.9744 21.2529 19.6489 21.541 20.1477 22.096C21.2367 21.1265 22.8386 20.1991 24.9182 19.3349C25.0377 17.4169 25.2555 15.4496 25.9299 13.9672C26.225 13.3138 26.211 12.3443 26.1969 11.2272C26.1548 8.71897 26.0986 4.92506 30.6372 2.59251C32.7098 1.52459 35.4499 1.30679 37.389 1.30679C37.8246 1.30679 38.2672 1.32084 38.7028 1.34192C38.9206 1.35597 39.1314 1.39813 39.3281 1.48244C40.6278 0.976581 41.9627 0.632318 43.2906 0.456674C45.574 0.161592 47.9136 0 50.0705 0C50.499 0 50.9276 0 51.3351 0.0210773C55.1431 0.140515 55.7332 0.688525 56.0845 1.01874C56.1969 1.12412 56.2953 1.23653 56.3796 1.363C56.5131 1.55972 56.6958 1.83372 59.2742 7.8548C59.5412 7.8548 59.8363 7.84778 60.1454 7.84778C60.7777 7.84778 61.3187 7.86183 61.7473 7.88993C62.9346 7.96721 64.2555 8.18501 65.0845 9.17564C65.9417 10.2014 65.7941 11.5293 65.7098 12.2459C65.492 14.1991 65.3164 15.7728 64.3468 16.911C64.663 17.3817 64.8948 17.8595 65.1126 18.2881C65.6325 19.3349 65.8925 19.7564 66.5318 19.9953C66.9929 20.1704 67.3711 20.5127 67.5912 20.954C67.8112 21.3954 67.8569 21.9035 67.7192 22.377C68.2321 23.3396 68.3445 24.3934 68.4358 25.1803C68.5061 25.8197 68.5833 26.5363 68.8222 26.7541C69.3421 27.2318 69.574 27.9485 69.4124 28.637C69.3773 28.7986 69.321 28.9461 69.2438 29.0866C69.4335 30.007 69.2789 30.9204 69.1524 31.6581C69.047 32.2834 68.9627 32.9297 69.0892 33.0281C69.6864 33.4848 69.9744 34.2576 69.8129 34.9953C69.7325 35.3579 69.5503 35.69 69.2877 35.9526C69.0251 36.2152 68.693 36.3974 68.3304 36.4777C68.0283 36.548 67.7473 36.5902 67.4803 36.6112C67.8737 40.6229 67.4171 44.3747 66.1946 46.9532C64.0026 51.5972 55.3187 56.6347 49.8878 58.4895C46.8456 59.5293 44.6114 59.993 42.6372 59.993L42.6232 60Z" fill="#121C57"/>
<path d="M20.9276 29.3956C20.2039 29.3956 19.6278 29.0443 19.1993 28.6087C19.2555 29.3746 19.1993 30.1685 18.9182 30.8921C18.1173 32.9647 17.0283 34.2504 16.5435 34.4682C16.4381 34.5174 16.2765 34.5455 16.0939 34.5455C15.8339 34.5455 15.5248 34.4893 15.2367 34.3769C15.6231 35.3535 16.0377 36.8148 15.8761 38.2692C15.862 38.4167 15.7356 38.5221 15.588 38.5221H15.5529C15.3983 38.501 15.2789 38.3605 15.3 38.2059C15.4826 36.5479 14.8152 34.8195 14.4358 33.9905C14.2882 34.2856 14.1407 34.5806 14.0142 34.8827C13.7754 35.4378 13.0798 35.7118 12.4475 35.7118C12.314 35.7118 12.1805 35.6977 12.0611 35.6767C11.4709 35.5572 11.0704 35.1989 10.937 34.686C10.6911 34.7212 10.4241 34.7001 10.1641 34.6158L7.51541 39.2949C7.47708 39.3609 7.4147 39.4094 7.34134 39.4304C7.26798 39.4514 7.18936 39.4431 7.12197 39.4073C7.08851 39.3891 7.0591 39.3643 7.03554 39.3344C7.01197 39.3044 6.99473 39.27 6.98488 39.2332C6.97502 39.1964 6.97275 39.158 6.9782 39.1203C6.98365 39.0826 6.99671 39.0464 7.01658 39.0139L9.65124 34.3628C9.00487 33.9413 8.46389 33.1404 8.03532 31.9811C7.34679 32.227 6.48965 32.8102 6.48262 32.8172C6.43528 32.8502 6.37873 32.8674 6.32103 32.8664C6.2297 32.8664 6.13836 32.8242 6.08216 32.7399C6.06052 32.7087 6.04534 32.6734 6.03751 32.6362C6.02968 32.5991 6.02935 32.5607 6.03655 32.5234C6.04375 32.4861 6.05833 32.4506 6.07943 32.419C6.10053 32.3874 6.12774 32.3604 6.15944 32.3394C6.20159 32.3113 7.07279 31.7212 7.83157 31.4472C7.78942 31.3628 7.74726 31.2785 7.69808 31.1942C7.25546 31.3347 6.80581 31.3839 6.37724 31.3839C4.91588 31.3839 3.65827 30.7657 3.58801 30.7305C3.4475 30.6603 3.39129 30.4846 3.46155 30.3441C3.5318 30.2036 3.70745 30.1474 3.84796 30.2176C3.86904 30.2247 5.68169 31.124 7.36085 30.6954C7.32572 30.6532 7.29761 30.6111 7.26249 30.5689C7.1852 30.4635 7.10089 30.3582 7.02361 30.2528C5.75195 30.1614 4.36787 28.6579 4.30464 28.5947C4.2534 28.5379 4.22683 28.463 4.23078 28.3866C4.23473 28.3102 4.26888 28.2384 4.32572 28.1872C4.38255 28.136 4.45741 28.1094 4.53383 28.1133C4.61025 28.1173 4.68197 28.1514 4.73321 28.2083C5.04234 28.5455 5.86436 29.3043 6.62314 29.5853C6.52478 29.3746 6.4475 29.1427 6.39129 28.8687C6.36319 28.7141 6.46857 28.5666 6.62314 28.5315C6.77771 28.5034 6.93227 28.6087 6.96038 28.7633C7.07279 29.3816 7.38895 29.7891 7.71916 30.2176C7.8386 30.3722 7.95803 30.5268 8.06342 30.6884C8.22501 30.9343 8.37958 31.2013 8.49199 31.5315C9.06108 33.2036 9.74961 33.8078 10.2203 34.0186C10.6419 34.2083 10.958 34.1099 11.0704 34.0607C11.3655 33.9343 11.3655 33.0701 11.3585 32.3816C11.3585 32.0865 11.3585 31.7844 11.3726 31.4963C11.4288 30.4284 10.5857 28.2645 10.129 27.3441C9.78473 26.6556 7.49434 26.2621 5.81518 26.0303H5.80113C5.52712 25.9952 5.27419 25.96 5.04234 25.9319C3.30698 25.7071 2.68169 29.6275 2.31635 31.9671C2.26014 32.3043 2.21096 32.6205 2.16178 32.8945C1.74023 35.3043 1.70511 37.7984 4.26951 39.6673C5.5201 40.5736 9.79878 42.2387 12.9744 40.9671C16.3046 39.6322 18.9323 36.049 19.5435 34.5174C20.2039 32.8593 21.3281 30.7867 22.5435 29.8172C21.7777 29.6415 21.3 29.4589 21.1243 29.3886C21.0611 29.3886 20.9908 29.3956 20.9276 29.3956Z" fill="white"/>
<path d="M59.6679 13.7913C59.4149 13.2012 59.148 12.5689 58.874 11.9225C58.5437 12.1122 57.9184 12.4494 56.9067 12.9131C57.1737 13.3276 57.6655 14.1215 57.9747 14.9155C58.614 14.4939 59.1831 14.1145 59.6679 13.7843" fill="#121C57"/>
<path d="M43.3961 24.0279C44.6958 23.3464 46.4804 22.2925 48.4195 21.0841C39.9956 24.0208 34.4944 24.7866 31.0518 24.7866C28.4171 24.7866 26.9979 24.337 26.3937 24.0841C26.2813 24.4564 26.1338 24.7445 25.93 24.9272C25.8759 24.9758 25.806 25.0032 25.7333 25.0044C25.656 25.0044 25.5787 24.9763 25.5225 24.9131C25.472 24.8564 25.4452 24.7824 25.4478 24.7065C25.4505 24.6306 25.4822 24.5587 25.5366 24.5056C25.9862 24.0911 26.1057 22.5384 26.197 20.9295C22.0096 22.5806 20.9277 23.9998 20.6818 24.4354C20.8925 24.6672 21.0963 24.9482 21.293 25.2855C21.3843 25.4471 21.56 25.6649 21.7427 25.9037C22.3117 26.6274 23.0143 27.5337 22.7895 28.3276C22.6982 28.6508 22.4593 28.9108 22.0869 29.1005C23.9839 29.6204 29.1619 30.4283 37.0588 27.0068C39.3984 25.9951 41.4851 24.9834 43.389 24.0208" fill="#F7752A"/>
<path d="M40.579 31.2222C40.4033 31.3276 40.1012 31.5384 39.8413 31.7843C40.1715 31.7421 40.5439 31.7 40.8108 31.7C40.9162 31.7 41.0567 31.7211 41.2464 31.7421C41.4923 31.7773 41.8155 31.8194 42.1668 31.8335C41.9658 31.6412 41.8368 31.3857 41.8015 31.1098C41.3659 31.1239 40.9584 31.166 40.579 31.2222ZM44.0848 31.5314C44.3097 31.433 44.5275 31.3065 44.7312 31.145H44.2113C44.1902 31.2855 44.1481 31.419 44.0848 31.5384M39.4689 43.7351C40.4876 43.4119 41.1972 42.878 41.8225 42.4143C41.956 42.3089 42.0965 42.2105 42.23 42.1122C41.3869 42.2386 40.3331 42.4845 39.0052 42.8499C38.8858 42.885 38.7663 42.9131 38.6469 42.9412L38.8787 43.8897C39.0684 43.8546 39.2652 43.8054 39.4689 43.7351ZM10.6422 27.0911C11.0778 27.9623 12.0122 30.2878 11.949 31.5314C11.9349 31.8054 11.9349 32.1005 11.9349 32.3815C11.9349 33.2667 11.942 34.1098 11.4923 34.4752C11.5626 34.9037 11.8998 35.0653 12.1879 35.1215C12.7289 35.2269 13.3541 35.0091 13.5017 34.6578C13.6773 34.2574 13.867 33.878 14.0567 33.5056C14.5064 32.6204 14.9701 31.7 15.237 30.4143C15.6867 28.2503 14.2394 26.2269 14.0708 26.0021C13.7757 25.6016 12.2581 25.3136 10.7335 25.152C10.7054 25.152 10.6844 25.152 10.6633 25.145C9.76398 25.0536 8.86468 25.0044 8.22534 25.0044C7.70543 25.0044 7.08716 25.2995 6.63751 25.5665C8.61878 25.8756 10.2417 26.2831 10.6422 27.0841" fill="white"/>
<path d="M44.9416 16.7281C54.1102 13.8265 57.7917 11.8733 58.6489 11.3815C58.41 10.8195 58.1711 10.2504 57.9252 9.68128C57.9252 9.68128 57.9252 9.66722 57.9182 9.6602C56.4077 6.11922 54.9322 2.71172 54.7496 2.44474C54.321 2.04428 49.6348 1.59463 43.5435 2.38854C39.588 2.90844 36.7004 4.93186 34.3819 6.56184C33.1453 7.43303 32.0704 8.18479 31.1219 8.47987C31.086 8.49164 31.048 8.49604 31.0103 8.49282C30.9726 8.48959 30.9359 8.4788 30.9025 8.4611C30.8691 8.4434 30.8395 8.41914 30.8157 8.38977C30.7918 8.3604 30.7741 8.32653 30.7636 8.29018C30.7144 8.13561 30.7987 7.98104 30.9533 7.93186C31.8175 7.66488 32.8573 6.9342 34.0517 6.09111C35.3585 5.17074 36.8409 4.13093 38.5973 3.29486C36.9182 3.21055 33.6863 3.2246 31.5224 4.33467C28.0657 6.11219 28.1079 8.69767 28.143 11.2059C28.1641 12.5056 28.1852 13.7351 27.7074 14.789C27.1453 16.0255 26.9697 17.8452 26.8643 19.5946C28.3468 19.6508 35.499 19.7211 44.9486 16.7281" fill="#F7752A"/>
<path d="M50.7097 19.6438C51.9252 18.871 53.1547 18.0771 54.321 17.3183C54.0259 16.3979 53.3373 15.049 53.0633 14.522C51.0469 15.3019 48.4404 16.2293 45.1172 17.2832C36.9041 19.8827 30.3912 20.1918 27.7776 20.1918C27.3561 20.1918 27.0399 20.1848 26.8291 20.1778C26.8291 20.2902 26.8151 20.4096 26.8081 20.522C26.7448 21.6883 26.6816 22.7211 26.5341 23.522C27.5949 23.9928 33.7565 26.0092 50.7097 19.6579" fill="#121C57"/>
<path d="M18.3912 25.2223C18.4052 25.2785 18.4474 25.3979 18.4966 25.5385C18.623 25.9108 18.8408 26.5431 19.0024 27.2808C19.0586 27.4143 19.8736 29.3183 21.602 28.693C21.9673 28.5595 22.1781 28.3839 22.2413 28.1731C22.3889 27.6602 21.7565 26.8523 21.2928 26.2551C21.0821 25.9881 20.9064 25.7563 20.794 25.5666C20.3584 24.7937 19.8385 24.3933 19.3818 24.0349C19.1289 23.8382 18.89 23.6485 18.7074 23.4307C18.4334 23.0935 17.4146 23.1286 16.2624 23.8452C17.2882 24.1333 18.2507 24.6602 18.3912 25.2223Z" fill="white"/>
<path d="M14.5272 25.6649C15.3492 26.7679 16.1713 28.7 15.7919 30.5337C15.567 31.6227 15.2158 32.4518 14.8434 33.2105C14.8926 33.4354 15.0261 33.6251 15.2649 33.7585C15.6865 33.9974 16.2064 33.9974 16.3118 33.9482C16.5296 33.8499 17.5553 32.8241 18.3844 30.6883C19.0588 28.9459 18.2579 26.6063 17.9558 25.7281C17.8996 25.5595 17.8574 25.44 17.8364 25.3628C17.7731 25.0958 16.7684 24.4564 15.4054 24.2457C14.6958 24.1333 13.2415 24.4564 12.0963 24.7726C14.0987 25.0958 14.4148 25.5244 14.5272 25.6719M38.3024 43.967L38.0776 43.0607C37.3329 43.2012 36.6514 43.2574 36.0682 43.2644C36.4546 43.6157 37.1642 44.0443 38.2954 43.967M28.8317 30.7023C29.0635 30.4283 29.3235 30.1403 29.6467 29.8663C29.1759 29.9436 28.7263 30.0068 28.2907 30.0489C28.2907 30.3511 28.3118 30.871 28.375 31.3768C28.5155 31.1239 28.656 30.9131 28.8317 30.7023Z" fill="white"/>
<path d="M53.6044 14.3112C53.8924 14.8593 54.5037 16.0677 54.8269 16.9951C55.7753 16.3768 56.6746 15.7796 57.4896 15.2386C57.1805 14.4096 56.6325 13.5314 56.3795 13.152C55.6348 13.4822 54.7215 13.8686 53.6114 14.3112" fill="#F7752A"/>
<path d="M61.375 12.6391C61.7825 12.3721 62.8715 11.5009 62.5483 10.96C62.5095 10.8946 62.4981 10.8167 62.5165 10.743C62.5349 10.6693 62.5817 10.6059 62.6467 10.5665C62.712 10.5277 62.7899 10.5163 62.8636 10.5347C62.9373 10.5531 63.0007 10.5999 63.0401 10.6649C63.7005 11.7679 61.9019 12.9834 61.6911 13.1169C61.649 13.145 60.1455 14.1637 57.9745 15.604H57.9675C57.026 16.2293 55.9652 16.9248 54.841 17.6625C54.834 17.6696 54.82 17.6766 54.8059 17.6836C53.6115 18.4635 52.3539 19.2714 51.1104 20.0653C53.8012 18.7585 56.4359 17.6766 59.4078 16.9881C60.3422 16.7703 61.0518 16.6087 61.5998 16.4119C61.6358 16.3836 61.6805 16.3687 61.7263 16.3698C63.2298 15.8077 63.4406 14.9787 63.7638 12.0349C63.8481 11.2621 63.8481 10.7492 63.5811 10.433C63.3001 10.1028 62.6748 9.91311 61.6068 9.84286C60.6513 9.77962 59.2883 9.80773 58.6068 9.8288C59.2883 11.4237 59.8785 12.8077 60.1525 13.4611C60.9043 12.9623 61.3539 12.6532 61.375 12.6391Z" fill="#F7752A"/>
<path d="M32.5692 32.7188C32.3163 32.522 32.1547 32.234 32.1126 31.9038C31.4662 31.9529 30.855 32.1286 30.3069 32.2972C30.581 32.5853 31.2273 32.9998 32.5692 32.7188Z" fill="white"/>
<path d="M67.2135 31.3417C67.3891 30.2808 67.5577 29.2831 66.813 28.6087C66.7875 28.5841 66.7662 28.5557 66.7498 28.5244V28.5173C66.7354 28.4866 66.7282 28.4529 66.7287 28.419V28.4119C66.7287 28.3768 66.7287 28.3417 66.7427 28.3136V28.3066C66.7498 28.2855 66.7568 28.2644 66.7708 28.2503C66.7779 28.2363 66.7849 28.2293 66.7989 28.2152C66.82 28.1871 66.8481 28.166 66.8832 28.152H66.8903C66.921 28.1376 66.9547 28.1304 66.9886 28.1309H66.9957C67.0308 28.1309 67.0659 28.1309 67.094 28.145H67.101C67.1221 28.152 67.1432 28.159 67.1572 28.1731C67.2697 28.2433 67.3821 28.2433 67.4875 28.2152C66.7076 27.5056 66.5882 26.4447 66.4758 25.4119C66.3282 24.0841 66.1947 22.8335 64.7404 22.2222C64.6713 22.1925 64.6165 22.1369 64.5876 22.0674C64.5588 21.9979 64.5581 21.9199 64.5858 21.8499C64.5997 21.8149 64.6204 21.7831 64.6468 21.7563C64.6731 21.7295 64.7046 21.7083 64.7393 21.6939C64.7741 21.6795 64.8113 21.6722 64.8489 21.6724C64.8865 21.6727 64.9237 21.6804 64.9582 21.6953C64.9582 21.6953 65.4008 21.871 65.8294 21.8499C64.4172 21.3229 63.8762 20.241 63.3563 19.1871C62.9348 18.344 62.5413 17.5501 61.7053 16.9881C61.1362 17.1848 60.4266 17.3674 59.5343 17.5712C55.087 18.604 51.3704 20.5431 47.0636 22.7913C46.6701 22.9951 46.2697 23.2058 45.8551 23.4166C46.0378 23.5009 46.2275 23.6063 46.4383 23.7258C47.1971 24.1543 48.3423 24.8077 50.443 25.0747C54.7849 25.6297 55.4945 27.4283 55.5226 27.5056C55.536 27.5406 55.5422 27.578 55.541 27.6155C55.5397 27.6529 55.531 27.6898 55.5153 27.7238C55.4996 27.7579 55.4772 27.7884 55.4495 27.8137C55.4218 27.839 55.3893 27.8584 55.354 27.871C55.3188 27.885 55.2907 27.892 55.2556 27.892C55.1362 27.892 55.0308 27.8218 54.9886 27.7023C54.9886 27.6883 54.3212 26.1496 50.3797 25.6438C48.1666 25.3628 46.9582 24.6813 46.1643 24.2246C45.6303 23.9225 45.3563 23.782 45.0893 23.8171C44.6256 24.056 44.1479 24.3019 43.6561 24.5478C43.6561 24.5478 43.642 24.5478 43.635 24.5548C41.731 25.5173 39.6373 26.529 37.2978 27.5478C35.5413 28.3066 33.9184 28.8686 32.4359 29.2691C32.4992 29.2831 32.5694 29.3042 32.6326 29.3253C32.9348 29.4166 33.1104 29.7398 33.012 30.0489C32.9348 30.3019 32.6959 30.4635 32.443 30.4564H32.4008C32.0284 30.4424 31.6771 30.4354 31.368 30.4845C31.0589 30.5337 30.7849 30.6391 30.4898 30.8147C30.1947 30.9904 29.8856 31.2433 29.5343 31.4962C29.2322 31.7 28.8668 31.8756 28.4523 31.9108C28.4734 32.0091 28.4945 32.1005 28.5226 32.1848C28.5226 32.1988 28.5226 32.2129 28.5296 32.2269C28.5788 32.1356 28.6701 32.0724 28.7825 32.0724C29.1198 32.0724 29.5483 31.9389 30.0472 31.7843C30.6795 31.5876 31.3961 31.3698 32.19 31.3347C33.0261 31.2925 33.7919 31.4611 34.5226 31.8546C34.2205 31.2925 33.7146 31.0185 33.6795 30.9974C33.646 30.9802 33.6163 30.9564 33.5921 30.9276C33.5679 30.8987 33.5497 30.8653 33.5386 30.8293C33.5275 30.7933 33.5236 30.7555 33.5273 30.718C33.531 30.6805 33.5421 30.6441 33.56 30.611C33.6373 30.4705 33.8059 30.4143 33.9465 30.4916C34.4383 30.7515 35.176 31.426 35.2954 32.4447C35.2954 32.4728 35.3024 32.5009 35.3024 32.529C35.3305 32.8592 35.2954 33.2246 35.1619 33.618C34.3821 35.9576 34.0448 37.6508 34.1853 38.5009C34.2134 38.6555 34.1081 38.803 33.9465 38.8311H33.8973C33.8295 38.8319 33.7637 38.8082 33.7121 38.7643C33.6605 38.7204 33.6264 38.6593 33.6163 38.5923C33.5952 38.4869 33.5881 38.3674 33.5811 38.248C33.4266 38.4799 33.3282 38.789 33.4547 39.1754C33.5811 39.5618 34.0378 39.618 34.7615 39.6813C35.3797 39.7304 36.0753 39.7866 36.5952 40.2152C36.7146 40.3136 36.7357 40.4962 36.6373 40.6157C36.5811 40.6859 36.4968 40.7211 36.4125 40.7211C36.3493 40.7211 36.286 40.7 36.2298 40.6578C35.8504 40.3487 35.2743 40.2995 34.7123 40.2574C34.4102 40.2293 34.087 40.2082 33.7989 40.1239C33.7778 40.2855 33.7497 40.4892 33.7006 40.707C33.8762 40.6649 34.0589 40.6508 34.2415 40.6649C34.4593 40.6859 34.6631 40.7281 34.8879 40.8546L34.9301 40.8756C35.0706 40.9529 35.1198 41.1286 35.0425 41.2691C35.0214 41.3042 34.9933 41.3393 34.9652 41.3604C34.6912 41.5642 34.4031 41.7117 34.1572 41.8733C33.9043 42.0349 33.6654 42.1754 33.4757 42.344C33.286 42.5197 33.1455 42.7234 33.0542 42.9904C32.9629 43.2574 32.9418 43.5876 32.9277 43.9529C32.9277 43.9951 32.8926 44.0302 32.8504 44.0302C32.8364 44.0302 32.8223 44.0302 32.8083 44.0162H32.7942C32.6186 43.8827 32.4711 43.7281 32.3586 43.5454C32.2322 43.3628 32.1619 43.145 32.1268 42.9131C32.0495 42.4424 32.2041 41.8944 32.5062 41.508C32.6537 41.3112 32.8294 41.1426 33.0191 41.0091C33.1877 40.5525 33.2298 40.0817 33.2439 39.8569C33.0963 39.7375 32.9769 39.5759 32.9067 39.3581C32.5975 38.4236 33.1807 37.714 33.6163 37.3979C33.7287 36.4143 34.0589 35.0864 34.6069 33.4354C34.6982 33.1543 34.7334 32.8944 34.7263 32.6625C34.6912 32.6344 34.6561 32.6133 34.6209 32.5852C34.5156 32.6344 34.4031 32.6906 34.2978 32.7398C33.9184 32.9084 33.553 33.0489 33.2088 33.1543H33.1947C32.6186 33.33 32.1268 33.3932 31.7123 33.3932C30.4898 33.3932 29.9207 32.796 29.7099 32.4799C29.3727 32.5712 29.0636 32.6414 28.7825 32.6414C28.7429 32.6419 28.7037 32.634 28.6674 32.6183C28.6311 32.6026 28.5985 32.5793 28.5718 32.5501C28.5718 33.1051 28.2837 33.7585 27.9465 34.4892C27.6795 35.0724 27.4055 35.6766 27.265 36.2808C26.9629 37.5595 26.8083 39.5688 28.902 42.2948C29.0425 42.4143 29.8856 43.0677 30.6654 42.5056C30.7919 42.4143 30.9746 42.4424 31.0659 42.5688C31.1572 42.6953 31.1291 42.878 31.0027 42.9693C30.6725 43.2082 30.3212 43.2995 29.991 43.2995C29.7872 43.2995 29.5975 43.2644 29.4148 43.2082C29.6326 43.6719 29.8856 44.2621 30.1877 44.9576C31.3821 47.7468 33.1947 51.9693 35.6326 54.5829C39.272 58.4962 42.4476 58.981 49.2345 56.6625C54.9886 54.6953 62.6397 49.8897 64.4102 46.1379C65.9839 42.8007 65.8153 37.8194 65.19 34.5243C65.0074 34.3487 64.8458 34.166 64.6842 33.9763C64.2697 33.4916 63.8341 32.9998 63.0753 32.7187C62.5413 34.2784 61.7263 35.508 60.3071 35.7468C60.4195 35.9295 60.5039 36.0419 60.5039 36.0419C60.5952 36.1684 60.5741 36.351 60.4406 36.4424C60.4103 36.465 60.3759 36.4813 60.3392 36.4904C60.3025 36.4994 60.2644 36.5011 60.2271 36.4952C60.1897 36.4893 60.154 36.476 60.1219 36.4561C60.0898 36.4361 60.062 36.41 60.0401 36.3791C59.9839 36.3089 58.7263 34.5806 58.7263 32.8873C58.7263 31.8265 59.2884 31.145 59.7451 30.5969C60.0402 30.2457 60.2861 29.9365 60.3493 29.6063C60.4406 29.0934 60.3704 28.6789 60.1455 28.4611C59.9629 28.2784 59.6608 28.2363 59.2533 28.3206H59.1409C59.1268 28.3206 59.1198 28.3206 59.1057 28.3136H59.0846C59.0706 28.3136 59.0636 28.3066 59.0565 28.2995C59.0565 28.2995 59.0425 28.2995 59.0355 28.2925C59.0284 28.2925 59.0214 28.2784 59.0144 28.2714C59.0144 28.2714 59.0003 28.2644 58.9933 28.2574C58.9933 28.2574 58.9793 28.2433 58.9793 28.2363C58.9793 28.2293 58.9652 28.2222 58.9582 28.2152C58.9582 28.2082 58.9512 28.2012 58.9441 28.1941C58.9441 28.1871 58.9371 28.1801 58.9301 28.166C58.9301 28.152 58.9231 28.145 58.916 28.1309V28.0466C58.916 25.433 60.3844 24.1192 60.4476 24.063C60.5061 24.0185 60.5793 23.9979 60.6524 24.0054C60.7254 24.0129 60.7929 24.0479 60.8412 24.1033C60.8894 24.1587 60.9148 24.2303 60.9122 24.3037C60.9095 24.3771 60.8791 24.4468 60.827 24.4986C60.827 24.4986 60.806 24.5126 60.7849 24.5407C61.1291 24.6532 61.635 24.9061 62.0144 25.4541C62.5975 26.2972 62.6818 27.5267 62.2603 29.1145C62.2252 29.241 62.1128 29.3253 61.9863 29.3253C61.9652 29.3253 61.9371 29.3253 61.909 29.3183C61.8724 29.3088 61.8381 29.2922 61.808 29.2693C61.7779 29.2465 61.7526 29.2179 61.7337 29.1852C61.7147 29.1525 61.7025 29.1164 61.6976 29.0789C61.6927 29.0415 61.6953 29.0034 61.7053 28.967C62.0846 27.5548 62.0284 26.4869 61.5437 25.7843C61.1432 25.2012 60.5601 25.0607 60.3914 25.0255C60.0331 25.5454 59.5694 26.4518 59.5062 27.7234C60.0401 27.6883 60.3704 27.878 60.5601 28.0606C60.9254 28.419 61.0589 29.0021 60.9254 29.7187C60.8411 30.1965 60.532 30.5688 60.2017 30.9693C59.7661 31.4962 59.3165 32.0443 59.3165 32.8944C59.3165 33.1051 59.3446 33.3229 59.3868 33.5407C59.7521 33.4775 60.4828 33.2316 60.827 32.2621C60.8762 32.1145 61.0448 32.0372 61.1924 32.0864C61.3399 32.1356 61.4172 32.3042 61.368 32.4517C60.9816 33.5548 60.1385 33.9763 59.5343 34.0958C59.6678 34.5103 59.8434 34.8897 60.012 35.2129C62.19 35.0513 62.8434 32.0934 63.4195 28.5454C63.9605 25.2012 62.998 24.0911 61.2626 23.3815C60.6514 23.1286 60.0893 23.1426 59.5835 23.4166C58.7193 23.8803 58.0378 25.1309 57.7006 26.8522C57.6725 27.0068 57.5179 27.1122 57.3633 27.077C57.3262 27.0701 57.2909 27.0558 57.2593 27.035C57.2278 27.0141 57.2008 26.9872 57.1799 26.9558C57.1589 26.9244 57.1445 26.8891 57.1374 26.852C57.1303 26.8149 57.1306 26.7767 57.1385 26.7398C57.5109 24.8288 58.2767 23.4658 59.3095 22.9108C59.9629 22.5595 60.7076 22.5384 61.4804 22.8475C63.7779 23.789 64.5015 25.4611 63.9886 28.6297C63.7989 29.782 63.5952 31.0325 63.272 32.1707C64.1783 32.5009 64.6912 33.0841 65.1409 33.604C65.7872 34.3487 66.3071 34.9529 67.909 34.5946C66.827 33.7726 67.0448 32.4939 67.2345 31.3557M29.3165 33.5478C29.2644 33.496 29.234 33.4263 29.2314 33.3529C29.2287 33.2795 29.2541 33.2078 29.3024 33.1524C29.3506 33.0971 29.4181 33.0621 29.4912 33.0546C29.5642 33.0471 29.6374 33.0677 29.6959 33.1122C29.7521 33.1614 31.0518 34.2503 33.1947 33.5899C33.3493 33.5407 33.5038 33.6251 33.553 33.7796C33.6022 33.9342 33.5179 34.0888 33.3633 34.1379C32.8083 34.3066 32.3095 34.3768 31.8528 34.3768C30.2931 34.3768 29.3657 33.5899 29.3165 33.5478ZM52.7334 26.9717C52.7755 26.8171 52.9371 26.7328 53.0846 26.7749C53.1408 26.789 54.4547 27.1824 55.4875 28.6859C56.2884 29.8452 57.3142 29.9084 57.3282 29.9084C57.4898 29.9084 57.6092 30.0489 57.6022 30.2105C57.6022 30.3651 57.4687 30.4845 57.3142 30.4845H57.3001C57.2439 30.4845 55.9722 30.4073 55.0097 29.0162C54.0893 27.6813 52.9371 27.337 52.9231 27.337C52.887 27.3269 52.8533 27.3099 52.8239 27.2867C52.7945 27.2636 52.7699 27.2349 52.7516 27.2023C52.7333 27.1696 52.7217 27.1337 52.7174 27.0965C52.713 27.0593 52.7161 27.0217 52.7263 26.9857M57.6935 31.0325C57.7217 31.1871 57.6233 31.3417 57.4687 31.3698C57.3001 31.3979 57.1385 31.419 56.9839 31.419C55.1994 31.419 54.0753 29.529 54.0261 29.4377C53.9883 29.3715 53.9781 29.293 53.9979 29.2193C54.0176 29.1456 54.0656 29.0827 54.1315 29.0443C54.265 28.967 54.4406 29.0091 54.5249 29.1496C54.539 29.1707 55.7053 31.1239 57.3633 30.8077C57.5179 30.7796 57.6725 30.878 57.7006 31.0325M36.1526 29.4307C36.1034 29.0794 36.3071 28.7421 36.6303 28.6227C37.5718 28.2714 38.5905 28.1801 39.553 28.2293C40.5226 28.2714 41.45 28.4752 42.3423 28.6719C43.2416 28.8756 44.1057 29.1005 44.9839 29.2691C45.8622 29.4447 46.7474 29.5501 47.6678 29.5501C47.7029 29.5501 47.724 29.5782 47.724 29.6063C47.724 29.6344 47.7099 29.6555 47.6818 29.6625C46.8036 29.9717 45.8481 30.0841 44.9137 30.1122C43.9722 30.1332 43.0448 30.07 42.1385 29.9998C41.2322 29.9295 40.3469 29.8873 39.4968 29.8733C38.6397 29.8663 37.8247 29.9295 37.0027 30.056H36.9886C36.5811 30.1192 36.2017 29.8382 36.1385 29.4307M45.1034 42.344C45.005 42.063 44.8645 41.8241 44.6608 41.6344C44.464 41.4447 44.2252 41.2972 43.9582 41.1848C43.7123 41.0934 43.4242 41.0232 43.1081 40.9881C42.4828 40.9037 41.8013 40.9318 41.1268 40.9389C40.4453 40.9389 39.7497 40.9318 39.0401 40.8124H39.0261C38.9354 40.7962 38.8546 40.7454 38.8009 40.6706C38.7471 40.5958 38.7245 40.503 38.738 40.4119C38.7591 40.2995 38.8294 40.2082 38.9277 40.159C39.272 39.9904 39.6233 39.878 39.9746 39.7937C40.3329 39.7094 40.6912 39.6532 41.0565 39.618C41.3516 39.5969 41.6537 39.5899 41.9629 39.604C41.5202 39.2667 41.1479 38.8944 40.8739 38.5923C40.8387 38.7047 40.7825 38.8171 40.6912 38.9154C40.4102 39.2176 39.8973 39.33 39.0753 39.2808C37.8106 39.2035 37.3259 39.6461 37.3188 39.6461C37.2647 39.6947 37.1948 39.7222 37.1221 39.7234C37.0842 39.7238 37.0466 39.7166 37.0116 39.7021C36.9766 39.6876 36.9449 39.6662 36.9184 39.6391C36.8659 39.5856 36.8366 39.5137 36.8366 39.4389C36.8366 39.364 36.8659 39.2921 36.9184 39.2386C36.9816 39.1754 37.5928 38.6133 39.1104 38.7047C39.8832 38.7539 40.1643 38.6344 40.2697 38.522C40.3259 38.4658 40.3821 38.3604 40.3329 38.0443C40.1924 37.0747 39.56 36.5548 38.45 36.4986C38.2884 36.4916 38.1689 36.3581 38.176 36.1965C38.1768 36.1583 38.1854 36.1207 38.2013 36.086C38.2171 36.0513 38.2399 36.0202 38.2681 35.9945C38.2964 35.9689 38.3296 35.9493 38.3657 35.9369C38.4018 35.9245 38.44 35.9196 38.4781 35.9225C39.7357 35.9857 40.5577 36.5969 40.8317 37.6368C41.0003 37.8686 41.998 39.1684 43.2907 39.7375H43.3048C43.6842 39.8147 44.0917 39.9412 44.4781 40.152C44.8364 40.3628 45.1736 40.6438 45.4266 41.0091C45.6795 41.3674 45.82 41.796 45.8551 42.2105C45.8832 42.6321 45.82 43.0325 45.6233 43.4049C45.5671 43.5173 45.4266 43.5595 45.3142 43.5033C45.2728 43.4816 45.2392 43.4477 45.2178 43.4062C45.1964 43.3647 45.1884 43.3177 45.1947 43.2714V43.2433C45.2369 42.9482 45.1947 42.618 45.1034 42.344ZM42.9675 33.4424C41.9418 33.4424 41.1408 33.1754 41.0776 33.1543C41.0419 33.1421 41.009 33.1229 40.9808 33.0979C40.9526 33.0728 40.9297 33.0424 40.9133 33.0084C40.897 32.9744 40.8876 32.9375 40.8856 32.8998C40.8837 32.8622 40.8892 32.8245 40.902 32.789C40.9512 32.6414 41.1127 32.5571 41.2673 32.6133C41.2954 32.6204 43.9933 33.5197 45.6373 31.8756C45.6914 31.8216 45.7647 31.7912 45.8411 31.7912C45.9175 31.7912 45.9908 31.8216 46.0448 31.8756C46.0989 31.9297 46.1292 32.003 46.1292 32.0794C46.1292 32.1558 46.0989 32.2291 46.0448 32.2831C45.1174 33.2105 43.9512 33.4494 42.9746 33.4494M45.5671 31.1379C44.183 32.7187 42.0753 32.4307 41.1689 32.3112C41.0144 32.2902 40.8739 32.2691 40.8106 32.2691C40.3048 32.2691 39.2509 32.4447 39.2439 32.4447H39.1947C39.1474 32.4444 39.1009 32.4323 39.0594 32.4096C39.0179 32.3868 38.9827 32.3542 38.9569 32.3145C38.9312 32.2748 38.9156 32.2293 38.9118 32.1822C38.9079 32.135 38.9158 32.0876 38.9348 32.0443C39.012 31.8686 39.1245 31.707 39.265 31.5525C39.2017 31.5806 39.1666 31.6016 39.1666 31.6016C39.1245 31.6297 39.0753 31.6368 39.0261 31.6368C38.9277 31.6368 38.8294 31.5876 38.7732 31.4962C38.7354 31.43 38.7252 31.3515 38.7449 31.2779C38.7647 31.2042 38.8127 31.1413 38.8786 31.1028C38.8996 31.0888 39.3633 30.8218 40.4453 30.6532C40.8879 30.5829 41.3727 30.5407 41.8856 30.5267C42.2439 30.5126 42.6092 30.5126 42.9746 30.5267C43.4102 30.5407 43.7896 30.5478 44.1338 30.5548C46.094 30.5899 46.6771 30.5056 47.1408 30.4424C47.2954 30.4213 47.443 30.5267 47.464 30.6883C47.4851 30.8428 47.3797 30.9904 47.2181 31.0115C46.8739 31.0606 46.4734 31.1169 45.5601 31.1379M35.724 41.4377C35.8083 41.3042 35.9769 41.255 36.1174 41.3393C36.1526 41.3604 36.8551 41.7468 37.6631 41.0161C37.7199 40.9649 37.7948 40.9383 37.8712 40.9423C37.9476 40.9462 38.0193 40.9804 38.0706 41.0372C38.1218 41.0941 38.1484 41.1689 38.1444 41.2453C38.1405 41.3218 38.1063 41.3935 38.0495 41.4447C37.5366 41.9084 37.0378 42.0419 36.6514 42.0419C36.1736 42.0419 35.8504 41.8522 35.8294 41.8382C35.7644 41.7988 35.7176 41.7354 35.6992 41.6617C35.6808 41.588 35.6922 41.51 35.731 41.4447M33.8903 42.7866C33.9254 42.6321 34.0729 42.5337 34.2275 42.5618C34.2486 42.5618 36.3493 42.9834 38.8504 42.2948C41.6045 41.5361 43.1713 41.2972 44.2673 41.4799C44.4219 41.508 44.5273 41.6555 44.5062 41.8101C44.4781 41.9646 44.3305 42.07 44.176 42.0489C44.0087 42.0208 43.8397 42.0043 43.6701 41.9998C43.1572 42.1332 42.7006 42.4705 42.1736 42.8709C41.5132 43.3698 40.7615 43.9248 39.6514 44.2831C39.3282 44.3885 39.0261 44.4517 38.7451 44.4939C38.724 44.4939 38.6959 44.5009 38.6748 44.5009C38.464 44.529 38.2533 44.5501 38.0636 44.5501C36.4336 44.5501 35.5835 43.6087 35.3235 43.2574C34.6139 43.2222 34.1713 43.1309 34.1362 43.1239C34.0623 43.1078 33.9975 43.0636 33.9556 43.0007C33.9136 42.9378 33.8978 42.861 33.9113 42.7866M38.0565 46.8265C37.7966 46.8265 37.5507 46.7984 37.3048 46.7421C35.5273 46.3417 34.8317 44.6344 34.8036 44.5571C34.7759 44.4863 34.7774 44.4074 34.8077 44.3377C34.8379 44.2679 34.8946 44.2129 34.9652 44.1848C35.1127 44.1286 35.2814 44.1988 35.3376 44.3464C35.3446 44.3674 35.9558 45.8499 37.4312 46.1801C38.8785 46.5033 40.6771 45.6672 42.7638 43.707C42.8205 43.6597 42.8931 43.6359 42.9668 43.6405C43.0404 43.6451 43.1095 43.6777 43.1599 43.7317C43.2103 43.7857 43.238 43.8569 43.2375 43.9307C43.2371 44.0045 43.2083 44.0753 43.1572 44.1286C41.2462 45.9201 39.5319 46.8265 38.0495 46.8265M40.642 47.4026C40.5999 47.5571 40.4383 47.6414 40.2907 47.5993C39.1455 47.2691 37.7123 47.8522 37.6982 47.8592C37.6631 47.8733 37.628 47.8803 37.5858 47.8803C37.4734 47.8803 37.368 47.8101 37.3188 47.7047C37.2556 47.5571 37.3259 47.3885 37.4734 47.3323C37.5366 47.3042 39.1034 46.6719 40.4453 47.0513C40.5999 47.0934 40.6842 47.255 40.642 47.4026ZM45.6092 53.6836C44.0425 54.4986 42.3001 54.9272 40.6209 54.9272C40.3118 54.9272 40.0097 54.9131 39.7006 54.885C37.9933 54.7164 36.5179 53.8733 35.3165 52.3768C34.3821 51.2035 33.539 49.8194 32.8294 48.2597C32.7661 48.1122 32.8294 47.9436 32.9699 47.8803C33.1174 47.8171 33.286 47.8803 33.3493 48.0208C34.0378 49.5384 34.8528 50.8803 35.7591 52.0185C36.8551 53.3955 38.1971 54.1684 39.7497 54.3159C41.5905 54.4916 43.5788 54.0911 45.3352 53.1777C47.7942 51.9061 48.3212 49.7983 48.3282 49.7773C48.3633 49.6227 48.5179 49.5314 48.6725 49.5665C48.827 49.6016 48.9184 49.7562 48.8832 49.9108C48.8622 50.0091 48.286 52.2995 45.5952 53.6906M49.2697 51.2948C49.2431 51.3219 49.2114 51.3433 49.1764 51.3578C49.1414 51.3723 49.1038 51.3796 49.0659 51.3791C49.0089 51.3792 48.9532 51.3623 48.9058 51.3306C48.8584 51.299 48.8215 51.254 48.7997 51.2013C48.7779 51.1487 48.7721 51.0908 48.7833 51.0349C48.7944 50.979 48.8219 50.9276 48.8622 50.8873C48.8903 50.8592 49.4945 50.2199 49.4945 48.9342C49.4945 48.7726 49.6209 48.6461 49.7825 48.6461C49.9441 48.6461 50.0706 48.7726 50.0706 48.9342C50.0706 50.4728 49.3048 51.2597 49.2697 51.2878M55.2486 36.5056C53.3938 40.4681 50.4921 41.1286 48.7779 41.1286C47.9418 41.1286 47.3868 40.974 47.3727 40.967C47.3362 40.9565 47.3021 40.9389 47.2724 40.9151C47.2427 40.8914 47.2181 40.8621 47.1998 40.8288C47.1815 40.7955 47.17 40.7589 47.1659 40.7211C47.1618 40.6833 47.1652 40.6451 47.176 40.6087C47.1865 40.5721 47.2041 40.5381 47.2278 40.5084C47.2515 40.4787 47.2809 40.454 47.3142 40.4357C47.3475 40.4174 47.3841 40.4059 47.4219 40.4018C47.4596 40.3978 47.4979 40.4012 47.5343 40.4119C47.724 40.4681 52.1783 41.6976 54.7287 36.2597C54.7989 36.1192 54.9676 36.056 55.1081 36.1192C55.2486 36.1895 55.3118 36.3581 55.2486 36.4986M57.6373 32.241C57.3212 32.4166 57.005 32.4799 56.7099 32.4799C55.9652 32.4799 55.3891 32.0653 55.354 32.0443C55.2931 31.9991 55.2524 31.9318 55.2405 31.8569C55.2287 31.7821 55.2467 31.7055 55.2907 31.6438C55.3821 31.5173 55.5647 31.4892 55.6912 31.5806C55.7263 31.6087 56.5483 32.1848 57.3563 31.7421C57.4968 31.6649 57.6725 31.714 57.7427 31.8546C57.82 31.9951 57.7708 32.1707 57.6303 32.241M57.82 27.6672C57.9746 27.6461 58.1221 27.7585 58.1432 27.9131C58.1643 28.0677 58.0519 28.2152 57.8973 28.2363C57.806 28.2503 57.7216 28.2574 57.6303 28.2574C56.5483 28.2574 55.9582 27.3159 55.7896 26.782C55.7404 26.6274 55.8247 26.4728 55.9793 26.4236C56.1338 26.3745 56.2884 26.4588 56.3376 26.6133C56.3516 26.6625 56.738 27.8147 57.82 27.6742" fill="white"/>
<path d="M79.48 40L88.152 17.6H93.144L101.624 40H95.928L94.68 36.48H86.488L85.176 40H79.48ZM88.376 31.36H92.856L90.68 25.152L88.376 31.36ZM103.596 40V17.6H113.548C120.204 17.6 125.132 22.272 125.132 28.64C125.132 35.04 120.108 40 113.548 40H103.596ZM108.972 34.208H113.548C117.356 34.208 119.692 31.456 119.692 28.576C119.692 25.44 116.94 23.36 113.548 23.36H108.972V34.208ZM127.784 40V17.6H134.856L141.288 29.344L147.72 17.6H154.6V40H149.224V26.432L143.496 36.8H138.856L133.16 26.432V40H127.784ZM157.471 40V17.6H162.847V40H157.471ZM165.721 40V17.6H171.257L179.481 30.112V17.6H184.537V40H179.641L170.777 26.528V40H165.721ZM193.815 40V17.6H204.087C209.111 17.6 211.959 20.864 211.959 25.6C211.959 30.4 209.111 33.6 204.087 33.6H199.191V40H193.815ZM199.191 28.48H203.895C205.303 28.48 206.519 27.36 206.519 25.632C206.519 23.84 205.143 22.72 203.895 22.72H199.191V28.48ZM210.73 40L219.402 17.6H224.394L232.874 40H227.178L225.93 36.48H217.738L216.426 40H210.73ZM219.626 31.36H224.106L221.93 25.152L219.626 31.36ZM234.846 40V17.6H240.382L248.606 30.112V17.6H253.662V40H248.766L239.902 26.528V40H234.846ZM256.534 40V17.6H270.582V22.72H261.91V26.304H270.422V31.424H261.91V34.88H270.742V40H256.534ZM273.253 40V17.6H287.301V22.72H278.629V26.304H287.141V31.424H278.629V34.88H287.461V40H273.253ZM289.971 40V17.6H295.347V34.88H304.499V40H289.971Z" fill="#121C57"/>
</svg>
