<svg xmlns="http://www.w3.org/2000/svg" width="172" height="82" fill="none" viewBox="0 0 172 82"><mask id="a" width="170" height="80" x="2" y="2" fill="#000" maskUnits="userSpaceOnUse"><path fill="#fff" d="M2 2h170v80H2z"/><path d="M154 16c8.837 0 16 7.163 16 16v32c0 8.837-7.163 16-16 16H20c-8.837 0-16-7.163-16-16V32c0-8.837 7.163-16 16-16h59l8-12 8 12z"/></mask><path fill="#0f1c5b" d="M154 16c8.837 0 16 7.163 16 16v32c0 8.837-7.163 16-16 16H20c-8.837 0-16-7.163-16-16V32c0-8.837 7.163-16 16-16h59l8-12 8 12z"/><path fill="#0f1c5b" d="M4 32H2zm75-16v2a2 2 0 0 0 1.664-.89zm8-12 1.664-1.11a2 2 0 0 0-3.328 0zm8 12-1.664 1.11A2 2 0 0 0 95 18zm59 0v2c7.732 0 14 6.268 14 14h4c0-9.941-8.059-18-18-18zm16 16h-2v32h4V32zm0 32h-2c0 7.732-6.268 14-14 14v4c9.941 0 18-8.059 18-18zm-16 16v-2H20v4h134zM20 80v-2c-7.732 0-14-6.268-14-14H2c0 9.941 8.059 18 18 18zM4 64h2V32H2v32zm0-32h2c0-7.732 6.268-14 14-14v-4c-9.941 0-18 8.059-18 18zm16-16v2h59v-4H20zm59 0 1.664 1.11 8-12L87 4l-1.664-1.11-8 12zm8-12-1.664 1.11 8 12L95 16l1.664-1.11-8-12zm8 12v2h59v-4H95z" mask="url(#a)"/><mask id="b" width="170" height="80" x="0" y="0" fill="#000" maskUnits="userSpaceOnUse"><path fill="#fff" d="M0 0h170v80H0z"/><path d="M152 14c8.837 0 16 7.163 16 16v32c0 8.837-7.163 16-16 16H18C9.163 78 2 70.837 2 62V30c0-8.837 7.163-16 16-16h59l8-12 8 12z"/></mask><path fill="#ffe9d9" d="M152 14c8.837 0 16 7.163 16 16v32c0 8.837-7.163 16-16 16H18C9.163 78 2 70.837 2 62V30c0-8.837 7.163-16 16-16h59l8-12 8 12z"/><path fill="#0f1c5b" d="M2 30H0zm75-16v2a2 2 0 0 0 1.664-.89zm8-12L86.664.89a2 2 0 0 0-3.328 0zm8 12-1.664 1.11A2 2 0 0 0 93 16zm59 0v2c7.732 0 14 6.268 14 14h4c0-9.941-8.059-18-18-18zm16 16h-2v32h4V30zm0 32h-2c0 7.732-6.268 14-14 14v4c9.941 0 18-8.059 18-18zm-16 16v-2H18v4h134zM18 78v-2c-7.732 0-14-6.268-14-14H0c0 9.941 8.059 18 18 18zM2 62h2V30H0v32zm0-32h2c0-7.732 6.268-14 14-14v-4C8.059 12 0 20.059 0 30zm16-16v2h59v-4H18zm59 0 1.664 1.11 8-12L85 2 83.336.89l-8 12zm8-12-1.664 1.11 8 12L93 14l1.664-1.11-8-12zm8 12v2h59v-4H93z" mask="url(#b)"/><path fill="#0f1c5b" d="M17.375 42V31.818h2.153v4.49h.134l3.664-4.49h2.58l-3.778 4.56L25.951 42h-2.575l-2.79-4.186-1.058 1.292V42zm11.73-10.182V42h-2.117V31.818zm5.177 10.331q-1.177 0-2.028-.477a3.27 3.27 0 0 1-1.303-1.362q-.457-.885-.457-2.093 0-1.178.457-2.069a3.4 3.4 0 0 1 1.288-1.387q.836-.497 1.959-.497.756 0 1.407.244.655.24 1.143.72.493.483.766 1.214.273.725.273 1.7v.582H31.34V37.41h4.455q0-.458-.2-.81a1.4 1.4 0 0 0-.551-.552 1.6 1.6 0 0 0-.81-.204q-.483 0-.855.224a1.57 1.57 0 0 0-.577.591 1.7 1.7 0 0 0-.214.82v1.249q0 .566.209.98.214.411.601.635.389.224.92.224.352 0 .646-.1.293-.099.503-.298.209-.198.318-.487l1.959.13q-.15.705-.612 1.232-.458.523-1.183.816-.72.288-1.666.288m7.19-1.541-.056.547a7.5 7.5 0 0 1-.248 1.307 14 14 0 0 1-.378 1.189q-.194.532-.313.835h-1.372q.074-.294.204-.82.129-.523.243-1.174a10 10 0 0 0 .144-1.327l.025-.557zm6.875 1.536q-.731 0-1.303-.253a2.1 2.1 0 0 1-.904-.761q-.33-.507-.329-1.263 0-.636.234-1.069t.636-.696q.404-.263.915-.397a7 7 0 0 1 1.084-.19q.666-.069 1.074-.129.408-.065.592-.189a.42.42 0 0 0 .184-.367v-.03q0-.473-.299-.731-.293-.258-.835-.259-.571 0-.91.254a1.17 1.17 0 0 0-.447.626l-1.96-.159q.15-.696.587-1.203a2.8 2.8 0 0 1 1.13-.785q.695-.279 1.61-.279.636 0 1.218.15.586.148 1.039.462.458.313.72.805.264.487.264 1.168V42H50.64v-1.059h-.06q-.184.359-.492.631-.308.27-.74.423-.434.15-1 .15m.606-1.462q.468 0 .826-.183.358-.189.562-.508.203-.318.203-.72v-.81a1.1 1.1 0 0 1-.273.119q-.169.05-.383.094a19 19 0 0 1-.427.075l-.388.054a2.6 2.6 0 0 0-.651.174 1.04 1.04 0 0 0-.433.323.8.8 0 0 0-.154.498q0 .432.313.66.318.224.805.224m-.984-7.362q-.427 0-.736-.299a.97.97 0 0 1-.308-.716.95.95 0 0 1 .308-.715 1.03 1.03 0 0 1 .736-.294q.432 0 .73.294a.96.96 0 0 1 .304.715.98.98 0 0 1-.303.716 1 1 0 0 1-.73.299m3.043 0q-.427 0-.736-.299a.97.97 0 0 1-.308-.716.95.95 0 0 1 .308-.715 1.03 1.03 0 0 1 .736-.294q.432 0 .73.294a.96.96 0 0 1 .304.715.98.98 0 0 1-.303.716 1 1 0 0 1-.731.299m5.197 6.483.005-2.54h.309l2.446-2.9h2.43l-3.285 3.839h-.502zM54.29 42V31.818h2.118V42zm4.773 0-2.247-3.326 1.412-1.496L61.544 42zm5.295-2.197.005-2.54h.308l2.446-2.9h2.431l-3.286 3.839h-.502zM62.438 42V31.818h2.119V42zm4.774 0-2.248-3.326 1.412-1.496L69.692 42zm3.375 0v-7.636h2.118V42zm1.064-8.62a1.15 1.15 0 0 1-.81-.314 1.02 1.02 0 0 1-.333-.76q0-.438.333-.751.338-.319.81-.319t.806.319a.99.99 0 0 1 .338.75q0 .443-.338.761-.332.313-.806.313m10.053.984v1.59h-4.599v-1.59zm-3.555-1.83h2.118v7.12q0 .292.09.457.09.159.248.224.164.064.378.064.15 0 .298-.025.15-.03.229-.044l.333 1.576a6 6 0 0 1-.447.114 3.6 3.6 0 0 1-.701.084q-.765.03-1.343-.203a1.87 1.87 0 0 1-.89-.726q-.318-.493-.313-1.243zm7.112 9.61q-.73 0-1.302-.253a2.1 2.1 0 0 1-.905-.761q-.33-.507-.329-1.263 0-.636.234-1.069a1.9 1.9 0 0 1 .636-.696q.403-.263.915-.397a7 7 0 0 1 1.084-.19q.666-.069 1.074-.129.408-.065.592-.189a.42.42 0 0 0 .183-.367v-.03q0-.473-.298-.731-.293-.258-.835-.259-.571 0-.91.254a1.17 1.17 0 0 0-.447.626l-1.959-.159q.15-.696.587-1.203a2.8 2.8 0 0 1 1.128-.785q.696-.279 1.611-.279.636 0 1.218.15.586.148 1.04.462.456.313.72.805.263.487.263 1.168V42h-2.008v-1.059h-.06q-.183.359-.492.631-.308.27-.74.423-.434.15-1 .15m.607-1.462q.467 0 .825-.183.358-.189.562-.508.204-.318.204-.72v-.81a1.1 1.1 0 0 1-.274.119 5 5 0 0 1-.383.094q-.214.039-.427.075l-.388.054a2.6 2.6 0 0 0-.651.174 1.04 1.04 0 0 0-.433.323.8.8 0 0 0-.154.498q0 .432.313.66.318.224.806.224m7.454-3.097V42h-2.118V31.818h2.059v3.893h.09q.258-.676.835-1.059.576-.388 1.446-.388.795 0 1.387.348.597.343.925.99.333.641.328 1.536V42h-2.118v-4.484q.005-.706-.358-1.1-.357-.391-1.004-.392-.432 0-.766.184a1.3 1.3 0 0 0-.517.537 1.8 1.8 0 0 0-.189.84m8.796 4.56q-.73 0-1.302-.254a2.1 2.1 0 0 1-.905-.761q-.328-.507-.328-1.263 0-.636.234-1.069.233-.432.636-.696.402-.263.915-.397.516-.135 1.084-.19.666-.069 1.073-.129.408-.065.592-.189a.41.41 0 0 0 .184-.367v-.03q0-.473-.298-.731-.294-.258-.836-.259-.571 0-.909.254a1.17 1.17 0 0 0-.448.626l-1.959-.159q.15-.696.587-1.203a2.8 2.8 0 0 1 1.129-.785q.696-.279 1.61-.279.638 0 1.218.15.588.148 1.039.462.458.313.721.805.264.487.264 1.168V42h-2.009v-1.059h-.059q-.184.359-.493.631-.308.27-.74.423-.433.15-1 .15m.607-1.463q.468 0 .825-.183.358-.189.562-.508.204-.318.204-.72v-.81a1.1 1.1 0 0 1-.274.119q-.168.05-.382.094-.214.039-.428.075l-.388.054a2.6 2.6 0 0 0-.651.174q-.279.12-.433.323a.8.8 0 0 0-.154.498q0 .432.314.66.318.224.805.224m8.151 1.442q-.87 0-1.576-.447-.701-.453-1.114-1.328-.407-.879-.407-2.157 0-1.313.422-2.183.423-.875 1.124-1.307.705-.438 1.546-.438.641 0 1.069.219.432.214.696.537.268.318.408.626h.064v-3.828h2.113V42h-2.088v-1.223h-.089a2.8 2.8 0 0 1-.423.631 2.1 2.1 0 0 1-.701.512q-.427.204-1.044.204m.671-1.685q.512 0 .865-.279.358-.282.547-.79.194-.507.194-1.188t-.189-1.183-.547-.776a1.4 1.4 0 0 0-.87-.273q-.522 0-.88.283t-.542.786a3.4 3.4 0 0 0-.184 1.163q0 .666.184 1.178.19.507.542.796.358.282.88.283m12.136 1.71q-1.179 0-2.029-.477a3.27 3.27 0 0 1-1.302-1.362q-.458-.885-.458-2.093 0-1.178.458-2.069a3.4 3.4 0 0 1 1.287-1.387q.835-.497 1.959-.497.756 0 1.407.244.657.24 1.144.72.492.483.765 1.214.274.725.274 1.7v.582h-6.448V37.41h4.454q0-.458-.199-.81a1.4 1.4 0 0 0-.552-.552 1.6 1.6 0 0 0-.81-.204q-.483 0-.855.224a1.57 1.57 0 0 0-.577.591 1.7 1.7 0 0 0-.214.82v1.249q0 .566.209.98.214.411.602.635.387.224.92.224.352 0 .646-.1.293-.099.502-.298a1.3 1.3 0 0 0 .318-.487l1.959.13q-.149.705-.612 1.232-.456.523-1.183.816-.72.288-1.665.288m7.005-4.564V42h-2.118v-7.636h2.018v1.347h.09q.253-.666.85-1.054.597-.393 1.447-.393.795 0 1.387.348.592.349.919.994.329.642.329 1.532V42h-2.118v-4.484q.005-.702-.358-1.094-.363-.398-1-.398-.428 0-.755.184a1.27 1.27 0 0 0-.507.537q-.18.348-.184.84m8.709 0V42h-2.118v-7.636h2.018v1.347h.09q.253-.666.85-1.054.597-.393 1.447-.393.795 0 1.387.348.591.349.919.994.329.642.329 1.532V42h-2.118v-4.484q.005-.702-.358-1.094-.363-.398-1-.398-.428 0-.755.184a1.27 1.27 0 0 0-.507.537q-.18.348-.184.84m10.071 4.564q-1.179 0-2.029-.477a3.27 3.27 0 0 1-1.302-1.362q-.457-.885-.457-2.093 0-1.178.457-2.069a3.4 3.4 0 0 1 1.288-1.387q.834-.497 1.958-.497.756 0 1.407.244.657.24 1.144.72.492.483.765 1.214.274.725.274 1.7v.582h-6.448V37.41h4.454q0-.458-.199-.81a1.4 1.4 0 0 0-.551-.552 1.6 1.6 0 0 0-.811-.204 1.63 1.63 0 0 0-.855.224 1.6 1.6 0 0 0-.577.591 1.7 1.7 0 0 0-.213.82v1.249q0 .566.208.98.214.411.602.635.387.224.92.224.352 0 .646-.1.294-.099.502-.298a1.3 1.3 0 0 0 .318-.487l1.959.13q-.149.705-.611 1.232-.458.523-1.184.816-.72.288-1.665.288M31.942 52.364v1.59h-4.713v-1.59zM28.308 60v-8.188q0-.831.323-1.377.328-.547.895-.82a2.9 2.9 0 0 1 1.287-.274q.488 0 .89.075.408.075.607.134l-.378 1.59a3 3 0 0 0-.308-.074 2 2 0 0 0-.368-.035q-.468 0-.651.219-.184.213-.184.602V60zm6.832.144q-.731 0-1.303-.253a2.1 2.1 0 0 1-.905-.761q-.328-.507-.328-1.263 0-.636.234-1.069a1.9 1.9 0 0 1 .636-.696q.403-.263.915-.397a7 7 0 0 1 1.084-.19q.666-.069 1.074-.129.408-.065.592-.189a.42.42 0 0 0 .183-.367v-.03q0-.473-.298-.731-.293-.258-.835-.259-.571 0-.91.254a1.17 1.17 0 0 0-.447.626l-1.96-.159q.15-.696.587-1.203a2.8 2.8 0 0 1 1.13-.785q.695-.279 1.61-.279.636 0 1.218.15.586.148 1.039.462.458.313.72.805.264.487.264 1.168V60h-2.008v-1.059h-.06q-.184.359-.492.631-.309.27-.74.423-.434.15-1 .15m.606-1.462q.468 0 .826-.183.358-.189.561-.508.204-.318.204-.72v-.81a1.1 1.1 0 0 1-.273.119 5 5 0 0 1-.383.094 19 19 0 0 1-.427.075l-.388.054a2.6 2.6 0 0 0-.651.174 1.04 1.04 0 0 0-.433.323.8.8 0 0 0-.154.498q0 .432.313.66.318.224.805.224M41.083 60v-7.636h2.118V60zm1.064-8.62a1.15 1.15 0 0 1-.81-.314 1.02 1.02 0 0 1-.333-.76q0-.438.333-.751.337-.319.81-.319t.806.319a.99.99 0 0 1 .338.75q0 .443-.338.761-.332.313-.806.313m4.869-1.562V60h-2.118V49.818zM48.712 60v-7.636h2.118V60zm1.064-8.62a1.15 1.15 0 0 1-.81-.314 1.02 1.02 0 0 1-.333-.76q0-.438.333-.751.337-.319.81-.319t.806.319a.99.99 0 0 1 .338.75q0 .443-.338.761-.333.313-.806.313m5.565 8.744q-.87 0-1.576-.447-.702-.452-1.114-1.328-.408-.879-.408-2.157 0-1.313.423-2.183.422-.875 1.124-1.307.705-.438 1.546-.438.641 0 1.069.219.432.214.696.537.269.318.407.626h.065v-3.828h2.113V60h-2.088v-1.223h-.09q-.15.319-.422.631a2.1 2.1 0 0 1-.701.512q-.428.204-1.044.204m.67-1.685q.513 0 .866-.279.358-.282.547-.79.195-.507.194-1.188 0-.682-.19-1.183-.187-.503-.546-.776a1.4 1.4 0 0 0-.87-.273q-.522 0-.88.283-.359.283-.542.786a3.4 3.4 0 0 0-.184 1.163q0 .666.184 1.178.19.507.542.796.358.282.88.283m10.575-.636.005-2.54h.309l2.446-2.9h2.43l-3.285 3.839h-.502zM64.668 60V49.818h2.118V60zm4.773 0-2.247-3.326 1.412-1.496L71.92 60zm5.553.144q-.73 0-1.302-.253a2.1 2.1 0 0 1-.905-.761q-.328-.507-.328-1.263 0-.636.234-1.069.233-.432.636-.696.402-.263.915-.397a7 7 0 0 1 1.084-.19q.666-.069 1.073-.129.408-.065.592-.189a.42.42 0 0 0 .184-.367v-.03q0-.473-.298-.731-.293-.258-.836-.259-.57 0-.91.254a1.17 1.17 0 0 0-.447.626l-1.959-.159q.15-.696.587-1.203a2.8 2.8 0 0 1 1.129-.785q.695-.279 1.61-.279.637 0 1.218.15.587.148 1.04.462.457.313.72.805.264.487.264 1.168V60h-2.009v-1.059h-.06q-.183.359-.491.631-.309.27-.741.423-.433.15-1 .15m.607-1.462q.468 0 .825-.183.358-.189.562-.508.204-.318.204-.72v-.81a1.1 1.1 0 0 1-.274.119 5 5 0 0 1-.382.094 19 19 0 0 1-.428.075l-.388.054a2.6 2.6 0 0 0-.651.174 1.04 1.04 0 0 0-.433.323.8.8 0 0 0-.154.498q0 .432.314.66.318.224.805.224m15.697-6.318L88.627 60H86.24l-2.67-7.636h2.238l1.586 5.463h.08l1.58-5.463zm3.056 7.78q-.731 0-1.303-.253a2.1 2.1 0 0 1-.905-.761q-.328-.507-.328-1.263 0-.636.234-1.069a1.9 1.9 0 0 1 .636-.696q.403-.263.915-.397a7 7 0 0 1 1.084-.19q.666-.069 1.074-.129.407-.065.591-.189a.42.42 0 0 0 .184-.367v-.03q0-.473-.298-.731-.293-.258-.835-.259-.572 0-.91.254a1.17 1.17 0 0 0-.447.626l-1.96-.159q.15-.696.587-1.203a2.8 2.8 0 0 1 1.129-.785q.696-.279 1.61-.279.637 0 1.219.15.585.148 1.039.462.458.313.72.805.264.487.264 1.168V60h-2.008v-1.059h-.06q-.184.359-.492.631-.31.27-.74.423-.434.15-1 .15m.606-1.462q.468 0 .826-.183.357-.189.561-.508.204-.318.204-.72v-.81a1.1 1.1 0 0 1-.273.119 5 5 0 0 1-.383.094q-.214.039-.428.075l-.387.054a2.6 2.6 0 0 0-.652.174 1.04 1.04 0 0 0-.432.323.8.8 0 0 0-.154.498q0 .432.313.66.318.224.805.224m7.455-8.864V60h-2.118V49.818zM104.111 60v-7.636h2.118V60zm1.064-8.62q-.472 0-.811-.314a1.02 1.02 0 0 1-.333-.76q0-.438.333-.751.339-.319.811-.319t.805.319a1 1 0 0 1 .338.75q0 .443-.338.761-.333.313-.805.313m5.564 8.744q-.87 0-1.576-.447-.7-.452-1.113-1.328-.408-.879-.408-2.157 0-1.313.422-2.183.423-.875 1.124-1.307a2.9 2.9 0 0 1 1.546-.438q.642 0 1.069.219.432.214.696.537.269.318.408.626h.064v-3.828h2.113V60h-2.088v-1.223h-.089a2.8 2.8 0 0 1-.423.631 2.1 2.1 0 0 1-.701.512q-.427.204-1.044.204m.671-1.685q.513 0 .865-.279.358-.282.547-.79.194-.507.194-1.188 0-.682-.189-1.183-.189-.503-.547-.776a1.4 1.4 0 0 0-.87-.273q-.522 0-.88.283a1.74 1.74 0 0 0-.542.786 3.4 3.4 0 0 0-.183 1.163q0 .666.183 1.178.19.507.542.796.358.282.88.283m7.593 1.705q-.73 0-1.302-.253a2.1 2.1 0 0 1-.905-.761q-.328-.507-.328-1.263 0-.636.233-1.069a1.9 1.9 0 0 1 .637-.696 3.1 3.1 0 0 1 .914-.397q.517-.135 1.084-.19.666-.069 1.074-.129.408-.065.592-.189a.42.42 0 0 0 .184-.367v-.03q0-.473-.299-.731-.293-.258-.835-.259-.571 0-.91.254a1.17 1.17 0 0 0-.447.626l-1.959-.159q.15-.696.587-1.203a2.8 2.8 0 0 1 1.128-.785q.696-.279 1.611-.279.636 0 1.218.15.587.148 1.039.462.457.313.721.805.264.487.264 1.168V60h-2.009v-1.059h-.06q-.183.359-.492.631-.308.27-.741.423-.432.15-.999.15m.607-1.462q.466 0 .825-.183.358-.189.562-.508.204-.318.204-.72v-.81a1.2 1.2 0 0 1-.274.119q-.168.05-.383.094-.213.039-.427.075l-.388.054a2.6 2.6 0 0 0-.651.174q-.279.12-.433.323a.8.8 0 0 0-.154.498q0 .432.313.66.318.224.806.224m6.575 1.447q-.492 0-.846-.348a1.16 1.16 0 0 1-.348-.845q0-.487.348-.835.354-.348.846-.348.477 0 .835.348t.358.835q0 .329-.169.602-.165.269-.433.432-.269.16-.591.16m4.17 0q-.493 0-.846-.348a1.16 1.16 0 0 1-.348-.845q0-.487.348-.835.353-.348.846-.348.477 0 .835.348t.358.835q0 .329-.169.602-.165.269-.433.432-.268.16-.591.16m4.17 0q-.493 0-.846-.348a1.16 1.16 0 0 1-.348-.845q0-.487.348-.835.353-.348.846-.348.477 0 .835.348t.358.835q0 .329-.169.602-.165.269-.433.432-.268.16-.591.16m3.275-3.182v-.169q.004-.87.154-1.387a2.1 2.1 0 0 1 .447-.835q.294-.318.706-.577.309-.198.552-.412t.388-.473q.144-.262.144-.586 0-.344-.164-.602a1.1 1.1 0 0 0-.443-.398 1.3 1.3 0 0 0-.606-.139q-.323 0-.612.145a1.17 1.17 0 0 0-.472.417q-.184.274-.199.681h-2.028q.024-.995.477-1.64a2.74 2.74 0 0 1 1.198-.97 4.1 4.1 0 0 1 1.646-.323q.989 0 1.75.328a2.7 2.7 0 0 1 1.193.94q.432.616.432 1.486 0 .582-.193 1.034a2.5 2.5 0 0 1-.532.796 4 4 0 0 1-.811.621 3.3 3.3 0 0 0-.646.487q-.249.255-.373.587a2.5 2.5 0 0 0-.124.82v.17zm.984 3.182q-.498 0-.85-.348a1.14 1.14 0 0 1-.343-.845 1.12 1.12 0 0 1 .343-.835q.352-.348.85-.348.473 0 .83.348a1.14 1.14 0 0 1 .189 1.437 1.3 1.3 0 0 1-.432.432q-.269.16-.587.16"/></svg>