<svg width="172" height="82" viewBox="0 0 172 82" fill="none" xmlns="http://www.w3.org/2000/svg">
<mask id="path-1-outside-1_129_1092" maskUnits="userSpaceOnUse" x="2" y="2" width="170" height="80" fill="black">
<rect fill="white" x="2" y="2" width="170" height="80"/>
<path d="M154 16C162.837 16 170 23.1634 170 32V64C170 72.8366 162.837 80 154 80H20C11.1634 80 4 72.8366 4 64V32C4 23.1634 11.1634 16 20 16H79L87 4L95 16H154Z"/>
</mask>
<path d="M154 16C162.837 16 170 23.1634 170 32V64C170 72.8366 162.837 80 154 80H20C11.1634 80 4 72.8366 4 64V32C4 23.1634 11.1634 16 20 16H79L87 4L95 16H154Z" fill="#0F1C5B"/>
<path d="M4 32H2H4ZM79 16V18C79.6687 18 80.2932 17.6658 80.6641 17.1094L79 16ZM87 4L88.6641 2.8906C88.2932 2.3342 87.6687 2 87 2C86.3313 2 85.7068 2.3342 85.3359 2.8906L87 4ZM95 16L93.3359 17.1094C93.7068 17.6658 94.3313 18 95 18V16ZM154 16V18C161.732 18 168 24.268 168 32H170H172C172 22.0589 163.941 14 154 14V16ZM170 32H168V64H170H172V32H170ZM170 64H168C168 71.732 161.732 78 154 78V80V82C163.941 82 172 73.9411 172 64H170ZM154 80V78H20V80V82H154V80ZM20 80V78C12.268 78 6 71.732 6 64H4H2C2 73.9411 10.0589 82 20 82V80ZM4 64H6V32H4H2V64H4ZM4 32H6C6 24.268 12.268 18 20 18V16V14C10.0589 14 2 22.0589 2 32H4ZM20 16V18H79V16V14H20V16ZM79 16L80.6641 17.1094L88.6641 5.1094L87 4L85.3359 2.8906L77.3359 14.8906L79 16ZM87 4L85.3359 5.1094L93.3359 17.1094L95 16L96.6641 14.8906L88.6641 2.8906L87 4ZM95 16V18H154V16V14H95V16Z" fill="#0F1C5B" mask="url(#path-1-outside-1_129_1092)"/>
<mask id="path-3-outside-2_129_1092" maskUnits="userSpaceOnUse" x="0" y="0" width="170" height="80" fill="black">
<rect fill="white" width="170" height="80"/>
<path d="M152 14C160.837 14 168 21.1634 168 30V62C168 70.8366 160.837 78 152 78H18C9.16344 78 2 70.8366 2 62V30C2 21.1634 9.16344 14 18 14H77L85 2L93 14H152Z"/>
</mask>
<path d="M152 14C160.837 14 168 21.1634 168 30V62C168 70.8366 160.837 78 152 78H18C9.16344 78 2 70.8366 2 62V30C2 21.1634 9.16344 14 18 14H77L85 2L93 14H152Z" fill="#FFE9D9"/>
<path d="M2 30H0H2ZM77 14V16C77.6687 16 78.2932 15.6658 78.6641 15.1094L77 14ZM85 2L86.6641 0.8906C86.2932 0.334202 85.6687 0 85 0C84.3313 0 83.7068 0.334202 83.3359 0.8906L85 2ZM93 14L91.3359 15.1094C91.7068 15.6658 92.3313 16 93 16V14ZM152 14V16C159.732 16 166 22.268 166 30H168H170C170 20.0589 161.941 12 152 12V14ZM168 30H166V62H168H170V30H168ZM168 62H166C166 69.732 159.732 76 152 76V78V80C161.941 80 170 71.9411 170 62H168ZM152 78V76H18V78V80H152V78ZM18 78V76C10.268 76 4 69.732 4 62H2H0C0 71.9411 8.05887 80 18 80V78ZM2 62H4V30H2H0V62H2ZM2 30H4C4 22.268 10.268 16 18 16V14V12C8.05887 12 0 20.0589 0 30H2ZM18 14V16H77V14V12H18V14ZM77 14L78.6641 15.1094L86.6641 3.1094L85 2L83.3359 0.8906L75.3359 12.8906L77 14ZM85 2L83.3359 3.1094L91.3359 15.1094L93 14L94.6641 12.8906L86.6641 0.8906L85 2ZM93 14V16H152V14V12H93V14Z" fill="#0F1C5B" mask="url(#path-3-outside-2_129_1092)"/>
<path d="M17.3752 42V31.8182H19.5279V36.3075H19.6621L23.3262 31.8182H25.9064L22.128 36.3771L25.9512 42H23.3759L20.5868 37.8139L19.5279 39.1065V42H17.3752ZM29.1056 31.8182V42H26.9877V31.8182H29.1056ZM34.2823 42.1491C33.4968 42.1491 32.8207 41.9901 32.2539 41.6719C31.6905 41.3504 31.2563 40.8963 30.9513 40.3097C30.6464 39.7197 30.494 39.022 30.494 38.2166C30.494 37.4311 30.6464 36.7417 30.9513 36.1484C31.2563 35.5552 31.6855 35.0928 32.239 34.7614C32.7958 34.4299 33.4487 34.2642 34.1978 34.2642C34.7016 34.2642 35.1706 34.3454 35.6048 34.5078C36.0423 34.6669 36.4234 34.9072 36.7482 35.2287C37.0763 35.5502 37.3316 35.9545 37.5138 36.4418C37.6961 36.9257 37.7873 37.4924 37.7873 38.142V38.7237H31.3391V37.4112H35.7937C35.7937 37.1063 35.7274 36.8362 35.5948 36.6009C35.4622 36.3655 35.2783 36.1816 35.043 36.049C34.811 35.9131 34.5408 35.8452 34.2326 35.8452C33.9111 35.8452 33.6261 35.9197 33.3775 36.0689C33.1322 36.2147 32.94 36.4119 32.8008 36.6605C32.6616 36.9058 32.5903 37.1792 32.587 37.4808V38.7287C32.587 39.1065 32.6566 39.433 32.7958 39.7081C32.9383 39.9832 33.1388 40.1953 33.3974 40.3445C33.6559 40.4936 33.9625 40.5682 34.3171 40.5682C34.5524 40.5682 34.7679 40.535 34.9634 40.4688C35.159 40.4025 35.3263 40.303 35.4656 40.1705C35.6048 40.0379 35.7108 39.8755 35.7837 39.6832L37.7425 39.8125C37.6431 40.2831 37.4393 40.6941 37.131 41.0455C36.8261 41.3935 36.4317 41.6652 35.9478 41.8608C35.4672 42.053 34.9121 42.1491 34.2823 42.1491ZM41.4712 40.608L41.4165 41.1548C41.3735 41.5923 41.2906 42.0282 41.168 42.4624C41.0487 42.8999 40.9227 43.2959 40.7901 43.6506C40.6609 44.0052 40.5565 44.2836 40.4769 44.4858H39.1048C39.1545 44.2902 39.2224 44.0168 39.3086 43.6655C39.3948 43.3175 39.476 42.9264 39.5522 42.4922C39.6284 42.058 39.6765 41.6155 39.6964 41.1648L39.7212 40.608H41.4712ZM48.3469 42.1442C47.8597 42.1442 47.4255 42.0597 47.0444 41.8906C46.6632 41.7183 46.3616 41.4647 46.1396 41.13C45.9208 40.7919 45.8114 40.371 45.8114 39.8672C45.8114 39.4429 45.8893 39.0866 46.0451 38.7983C46.2009 38.5099 46.413 38.2779 46.6815 38.1023C46.9499 37.9266 47.2549 37.794 47.5962 37.7045C47.9409 37.6151 48.3022 37.5521 48.68 37.5156C49.1242 37.4692 49.4821 37.4261 49.7539 37.3864C50.0257 37.3433 50.2229 37.2803 50.3455 37.1974C50.4682 37.1146 50.5295 36.992 50.5295 36.8295V36.7997C50.5295 36.4848 50.43 36.2412 50.2312 36.0689C50.0356 35.8965 49.7572 35.8104 49.396 35.8104C49.0148 35.8104 48.7115 35.8949 48.4862 36.0639C48.2608 36.2296 48.1116 36.4384 48.0387 36.6903L46.0799 36.5312C46.1793 36.0672 46.3749 35.6662 46.6665 35.3281C46.9582 34.9867 47.3344 34.7249 47.7951 34.5426C48.2591 34.357 48.796 34.2642 49.4059 34.2642C49.8301 34.2642 50.2362 34.3139 50.6239 34.4134C51.015 34.5128 51.3614 34.6669 51.663 34.8757C51.9679 35.0845 52.2082 35.353 52.3839 35.6811C52.5595 36.0059 52.6474 36.3954 52.6474 36.8494V42H50.6388V40.9411H50.5792C50.4566 41.1797 50.2925 41.3902 50.087 41.5724C49.8815 41.7514 49.6346 41.8923 49.3462 41.995C49.0579 42.0945 48.7248 42.1442 48.3469 42.1442ZM48.9535 40.6825C49.265 40.6825 49.5401 40.6212 49.7788 40.4986C50.0174 40.3726 50.2047 40.2036 50.3406 39.9915C50.4764 39.7794 50.5444 39.5391 50.5444 39.2706V38.4602C50.4781 38.5033 50.387 38.5431 50.271 38.5795C50.1583 38.6127 50.0307 38.6442 49.8881 38.674C49.7456 38.7005 49.6031 38.7254 49.4606 38.7486C49.3181 38.7685 49.1888 38.7867 49.0728 38.8033C48.8242 38.8397 48.6071 38.8977 48.4215 38.9773C48.2359 39.0568 48.0917 39.1645 47.989 39.3004C47.8862 39.433 47.8349 39.5987 47.8349 39.7976C47.8349 40.0859 47.9393 40.3063 48.1481 40.4588C48.3602 40.608 48.6287 40.6825 48.9535 40.6825ZM47.9691 33.3196C47.6841 33.3196 47.4388 33.2202 47.2333 33.0213C47.0278 32.8191 46.9251 32.5805 46.9251 32.3054C46.9251 32.0237 47.0278 31.785 47.2333 31.5895C47.4388 31.3939 47.6841 31.2962 47.9691 31.2962C48.2575 31.2962 48.5011 31.3939 48.6999 31.5895C48.9021 31.785 49.0032 32.0237 49.0032 32.3054C49.0032 32.5805 48.9021 32.8191 48.6999 33.0213C48.5011 33.2202 48.2575 33.3196 47.9691 33.3196ZM51.0117 33.3196C50.7267 33.3196 50.4814 33.2202 50.2759 33.0213C50.0704 32.8191 49.9677 32.5805 49.9677 32.3054C49.9677 32.0237 50.0704 31.785 50.2759 31.5895C50.4814 31.3939 50.7267 31.2962 51.0117 31.2962C51.3001 31.2962 51.5437 31.3939 51.7425 31.5895C51.9447 31.785 52.0458 32.0237 52.0458 32.3054C52.0458 32.5805 51.9447 32.8191 51.7425 33.0213C51.5437 33.2202 51.3001 33.3196 51.0117 33.3196ZM56.2095 39.8026L56.2145 37.2621H56.5227L58.9688 34.3636H61.3999L58.1136 38.2017H57.6115L56.2095 39.8026ZM54.2905 42V31.8182H56.4084V42H54.2905ZM59.0632 42L56.8161 38.674L58.228 37.1776L61.544 42H59.0632ZM64.358 39.8026L64.3629 37.2621H64.6712L67.1172 34.3636H69.5483L66.2621 38.2017H65.7599L64.358 39.8026ZM62.4389 42V31.8182H64.5568V42H62.4389ZM67.2116 42L64.9645 38.674L66.3764 37.1776L69.6925 42H67.2116ZM70.5874 42V34.3636H72.7053V42H70.5874ZM71.6513 33.3793C71.3364 33.3793 71.0663 33.2749 70.8409 33.0661C70.6188 32.8539 70.5078 32.6004 70.5078 32.3054C70.5078 32.0137 70.6188 31.7635 70.8409 31.5547C71.0663 31.3426 71.3364 31.2365 71.6513 31.2365C71.9661 31.2365 72.2346 31.3426 72.4567 31.5547C72.6821 31.7635 72.7947 32.0137 72.7947 32.3054C72.7947 32.6004 72.6821 32.8539 72.4567 33.0661C72.2346 33.2749 71.9661 33.3793 71.6513 33.3793ZM81.7038 34.3636V35.9545H77.1051V34.3636H81.7038ZM78.1491 32.5341H80.267V39.6534C80.267 39.849 80.2969 40.0014 80.3565 40.1108C80.4162 40.2169 80.4991 40.2914 80.6051 40.3345C80.7145 40.3776 80.8404 40.3991 80.983 40.3991C81.0824 40.3991 81.1818 40.3909 81.2812 40.3743C81.3807 40.3544 81.4569 40.3395 81.5099 40.3295L81.843 41.9055C81.737 41.9387 81.5878 41.9768 81.3956 42.0199C81.2034 42.0663 80.9697 42.0945 80.6946 42.1044C80.1842 42.1243 79.7367 42.0563 79.3523 41.9006C78.9711 41.7448 78.6745 41.5028 78.4624 41.1747C78.2502 40.8466 78.1458 40.4323 78.1491 39.9318V32.5341ZM85.261 42.1442C84.7738 42.1442 84.3396 42.0597 83.9585 41.8906C83.5773 41.7183 83.2757 41.4647 83.0536 41.13C82.8349 40.7919 82.7255 40.371 82.7255 39.8672C82.7255 39.4429 82.8034 39.0866 82.9592 38.7983C83.1149 38.5099 83.3271 38.2779 83.5955 38.1023C83.864 37.9266 84.1689 37.794 84.5103 37.7045C84.855 37.6151 85.2163 37.5521 85.5941 37.5156C86.0382 37.4692 86.3962 37.4261 86.668 37.3864C86.9397 37.3433 87.137 37.2803 87.2596 37.1974C87.3822 37.1146 87.4435 36.992 87.4435 36.8295V36.7997C87.4435 36.4848 87.3441 36.2412 87.1452 36.0689C86.9497 35.8965 86.6713 35.8104 86.31 35.8104C85.9289 35.8104 85.6256 35.8949 85.4002 36.0639C85.1748 36.2296 85.0257 36.4384 84.9528 36.6903L82.994 36.5312C83.0934 36.0672 83.2889 35.6662 83.5806 35.3281C83.8723 34.9867 84.2485 34.7249 84.7092 34.5426C85.1732 34.357 85.7101 34.2642 86.32 34.2642C86.7442 34.2642 87.1502 34.3139 87.538 34.4134C87.9291 34.5128 88.2755 34.6669 88.5771 34.8757C88.882 35.0845 89.1223 35.353 89.2979 35.6811C89.4736 36.0059 89.5614 36.3954 89.5614 36.8494V42H87.5529V40.9411H87.4933C87.3706 41.1797 87.2066 41.3902 87.0011 41.5724C86.7956 41.7514 86.5487 41.8923 86.2603 41.995C85.9719 42.0945 85.6388 42.1442 85.261 42.1442ZM85.8675 40.6825C86.1791 40.6825 86.4542 40.6212 86.6928 40.4986C86.9315 40.3726 87.1187 40.2036 87.2546 39.9915C87.3905 39.7794 87.4585 39.5391 87.4585 39.2706V38.4602C87.3922 38.5033 87.301 38.5431 87.185 38.5795C87.0723 38.6127 86.9447 38.6442 86.8022 38.674C86.6597 38.7005 86.5172 38.7254 86.3746 38.7486C86.2321 38.7685 86.1029 38.7867 85.9869 38.8033C85.7383 38.8397 85.5212 38.8977 85.3356 38.9773C85.15 39.0568 85.0058 39.1645 84.9031 39.3004C84.8003 39.433 84.7489 39.5987 84.7489 39.7976C84.7489 40.0859 84.8533 40.3063 85.0621 40.4588C85.2743 40.608 85.5427 40.6825 85.8675 40.6825ZM93.3224 37.5852V42H91.2045V31.8182H93.2628V35.7109H93.3523C93.5246 35.2602 93.803 34.9072 94.1875 34.652C94.572 34.3935 95.0542 34.2642 95.6342 34.2642C96.1645 34.2642 96.6269 34.3802 97.0213 34.6122C97.419 34.8409 97.7273 35.1707 97.946 35.6016C98.1681 36.0291 98.2775 36.5412 98.2741 37.1378V42H96.1562V37.5156C96.1596 37.045 96.0402 36.6787 95.7983 36.4169C95.5597 36.1551 95.2249 36.0241 94.794 36.0241C94.5057 36.0241 94.2505 36.0855 94.0284 36.2081C93.8097 36.3307 93.6373 36.5097 93.5114 36.745C93.3887 36.977 93.3258 37.2571 93.3224 37.5852ZM102.118 42.1442C101.631 42.1442 101.197 42.0597 100.816 41.8906C100.435 41.7183 100.133 41.4647 99.911 41.13C99.6923 40.7919 99.5829 40.371 99.5829 39.8672C99.5829 39.4429 99.6608 39.0866 99.8166 38.7983C99.9724 38.5099 100.184 38.2779 100.453 38.1023C100.721 37.9266 101.026 37.794 101.368 37.7045C101.712 37.6151 102.074 37.5521 102.452 37.5156C102.896 37.4692 103.254 37.4261 103.525 37.3864C103.797 37.3433 103.994 37.2803 104.117 37.1974C104.24 37.1146 104.301 36.992 104.301 36.8295V36.7997C104.301 36.4848 104.202 36.2412 104.003 36.0689C103.807 35.8965 103.529 35.8104 103.167 35.8104C102.786 35.8104 102.483 35.8949 102.258 36.0639C102.032 36.2296 101.883 36.4384 101.81 36.6903L99.8514 36.5312C99.9508 36.0672 100.146 35.6662 100.438 35.3281C100.73 34.9867 101.106 34.7249 101.567 34.5426C102.031 34.357 102.568 34.2642 103.177 34.2642C103.602 34.2642 104.008 34.3139 104.395 34.4134C104.787 34.5128 105.133 34.6669 105.434 34.8757C105.739 35.0845 105.98 35.353 106.155 35.6811C106.331 36.0059 106.419 36.3954 106.419 36.8494V42H104.41V40.9411H104.351C104.228 41.1797 104.064 41.3902 103.858 41.5724C103.653 41.7514 103.406 41.8923 103.118 41.995C102.829 42.0945 102.496 42.1442 102.118 42.1442ZM102.725 40.6825C103.037 40.6825 103.312 40.6212 103.55 40.4986C103.789 40.3726 103.976 40.2036 104.112 39.9915C104.248 39.7794 104.316 39.5391 104.316 39.2706V38.4602C104.25 38.5033 104.158 38.5431 104.042 38.5795C103.93 38.6127 103.802 38.6442 103.66 38.674C103.517 38.7005 103.375 38.7254 103.232 38.7486C103.09 38.7685 102.96 38.7867 102.844 38.8033C102.596 38.8397 102.379 38.8977 102.193 38.9773C102.007 39.0568 101.863 39.1645 101.76 39.3004C101.658 39.433 101.606 39.5987 101.606 39.7976C101.606 40.0859 101.711 40.3063 101.92 40.4588C102.132 40.608 102.4 40.6825 102.725 40.6825ZM110.876 42.1243C110.296 42.1243 109.771 41.9751 109.3 41.6768C108.833 41.3752 108.461 40.9328 108.186 40.3494C107.914 39.7628 107.779 39.0436 107.779 38.1918C107.779 37.3168 107.919 36.5893 108.201 36.0092C108.483 35.4259 108.857 34.9901 109.325 34.7017C109.795 34.41 110.311 34.2642 110.871 34.2642C111.298 34.2642 111.655 34.3371 111.94 34.483C112.228 34.6255 112.46 34.8045 112.636 35.0199C112.815 35.232 112.951 35.4408 113.044 35.6463H113.108V31.8182H115.221V42H113.133V40.777H113.044C112.944 40.9891 112.803 41.1996 112.621 41.4084C112.442 41.6139 112.208 41.7846 111.92 41.9205C111.635 42.0563 111.287 42.1243 110.876 42.1243ZM111.547 40.4389C111.888 40.4389 112.177 40.3461 112.412 40.1605C112.651 39.9716 112.833 39.7081 112.959 39.37C113.088 39.032 113.153 38.6359 113.153 38.1818C113.153 37.7277 113.09 37.3333 112.964 36.9986C112.838 36.6638 112.656 36.4053 112.417 36.223C112.178 36.0407 111.888 35.9496 111.547 35.9496C111.199 35.9496 110.906 36.044 110.667 36.233C110.428 36.4219 110.248 36.6837 110.125 37.0185C110.003 37.3532 109.941 37.741 109.941 38.1818C109.941 38.6259 110.003 39.0187 110.125 39.3601C110.251 39.6982 110.432 39.9633 110.667 40.1555C110.906 40.3445 111.199 40.4389 111.547 40.4389ZM123.683 42.1491C122.897 42.1491 122.221 41.9901 121.654 41.6719C121.091 41.3504 120.657 40.8963 120.352 40.3097C120.047 39.7197 119.894 39.022 119.894 38.2166C119.894 37.4311 120.047 36.7417 120.352 36.1484C120.657 35.5552 121.086 35.0928 121.639 34.7614C122.196 34.4299 122.849 34.2642 123.598 34.2642C124.102 34.2642 124.571 34.3454 125.005 34.5078C125.443 34.6669 125.824 34.9072 126.149 35.2287C126.477 35.5502 126.732 35.9545 126.914 36.4418C127.097 36.9257 127.188 37.4924 127.188 38.142V38.7237H120.74V37.4112H125.194C125.194 37.1063 125.128 36.8362 124.995 36.6009C124.863 36.3655 124.679 36.1816 124.443 36.049C124.211 35.9131 123.941 35.8452 123.633 35.8452C123.311 35.8452 123.026 35.9197 122.778 36.0689C122.533 36.2147 122.34 36.4119 122.201 36.6605C122.062 36.9058 121.991 37.1792 121.987 37.4808V38.7287C121.987 39.1065 122.057 39.433 122.196 39.7081C122.339 39.9832 122.539 40.1953 122.798 40.3445C123.056 40.4936 123.363 40.5682 123.718 40.5682C123.953 40.5682 124.168 40.535 124.364 40.4688C124.559 40.4025 124.727 40.303 124.866 40.1705C125.005 40.0379 125.111 39.8755 125.184 39.6832L127.143 39.8125C127.044 40.2831 126.84 40.6941 126.531 41.0455C126.227 41.3935 125.832 41.6652 125.348 41.8608C124.868 42.053 124.312 42.1491 123.683 42.1491ZM130.688 37.5852V42H128.57V34.3636H130.588V35.7109H130.678C130.847 35.2668 131.13 34.9155 131.528 34.657C131.926 34.3951 132.408 34.2642 132.975 34.2642C133.505 34.2642 133.967 34.3802 134.362 34.6122C134.756 34.8442 135.063 35.1757 135.281 35.6065C135.5 36.0341 135.61 36.5445 135.61 37.1378V42H133.492V37.5156C133.495 37.0483 133.376 36.6837 133.134 36.4219C132.892 36.1567 132.559 36.0241 132.134 36.0241C131.849 36.0241 131.597 36.0855 131.379 36.2081C131.163 36.3307 130.994 36.5097 130.872 36.745C130.752 36.977 130.691 37.2571 130.688 37.5852ZM139.397 37.5852V42H137.279V34.3636H139.297V35.7109H139.387C139.556 35.2668 139.839 34.9155 140.237 34.657C140.635 34.3951 141.117 34.2642 141.684 34.2642C142.214 34.2642 142.676 34.3802 143.071 34.6122C143.465 34.8442 143.772 35.1757 143.99 35.6065C144.209 36.0341 144.319 36.5445 144.319 37.1378V42H142.201V37.5156C142.204 37.0483 142.085 36.6837 141.843 36.4219C141.601 36.1567 141.268 36.0241 140.843 36.0241C140.558 36.0241 140.306 36.0855 140.088 36.2081C139.872 36.3307 139.703 36.5097 139.581 36.745C139.461 36.977 139.4 37.2571 139.397 37.5852ZM149.468 42.1491C148.682 42.1491 148.006 41.9901 147.439 41.6719C146.876 41.3504 146.442 40.8963 146.137 40.3097C145.832 39.7197 145.68 39.022 145.68 38.2166C145.68 37.4311 145.832 36.7417 146.137 36.1484C146.442 35.5552 146.871 35.0928 147.425 34.7614C147.981 34.4299 148.634 34.2642 149.383 34.2642C149.887 34.2642 150.356 34.3454 150.79 34.5078C151.228 34.6669 151.609 34.9072 151.934 35.2287C152.262 35.5502 152.517 35.9545 152.699 36.4418C152.882 36.9257 152.973 37.4924 152.973 38.142V38.7237H146.525V37.4112H150.979C150.979 37.1063 150.913 36.8362 150.78 36.6009C150.648 36.3655 150.464 36.1816 150.229 36.049C149.997 35.9131 149.726 35.8452 149.418 35.8452C149.097 35.8452 148.812 35.9197 148.563 36.0689C148.318 36.2147 148.126 36.4119 147.986 36.6605C147.847 36.9058 147.776 37.1792 147.773 37.4808V38.7287C147.773 39.1065 147.842 39.433 147.981 39.7081C148.124 39.9832 148.324 40.1953 148.583 40.3445C148.841 40.4936 149.148 40.5682 149.503 40.5682C149.738 40.5682 149.953 40.535 150.149 40.4688C150.345 40.4025 150.512 40.303 150.651 40.1705C150.79 40.0379 150.896 39.8755 150.969 39.6832L152.928 39.8125C152.829 40.2831 152.625 40.6941 152.317 41.0455C152.012 41.3935 151.617 41.6652 151.133 41.8608C150.653 42.053 150.098 42.1491 149.468 42.1491ZM31.9419 52.3636V53.9545H27.2289V52.3636H31.9419ZM28.3077 60V51.8118C28.3077 51.2583 28.4154 50.7992 28.6309 50.4347C28.8496 50.0701 29.1479 49.7966 29.5257 49.6143C29.9036 49.4321 30.3328 49.3409 30.8134 49.3409C31.1382 49.3409 31.4348 49.3658 31.7033 49.4155C31.9751 49.4652 32.1773 49.5099 32.3098 49.5497L31.932 51.1406C31.8491 51.1141 31.7464 51.0893 31.6238 51.0661C31.5044 51.0429 31.3818 51.0312 31.2559 51.0312C30.9443 51.0312 30.7272 51.1042 30.6046 51.25C30.4819 51.3925 30.4206 51.593 30.4206 51.8516V60H28.3077ZM35.1399 60.1442C34.6527 60.1442 34.2185 60.0597 33.8374 59.8906C33.4562 59.7183 33.1546 59.4647 32.9325 59.13C32.7138 58.7919 32.6044 58.371 32.6044 57.8672C32.6044 57.4429 32.6823 57.0866 32.8381 56.7983C32.9938 56.5099 33.206 56.2779 33.4744 56.1023C33.7429 55.9266 34.0478 55.794 34.3892 55.7045C34.7339 55.6151 35.0952 55.5521 35.473 55.5156C35.9171 55.4692 36.2751 55.4261 36.5469 55.3864C36.8187 55.3433 37.0159 55.2803 37.1385 55.1974C37.2611 55.1146 37.3224 54.992 37.3224 54.8295V54.7997C37.3224 54.4848 37.223 54.2412 37.0241 54.0689C36.8286 53.8965 36.5502 53.8104 36.1889 53.8104C35.8078 53.8104 35.5045 53.8949 35.2791 54.0639C35.0537 54.2296 34.9046 54.4384 34.8317 54.6903L32.8729 54.5312C32.9723 54.0672 33.1679 53.6662 33.4595 53.3281C33.7512 52.9867 34.1274 52.7249 34.5881 52.5426C35.0521 52.357 35.589 52.2642 36.1989 52.2642C36.6231 52.2642 37.0291 52.3139 37.4169 52.4134C37.808 52.5128 38.1544 52.6669 38.456 52.8757C38.7609 53.0845 39.0012 53.353 39.1768 53.6811C39.3525 54.0059 39.4403 54.3954 39.4403 54.8494V60H37.4318V58.9411H37.3722C37.2495 59.1797 37.0855 59.3902 36.88 59.5724C36.6745 59.7514 36.4276 59.8923 36.1392 59.995C35.8509 60.0945 35.5178 60.1442 35.1399 60.1442ZM35.7464 58.6825C36.058 58.6825 36.3331 58.6212 36.5717 58.4986C36.8104 58.3726 36.9976 58.2036 37.1335 57.9915C37.2694 57.7794 37.3374 57.5391 37.3374 57.2706V56.4602C37.2711 56.5033 37.1799 56.5431 37.0639 56.5795C36.9512 56.6127 36.8236 56.6442 36.6811 56.674C36.5386 56.7005 36.3961 56.7254 36.2536 56.7486C36.111 56.7685 35.9818 56.7867 35.8658 56.8033C35.6172 56.8397 35.4001 56.8977 35.2145 56.9773C35.0289 57.0568 34.8847 57.1645 34.782 57.3004C34.6792 57.433 34.6278 57.5987 34.6278 57.7976C34.6278 58.0859 34.7322 58.3063 34.9411 58.4588C35.1532 58.608 35.4216 58.6825 35.7464 58.6825ZM41.0835 60V52.3636H43.2013V60H41.0835ZM42.1474 51.3793C41.8325 51.3793 41.5624 51.2749 41.337 51.0661C41.1149 50.8539 41.0039 50.6004 41.0039 50.3054C41.0039 50.0137 41.1149 49.7635 41.337 49.5547C41.5624 49.3426 41.8325 49.2365 42.1474 49.2365C42.4622 49.2365 42.7307 49.3426 42.9528 49.5547C43.1781 49.7635 43.2908 50.0137 43.2908 50.3054C43.2908 50.6004 43.1781 50.8539 42.9528 51.0661C42.7307 51.2749 42.4622 51.3793 42.1474 51.3793ZM47.0158 49.8182V60H44.8979V49.8182H47.0158ZM48.7124 60V52.3636H50.8303V60H48.7124ZM49.7763 51.3793C49.4614 51.3793 49.1913 51.2749 48.9659 51.0661C48.7438 50.8539 48.6328 50.6004 48.6328 50.3054C48.6328 50.0137 48.7438 49.7635 48.9659 49.5547C49.1913 49.3426 49.4614 49.2365 49.7763 49.2365C50.0911 49.2365 50.3596 49.3426 50.5817 49.5547C50.8071 49.7635 50.9197 50.0137 50.9197 50.3054C50.9197 50.6004 50.8071 50.8539 50.5817 51.0661C50.3596 51.2749 50.0911 51.3793 49.7763 51.3793ZM55.3407 60.1243C54.7607 60.1243 54.2354 59.9751 53.7647 59.6768C53.2974 59.3752 52.9262 58.9328 52.6511 58.3494C52.3793 57.7628 52.2434 57.0436 52.2434 56.1918C52.2434 55.3168 52.3843 54.5893 52.666 54.0092C52.9477 53.4259 53.3223 52.9901 53.7896 52.7017C54.2602 52.41 54.7756 52.2642 55.3358 52.2642C55.7633 52.2642 56.1196 52.3371 56.4047 52.483C56.693 52.6255 56.925 52.8045 57.1007 53.0199C57.2797 53.232 57.4155 53.4408 57.5083 53.6463H57.573V49.8182H59.6859V60H57.5978V58.777H57.5083C57.4089 58.9891 57.2681 59.1996 57.0858 59.4084C56.9068 59.6139 56.6731 59.7846 56.3848 59.9205C56.0997 60.0563 55.7517 60.1243 55.3407 60.1243ZM56.0119 58.4389C56.3533 58.4389 56.6416 58.3461 56.877 58.1605C57.1156 57.9716 57.2979 57.7081 57.4238 57.37C57.5531 57.032 57.6177 56.6359 57.6177 56.1818C57.6177 55.7277 57.5547 55.3333 57.4288 54.9986C57.3029 54.6638 57.1206 54.4053 56.8819 54.223C56.6433 54.0407 56.3533 53.9496 56.0119 53.9496C55.6639 53.9496 55.3706 54.044 55.1319 54.233C54.8933 54.4219 54.7127 54.6837 54.59 55.0185C54.4674 55.3532 54.4061 55.741 54.4061 56.1818C54.4061 56.6259 54.4674 57.0187 54.59 57.3601C54.716 57.6982 54.8966 57.9633 55.1319 58.1555C55.3706 58.3445 55.6639 58.4389 56.0119 58.4389ZM66.5865 57.8026L66.5914 55.2621H66.8997L69.3457 52.3636H71.7768L68.4906 56.2017H67.9885L66.5865 57.8026ZM64.6674 60V49.8182H66.7853V60H64.6674ZM69.4402 60L67.193 56.674L68.6049 55.1776L71.921 60H69.4402ZM74.9934 60.1442C74.5062 60.1442 74.072 60.0597 73.6909 59.8906C73.3097 59.7183 73.0081 59.4647 72.786 59.13C72.5673 58.7919 72.4579 58.371 72.4579 57.8672C72.4579 57.4429 72.5358 57.0866 72.6916 56.7983C72.8474 56.5099 73.0595 56.2779 73.3279 56.1023C73.5964 55.9266 73.9013 55.794 74.2427 55.7045C74.5874 55.6151 74.9487 55.5521 75.3265 55.5156C75.7707 55.4692 76.1286 55.4261 76.4004 55.3864C76.6722 55.3433 76.8694 55.2803 76.992 55.1974C77.1146 55.1146 77.176 54.992 77.176 54.8295V54.7997C77.176 54.4848 77.0765 54.2412 76.8777 54.0689C76.6821 53.8965 76.4037 53.8104 76.0424 53.8104C75.6613 53.8104 75.358 53.8949 75.1326 54.0639C74.9073 54.2296 74.7581 54.4384 74.6852 54.6903L72.7264 54.5312C72.8258 54.0672 73.0214 53.6662 73.313 53.3281C73.6047 52.9867 73.9809 52.7249 74.4416 52.5426C74.9056 52.357 75.4425 52.2642 76.0524 52.2642C76.4766 52.2642 76.8826 52.3139 77.2704 52.4134C77.6615 52.5128 78.0079 52.6669 78.3095 52.8757C78.6144 53.0845 78.8547 53.353 79.0304 53.6811C79.206 54.0059 79.2939 54.3954 79.2939 54.8494V60H77.2853V58.9411H77.2257C77.103 59.1797 76.939 59.3902 76.7335 59.5724C76.528 59.7514 76.2811 59.8923 75.9927 59.995C75.7044 60.0945 75.3713 60.1442 74.9934 60.1442ZM75.6 58.6825C75.9115 58.6825 76.1866 58.6212 76.4252 58.4986C76.6639 58.3726 76.8511 58.2036 76.987 57.9915C77.1229 57.7794 77.1909 57.5391 77.1909 57.2706V56.4602C77.1246 56.5033 77.0334 56.5431 76.9174 56.5795C76.8047 56.6127 76.6771 56.6442 76.5346 56.674C76.3921 56.7005 76.2496 56.7254 76.1071 56.7486C75.9645 56.7685 75.8353 56.7867 75.7193 56.8033C75.4707 56.8397 75.2536 56.8977 75.068 56.9773C74.8824 57.0568 74.7382 57.1645 74.6355 57.3004C74.5327 57.433 74.4814 57.5987 74.4814 57.7976C74.4814 58.0859 74.5858 58.3063 74.7946 58.4588C75.0067 58.608 75.2752 58.6825 75.6 58.6825ZM91.2965 52.3636L88.6268 60H86.2404L83.5707 52.3636H85.8079L87.3938 57.8274H87.4734L89.0543 52.3636H91.2965ZM94.3528 60.1442C93.8656 60.1442 93.4314 60.0597 93.0502 59.8906C92.6691 59.7183 92.3675 59.4647 92.1454 59.13C91.9267 58.7919 91.8173 58.371 91.8173 57.8672C91.8173 57.4429 91.8952 57.0866 92.051 56.7983C92.2067 56.5099 92.4189 56.2779 92.6873 56.1023C92.9558 55.9266 93.2607 55.794 93.6021 55.7045C93.9468 55.6151 94.3081 55.5521 94.6859 55.5156C95.13 55.4692 95.488 55.4261 95.7598 55.3864C96.0315 55.3433 96.2288 55.2803 96.3514 55.1974C96.474 55.1146 96.5353 54.992 96.5353 54.8295V54.7997C96.5353 54.4848 96.4359 54.2412 96.237 54.0689C96.0415 53.8965 95.7631 53.8104 95.4018 53.8104C95.0207 53.8104 94.7174 53.8949 94.492 54.0639C94.2666 54.2296 94.1175 54.4384 94.0446 54.6903L92.0858 54.5312C92.1852 54.0672 92.3807 53.6662 92.6724 53.3281C92.9641 52.9867 93.3403 52.7249 93.801 52.5426C94.265 52.357 94.8019 52.2642 95.4118 52.2642C95.836 52.2642 96.242 52.3139 96.6298 52.4134C97.0209 52.5128 97.3672 52.6669 97.6689 52.8757C97.9738 53.0845 98.2141 53.353 98.3897 53.6811C98.5654 54.0059 98.6532 54.3954 98.6532 54.8494V60H96.6447V58.9411H96.585C96.4624 59.1797 96.2984 59.3902 96.0929 59.5724C95.8874 59.7514 95.6404 59.8923 95.3521 59.995C95.0637 60.0945 94.7306 60.1442 94.3528 60.1442ZM94.9593 58.6825C95.2709 58.6825 95.546 58.6212 95.7846 58.4986C96.0233 58.3726 96.2105 58.2036 96.3464 57.9915C96.4823 57.7794 96.5502 57.5391 96.5502 57.2706V56.4602C96.484 56.5033 96.3928 56.5431 96.2768 56.5795C96.1641 56.6127 96.0365 56.6442 95.894 56.674C95.7515 56.7005 95.609 56.7254 95.4664 56.7486C95.3239 56.7685 95.1947 56.7867 95.0787 56.8033C94.8301 56.8397 94.613 56.8977 94.4274 56.9773C94.2418 57.0568 94.0976 57.1645 93.9949 57.3004C93.8921 57.433 93.8407 57.5987 93.8407 57.7976C93.8407 58.0859 93.9451 58.3063 94.1539 58.4588C94.3661 58.608 94.6345 58.6825 94.9593 58.6825ZM102.414 49.8182V60H100.296V49.8182H102.414ZM104.111 60V52.3636H106.229V60H104.111ZM105.175 51.3793C104.86 51.3793 104.59 51.2749 104.364 51.0661C104.142 50.8539 104.031 50.6004 104.031 50.3054C104.031 50.0137 104.142 49.7635 104.364 49.5547C104.59 49.3426 104.86 49.2365 105.175 49.2365C105.49 49.2365 105.758 49.3426 105.98 49.5547C106.205 49.7635 106.318 50.0137 106.318 50.3054C106.318 50.6004 106.205 50.8539 105.98 51.0661C105.758 51.2749 105.49 51.3793 105.175 51.3793ZM110.739 60.1243C110.159 60.1243 109.634 59.9751 109.163 59.6768C108.696 59.3752 108.325 58.9328 108.05 58.3494C107.778 57.7628 107.642 57.0436 107.642 56.1918C107.642 55.3168 107.783 54.5893 108.064 54.0092C108.346 53.4259 108.721 52.9901 109.188 52.7017C109.659 52.41 110.174 52.2642 110.734 52.2642C111.162 52.2642 111.518 52.3371 111.803 52.483C112.091 52.6255 112.323 52.8045 112.499 53.0199C112.678 53.232 112.814 53.4408 112.907 53.6463H112.971V49.8182H115.084V60H112.996V58.777H112.907C112.807 58.9891 112.666 59.1996 112.484 59.4084C112.305 59.6139 112.072 59.7846 111.783 59.9205C111.498 60.0563 111.15 60.1243 110.739 60.1243ZM111.41 58.4389C111.752 58.4389 112.04 58.3461 112.275 58.1605C112.514 57.9716 112.696 57.7081 112.822 57.37C112.952 57.032 113.016 56.6359 113.016 56.1818C113.016 55.7277 112.953 55.3333 112.827 54.9986C112.701 54.6638 112.519 54.4053 112.28 54.223C112.042 54.0407 111.752 53.9496 111.41 53.9496C111.062 53.9496 110.769 54.044 110.53 54.233C110.292 54.4219 110.111 54.6837 109.988 55.0185C109.866 55.3532 109.805 55.741 109.805 56.1818C109.805 56.6259 109.866 57.0187 109.988 57.3601C110.114 57.6982 110.295 57.9633 110.53 58.1555C110.769 58.3445 111.062 58.4389 111.41 58.4389ZM119.003 60.1442C118.516 60.1442 118.082 60.0597 117.701 59.8906C117.319 59.7183 117.018 59.4647 116.796 59.13C116.577 58.7919 116.468 58.371 116.468 57.8672C116.468 57.4429 116.546 57.0866 116.701 56.7983C116.857 56.5099 117.069 56.2779 117.338 56.1023C117.606 55.9266 117.911 55.794 118.252 55.7045C118.597 55.6151 118.958 55.5521 119.336 55.5156C119.78 55.4692 120.138 55.4261 120.41 55.3864C120.682 55.3433 120.879 55.2803 121.002 55.1974C121.124 55.1146 121.186 54.992 121.186 54.8295V54.7997C121.186 54.4848 121.086 54.2412 120.887 54.0689C120.692 53.8965 120.413 53.8104 120.052 53.8104C119.671 53.8104 119.368 53.8949 119.142 54.0639C118.917 54.2296 118.768 54.4384 118.695 54.6903L116.736 54.5312C116.836 54.0672 117.031 53.6662 117.323 53.3281C117.614 52.9867 117.991 52.7249 118.451 52.5426C118.915 52.357 119.452 52.2642 120.062 52.2642C120.486 52.2642 120.892 52.3139 121.28 52.4134C121.671 52.5128 122.018 52.6669 122.319 52.8757C122.624 53.0845 122.864 53.353 123.04 53.6811C123.216 54.0059 123.304 54.3954 123.304 54.8494V60H121.295V58.9411H121.235C121.113 59.1797 120.949 59.3902 120.743 59.5724C120.538 59.7514 120.291 59.8923 120.002 59.995C119.714 60.0945 119.381 60.1442 119.003 60.1442ZM119.61 58.6825C119.921 58.6825 120.196 58.6212 120.435 58.4986C120.674 58.3726 120.861 58.2036 120.997 57.9915C121.133 57.7794 121.201 57.5391 121.201 57.2706V56.4602C121.134 56.5033 121.043 56.5431 120.927 56.5795C120.815 56.6127 120.687 56.6442 120.544 56.674C120.402 56.7005 120.259 56.7254 120.117 56.7486C119.974 56.7685 119.845 56.7867 119.729 56.8033C119.48 56.8397 119.263 56.8977 119.078 56.9773C118.892 57.0568 118.748 57.1645 118.645 57.3004C118.542 57.433 118.491 57.5987 118.491 57.7976C118.491 58.0859 118.596 58.3063 118.804 58.4588C119.016 58.608 119.285 58.6825 119.61 58.6825ZM126.185 60.1293C125.857 60.1293 125.575 60.0133 125.339 59.7812C125.107 59.5459 124.991 59.2642 124.991 58.9361C124.991 58.6113 125.107 58.3329 125.339 58.1009C125.575 57.8688 125.857 57.7528 126.185 57.7528C126.503 57.7528 126.781 57.8688 127.02 58.1009C127.259 58.3329 127.378 58.6113 127.378 58.9361C127.378 59.1548 127.321 59.3554 127.209 59.5376C127.099 59.7166 126.955 59.8608 126.776 59.9702C126.597 60.0762 126.4 60.1293 126.185 60.1293ZM130.355 60.1293C130.026 60.1293 129.745 60.0133 129.509 59.7812C129.277 59.5459 129.161 59.2642 129.161 58.9361C129.161 58.6113 129.277 58.3329 129.509 58.1009C129.745 57.8688 130.026 57.7528 130.355 57.7528C130.673 57.7528 130.951 57.8688 131.19 58.1009C131.428 58.3329 131.548 58.6113 131.548 58.9361C131.548 59.1548 131.491 59.3554 131.379 59.5376C131.269 59.7166 131.125 59.8608 130.946 59.9702C130.767 60.0762 130.57 60.1293 130.355 60.1293ZM134.525 60.1293C134.196 60.1293 133.915 60.0133 133.679 59.7812C133.447 59.5459 133.331 59.2642 133.331 58.9361C133.331 58.6113 133.447 58.3329 133.679 58.1009C133.915 57.8688 134.196 57.7528 134.525 57.7528C134.843 57.7528 135.121 57.8688 135.36 58.1009C135.598 58.3329 135.718 58.6113 135.718 58.9361C135.718 59.1548 135.661 59.3554 135.549 59.5376C135.439 59.7166 135.295 59.8608 135.116 59.9702C134.937 60.0762 134.74 60.1293 134.525 60.1293ZM137.8 56.9474V56.7784C137.803 56.1984 137.854 55.736 137.954 55.3913C138.056 55.0466 138.206 54.7682 138.401 54.5561C138.597 54.344 138.832 54.1518 139.107 53.9794C139.313 53.8468 139.497 53.7093 139.659 53.5668C139.821 53.4242 139.951 53.2668 140.047 53.0945C140.143 52.9188 140.191 52.7232 140.191 52.5078C140.191 52.2791 140.136 52.0786 140.027 51.9062C139.917 51.7339 139.77 51.6013 139.584 51.5085C139.402 51.4157 139.2 51.3693 138.978 51.3693C138.762 51.3693 138.559 51.4174 138.366 51.5135C138.174 51.6063 138.017 51.7455 137.894 51.9311C137.771 52.1134 137.705 52.3404 137.695 52.6122H135.667C135.683 51.9493 135.842 51.4025 136.144 50.9716C136.446 50.5374 136.845 50.2143 137.342 50.0021C137.839 49.7867 138.388 49.679 138.988 49.679C139.647 49.679 140.231 49.7884 140.738 50.0071C141.245 50.2225 141.643 50.5357 141.931 50.9467C142.219 51.3577 142.363 51.8532 142.363 52.4332C142.363 52.821 142.299 53.1657 142.17 53.4673C142.044 53.7656 141.866 54.0308 141.638 54.2628C141.409 54.4915 141.139 54.6986 140.827 54.8842C140.565 55.04 140.35 55.2024 140.181 55.3714C140.015 55.5405 139.891 55.736 139.808 55.9581C139.729 56.1802 139.687 56.4536 139.684 56.7784V56.9474H137.8ZM138.784 60.1293C138.452 60.1293 138.169 60.0133 137.934 59.7812C137.702 59.5459 137.587 59.2642 137.591 58.9361C137.587 58.6113 137.702 58.3329 137.934 58.1009C138.169 57.8688 138.452 57.7528 138.784 57.7528C139.099 57.7528 139.376 57.8688 139.614 58.1009C139.853 58.3329 139.974 58.6113 139.977 58.9361C139.974 59.1548 139.916 59.3554 139.803 59.5376C139.694 59.7166 139.55 59.8608 139.371 59.9702C139.192 60.0762 138.996 60.1293 138.784 60.1293Z" fill="#0F1C5B"/>
</svg>
