<svg width="350" height="100" viewBox="0 0 350 100" fill="none" xmlns="http://www.w3.org/2000/svg">
<g clip-path="url(#clip0_129_921)">
<mask id="mask0_129_921" style="mask-type:luminance" maskUnits="userSpaceOnUse" x="0" y="0" width="350" height="100">
<path d="M0 0H350V99.2907H0V0Z" fill="white"/>
</mask>
<g mask="url(#mask0_129_921)">
<path d="M124.965 71.7907H131.186C134.64 71.7907 136.442 73.3488 136.442 75.8372C136.442 77.6977 135.384 78.7907 134.581 79.186C135.802 79.3721 137.07 80.1977 137.07 82.4535C137.07 84.4302 135.663 86.5465 132.453 86.5465H124.965V71.7907ZM131.43 77.7209C132.546 77.7209 132.86 77.1279 132.86 76.4302C132.86 75.5814 132.314 75.1628 131.198 75.1628H128.5V77.7093H131.43V77.7209ZM131.663 83.186C132.674 83.186 133.5 82.7907 133.5 81.7558C133.5 80.8721 132.802 80.4302 131.581 80.4302H128.5V83.1977H131.663V83.186ZM143.465 71.7907H146.756L152.349 86.5465H148.593L147.767 84.2209H142.372L141.512 86.5465H137.756L143.465 71.7907ZM141.593 67.7907H144.57V70.7442H141.593V67.7907ZM146.57 80.8605L145.14 76.7674L143.616 80.8605H146.57ZM145.558 67.7907H148.535V70.7442H145.558V67.7907ZM153.733 71.7907H157.384L162.802 80.0349V71.7907H166.14V86.5465H162.919L157.081 77.6628V86.5465H153.744V71.7907H153.733ZM168.465 71.7907H172.116L177.535 80.0349V71.7907H180.872V86.5465H177.651L171.814 77.6628V86.5465H168.477V71.7907H168.465ZM183.209 71.7907H192.465V75.1628H186.756V77.5232H192.36V80.8953H186.756V83.1744H192.581V86.5465H183.221V71.7907H183.209ZM200.081 81.9767H198.244V86.5581H194.698V71.8023H201.465C204.779 71.8023 206.651 74.0116 206.651 76.4884C206.651 78.3605 205.581 79.8372 204.453 80.4302C205.384 80.8721 205.849 81.8837 206.267 83.0698L207.558 86.5698H203.884L202.791 83.7442C202.221 82.3139 201.593 81.9884 200.07 81.9884L200.081 81.9767ZM201.349 78.5814C202.419 78.5814 203.081 77.8488 203.081 76.8721C203.081 75.8139 202.302 75.1628 201.349 75.1628H198.244V78.5814H201.349ZM209.012 71.7907H212.558V86.5465H209.012V71.7907ZM214.86 71.7907H221.628C224.942 71.7907 226.814 73.9418 226.814 77.0581C226.814 80.1744 224.942 82.3256 221.628 82.3256H218.407V86.5465H214.86V71.7907ZM221.5 78.9651C222.43 78.9651 223.233 78.2326 223.233 77.093C223.233 75.9535 222.326 75.1744 221.5 75.1744H218.395V78.9651H221.5ZM228.407 71.7907H231.953V86.5465H228.407V71.7907ZM233.872 79.1279C233.872 74.0698 236.826 71.4535 241.081 71.4535C244.523 71.4535 247.093 73.1395 247.407 77.2907H243.442C243.442 75.8953 242.302 75.2442 241.081 75.2442C239.581 75.2442 237.605 76.2093 237.605 79.0814C237.605 81.9535 239.395 83.0698 241.209 83.0698C242.012 83.0698 242.872 82.8139 243.279 82.1163L242.895 81.2558H239.244V78.2442H245.465L248.86 86.5581H245.233L244.814 85.6046C244.012 86.4884 242.767 86.8953 241.105 86.8953C236.698 86.8953 233.872 84.093 233.872 79.1395V79.1279ZM250.291 71.7907H253.837V86.5465H250.291V71.7907ZM255.535 81.093H259.221C259.407 82.593 260.419 83.3953 261.884 83.3953C263.058 83.3953 263.651 82.8721 263.651 82.2558C263.651 80.1279 256.128 81.0698 256.128 75.9535C256.128 73.3023 258.128 71.4651 261.465 71.4651C264.802 71.4651 266.884 73.4884 266.965 76.8837H263.36C263.209 75.8953 262.605 74.9884 261.267 74.9884C260.384 74.9884 259.744 75.407 259.744 75.9418C259.744 77.7791 267.163 77.2442 267.163 82.2209C267.163 84.6046 265.535 86.907 261.593 86.907C257.651 86.907 255.43 84.6279 255.523 81.1046L255.535 81.093ZM271.814 75.1628H268.419V71.7907H278.756V75.1628H275.36V86.5465H271.814V75.1628ZM283.977 71.7907H287.267L292.86 86.5465H289.105L288.279 84.2209H282.884L282.023 86.5465H278.267L283.977 71.7907ZM287.081 80.8605L285.651 76.7674L284.128 80.8605H287.081ZM293.337 80.6279H296.86C296.965 82.2093 297.407 83.0698 298.721 83.0698C299.779 83.0698 300.43 82.5232 300.43 80.9884V71.7907H303.977V81.4535C303.977 85.0581 302.244 86.8953 298.791 86.8953C295.081 86.8953 293.349 84.7674 293.349 80.6279H293.337ZM310.407 71.7907H313.698L319.291 86.5465H315.535L314.709 84.2209H309.314L308.453 86.5465H304.698L310.407 71.7907ZM313.5 80.8605L312.07 76.7674L310.547 80.8605H313.5ZM319.105 76.8488C319.105 73.4767 321.872 70.6977 325.267 70.6977C328.663 70.6977 331.407 73.4767 331.407 76.8488C331.407 80.2209 328.663 83.0116 325.267 83.0116C323.634 83.0085 322.068 82.3583 320.913 81.2032C319.758 80.0481 319.108 78.4824 319.105 76.8488ZM329.756 76.8721C329.756 74.3605 327.779 72.407 325.291 72.3372C322.756 72.3953 320.826 74.3605 320.779 76.8721C320.826 79.3372 322.756 81.3605 325.291 81.3605C327.826 81.3605 329.756 79.3372 329.756 76.8721ZM322.895 73.4767H325.698C327.07 73.4767 327.849 74.3837 327.849 75.4186C327.849 76.1977 327.407 76.7907 326.942 77.0581C327.326 77.2209 327.535 77.6744 327.674 78.1279L328.221 79.8953H326.698L326.209 78.4186C326 77.8256 325.744 77.686 325.116 77.686H324.36V79.8953H322.884V73.4651L322.895 73.4767ZM325.663 76.2907C326.105 76.2907 326.384 76 326.384 75.593C326.384 75.1512 326.047 74.8721 325.663 74.8721H324.372V76.2907H325.663ZM212.64 24.9651H196.965C196.698 24.9651 196.442 25 196.186 25.0465C195.93 24.9884 195.674 24.9651 195.407 24.9651H179.733C179.535 24.9651 179.349 25 179.163 25.0349C178.977 25 178.791 24.9651 178.593 24.9651H165.337C164.535 24.9651 163.767 25.2326 163.151 25.7209C162.535 25.2442 161.767 24.9651 160.965 24.9651H147.977C146.86 24.9651 145.814 25.4884 145.151 26.3721C144.733 26.9186 144.523 27.5698 144.477 28.2442C141.209 25.6047 136.523 24.314 130.326 24.314C117.186 24.314 110.802 30.6395 110.802 43.6628C110.802 56.686 117.186 63.0116 130.326 63.0116C136.535 63.0116 141.209 61.7209 144.477 59.0814C144.523 59.7558 144.744 60.407 145.151 60.9535C145.482 61.3902 145.909 61.7445 146.399 61.9887C146.889 62.2328 147.429 62.36 147.977 62.3605H161.233C161.791 62.3605 162.349 62.2209 162.837 61.9767C163.326 62.2209 163.872 62.3605 164.442 62.3605H178.605C179.721 62.3605 180.767 61.8372 181.43 60.9535C181.849 60.3953 182.058 59.7442 182.105 59.0698C185.267 61.6977 190 63.0116 196.291 63.0116C208.756 63.0116 215.07 57.7093 215.07 47.2558V32.8953L216.058 29.4767C216.211 28.9505 216.239 28.3959 216.141 27.8568C216.042 27.3177 215.819 26.809 215.49 26.3712C215.16 25.9333 214.733 25.5782 214.242 25.3341C213.752 25.0901 213.211 24.9637 212.663 24.9651H212.64ZM330.046 24.314C324.093 24.314 319.547 25.6279 316.326 28.2558C316.279 27.5814 316.058 26.9186 315.651 26.3721C315.321 25.9353 314.894 25.581 314.404 25.3369C313.913 25.0928 313.373 24.9656 312.826 24.9651H299.57C298.767 24.9651 298 25.2326 297.384 25.7209C296.767 25.2442 296 24.9651 295.198 24.9651H282.209C281.093 24.9651 280.047 25.4884 279.384 26.3721C278.965 26.9186 278.756 27.5698 278.709 28.2442C274.977 25.1744 269.674 24.314 264.884 24.314C258.372 24.314 253.593 25.8372 250.535 28.8372V28.5C250.534 27.5616 250.162 26.6617 249.5 25.997C248.837 25.3324 247.938 24.9572 247 24.9535C246.814 24.9535 246.616 24.9651 246.43 25L243.721 25.4419C242.779 25.3256 241.837 25.186 240.919 25.0465C238.733 24.7326 236.477 24.3954 234.105 24.3023C233.709 24.2907 233.36 24.2907 233.012 24.2907C228.326 24.2907 224.605 25.2791 221.965 27.2442C219.093 29.3721 217.57 32.5349 217.57 36.3721C217.57 38.7674 218.14 40.7558 219.058 42.4186C218.589 42.7536 218.209 43.1975 217.95 43.7119C217.691 44.2264 217.56 44.7961 217.57 45.3721L217.826 58.8837C217.846 59.8104 218.229 60.6922 218.892 61.34C219.555 61.9878 220.445 62.35 221.372 62.3488C221.616 62.3488 221.86 62.3256 222.093 62.2791L224.395 61.8023C228.837 62.3953 232.64 62.7907 236.57 62.7907C239.721 62.7907 243.14 62.2791 245.919 60.6512C245.977 60.7442 246.023 60.8488 246.093 60.9419C246.423 61.3786 246.85 61.7329 247.341 61.977C247.831 62.2211 248.371 62.3484 248.919 62.3488H264.163C264.43 62.3488 264.686 62.3139 264.942 62.2674C265.198 62.3256 265.453 62.3488 265.721 62.3488H281.186C281.36 62.3488 281.535 62.3139 281.709 62.2907C281.884 62.3139 282.058 62.3488 282.233 62.3488H295.488C296.046 62.3488 296.605 62.2093 297.093 61.9651C297.581 62.2093 298.128 62.3488 298.698 62.3488H312.86C313.977 62.3488 315.023 61.8256 315.686 60.9419C316.105 60.3837 316.314 59.7326 316.36 59.0581C319.57 61.686 324.128 63 330.081 63C343.698 63 350.035 56.8488 350.035 43.6512C350.035 30.4535 343.698 24.3023 330.081 24.3023L330.046 24.314Z" fill="#121C57"/>
<path d="M208.221 21.6512H192.547C192.279 21.6512 192.023 21.686 191.767 21.7326C191.512 21.6744 191.256 21.6512 190.988 21.6512H175.314C175.116 21.6512 174.93 21.686 174.744 21.7209C174.558 21.686 174.372 21.6512 174.174 21.6512H160.919C160.116 21.6512 159.349 21.9186 158.733 22.407C158.116 21.9302 157.349 21.6512 156.547 21.6512H143.558C142.442 21.6512 141.395 22.1744 140.733 23.0581C140.314 23.6047 140.105 24.2558 140.058 24.9302C136.791 22.2907 132.105 21 125.907 21C112.767 21 106.384 27.3256 106.384 40.3488C106.384 53.3721 112.767 59.6977 125.907 59.6977C132.116 59.6977 136.791 58.407 140.058 55.7674C140.105 56.4419 140.326 57.093 140.733 57.6395C141.063 58.0763 141.49 58.4306 141.98 58.6747C142.47 58.9188 143.011 59.0461 143.558 59.0465H156.814C157.372 59.0465 157.93 58.907 158.419 58.6628C158.907 58.907 159.453 59.0465 160.023 59.0465H174.186C175.302 59.0465 176.349 58.5233 177.012 57.6395C177.43 57.0814 177.64 56.4302 177.686 55.7558C180.849 58.3837 185.581 59.6977 191.872 59.6977C204.337 59.6977 210.651 54.3954 210.651 43.9419V29.5814L211.64 26.1628C211.793 25.6366 211.821 25.0819 211.722 24.5428C211.624 24.0038 211.401 23.4951 211.071 23.0572C210.741 22.6193 210.314 22.2643 209.824 22.0202C209.333 21.7761 208.792 21.6498 208.244 21.6512H208.221ZM325.628 21C319.674 21 315.128 22.314 311.907 24.9419C311.86 24.2674 311.64 23.6047 311.233 23.0581C310.902 22.6214 310.475 22.2671 309.985 22.023C309.495 21.7789 308.955 21.6516 308.407 21.6512H295.151C294.349 21.6512 293.581 21.9186 292.965 22.407C292.349 21.9302 291.581 21.6512 290.779 21.6512H277.791C276.674 21.6512 275.628 22.1744 274.965 23.0581C274.547 23.6047 274.337 24.2558 274.291 24.9302C270.558 21.8605 265.256 21 260.465 21C253.954 21 249.174 22.5233 246.116 25.5233V25.186C246.116 24.2477 245.743 23.3477 245.081 22.6831C244.419 22.0184 243.52 21.6432 242.581 21.6395C242.395 21.6395 242.198 21.6512 242.012 21.686L239.302 22.1279C238.36 22.0116 237.419 21.8721 236.5 21.7326C234.314 21.4186 232.058 21.0814 229.686 20.9884C229.291 20.9767 228.942 20.9767 228.593 20.9767C223.907 20.9767 220.186 21.9651 217.547 23.9302C214.674 26.0581 213.151 29.2209 213.151 33.0581C213.151 35.4535 213.721 37.4419 214.64 39.1047C214.171 39.4397 213.791 39.8835 213.531 40.398C213.272 40.9124 213.142 41.4821 213.151 42.0581L213.407 55.5698C213.427 56.4965 213.81 57.3783 214.473 58.0261C215.136 58.6739 216.027 59.036 216.954 59.0349C217.198 59.0349 217.442 59.0116 217.674 58.9651L219.977 58.4884C224.419 59.0814 228.221 59.4768 232.151 59.4768C235.302 59.4768 238.721 58.9651 241.5 57.3372C241.558 57.4302 241.605 57.5349 241.674 57.6279C242.005 58.0647 242.432 58.419 242.922 58.6631C243.412 58.9072 243.952 59.0344 244.5 59.0349H259.744C260.012 59.0349 260.267 59 260.523 58.9535C260.779 59.0116 261.035 59.0349 261.302 59.0349H276.767C276.942 59.0349 277.116 59 277.291 58.9768C277.465 59 277.64 59.0349 277.814 59.0349H291.07C291.628 59.0349 292.186 58.8954 292.674 58.6512C293.163 58.8954 293.709 59.0349 294.279 59.0349H308.442C309.558 59.0349 310.605 58.5116 311.267 57.6279C311.686 57.0698 311.895 56.4186 311.942 55.7442C315.151 58.3721 319.709 59.6861 325.663 59.6861C339.279 59.6861 345.616 53.5349 345.616 40.3372C345.616 27.1395 339.279 20.9884 325.663 20.9884L325.628 21Z" fill="#121C57"/>
<path d="M125.872 24.5349C137.523 24.5349 142.291 29.0349 142.291 40.3372C142.291 51.6395 137.523 56.1512 125.872 56.1512C114.221 56.1512 109.895 51.2093 109.895 40.3372C109.895 29.4651 114.663 24.5349 125.872 24.5349ZM126.046 45.1512C127.174 45.1512 127.907 43.5465 127.907 40.1279C127.907 36.7093 127.174 35.1047 126.046 35.1047C125.012 35.1047 124.267 36.7093 124.267 40.1279C124.267 43.5465 125 45.1512 126.046 45.1512ZM143.535 55.5116L144.663 51.6163V29.093L143.535 25.1977H156.523L161.5 35.593H161.581V29.093L160.884 25.1977H174.14L173.012 29.093V51.6163L174.14 55.5116H159.977L156.163 45.5465H156.081V51.6047L156.779 55.5H143.523L143.535 55.5116ZM190.977 25.1861L190.279 29.0814V39.3837C190.279 42.8488 190.5 44.6628 191.756 44.6628C193.012 44.6628 193.233 42.8488 193.233 39.3837V29.0814L192.535 25.1861H208.209L207.081 29.0814V43.9419C207.081 52.2558 202.616 56.1512 191.837 56.1512C181.058 56.1512 176.419 52.2558 176.419 43.9419V29.0814L175.291 25.1861H190.977ZM216.663 33.0698C216.663 27.4884 220.907 24.2791 229.523 24.5349C232.86 24.6628 236.023 25.314 239.36 25.7093L242.57 25.1861V36.1861L232.477 32.5465C232.119 32.4009 231.736 32.3258 231.349 32.3256C230.698 32.3256 230.349 32.6744 230.349 33.1512C230.349 35.7907 243.558 35.5814 243.558 45.9767C243.558 52.6512 240.221 55.9419 232.128 55.9419C228.012 55.9419 223.942 55.4651 219.826 54.907L216.919 55.5116L216.663 42L225.802 45.8488C227.279 46.4535 228.36 47.0581 229.57 47.0581C230.267 47.0581 230.477 46.5814 230.477 46.1047C230.477 43.6395 216.663 43.0349 216.663 33.0698ZM245.593 51.6047V36.7907C245.593 28.4767 249.919 24.5349 260.454 24.5349C270.988 24.5349 275.616 28.4767 275.616 36.7907V51.6047L276.744 55.5H261.279L261.977 51.6047V49.314H259.035V51.6047L259.733 55.5H244.488L245.616 51.6047H245.593ZM261.965 45.6279V40C261.965 37.8372 261.744 36.0116 260.488 36.0116C259.233 36.0116 259.012 37.8256 259.012 40V45.6279H261.965ZM277.779 55.5116L278.907 51.6163V29.093L277.779 25.1977H290.767L295.744 35.593H295.826V29.093L295.128 25.1977H308.384L307.256 29.093V51.6163L308.384 55.5116H294.221L290.407 45.5465H290.314V51.6047L291.012 55.5H277.756L277.779 55.5116ZM325.628 24.5349C337.279 24.5349 342.047 29.0349 342.047 40.3372C342.047 51.6395 337.279 56.1512 325.628 56.1512C313.977 56.1512 309.651 51.2093 309.651 40.3372C309.651 29.4651 314.419 24.5349 325.628 24.5349ZM325.802 45.1512C326.93 45.1512 327.663 43.5465 327.663 40.1279C327.663 36.7093 326.93 35.1047 325.802 35.1047C324.767 35.1047 324.023 36.7093 324.023 40.1279C324.023 43.5465 324.756 45.1512 325.802 45.1512Z" fill="#F7752A"/>
<path d="M70.5464 99.2911C65.2092 99.2911 61.0464 97.2678 56.6278 92.512C52.2208 87.7678 49.0929 80.4771 47.0231 75.6631C46.5696 74.5934 46.1394 73.5934 45.7906 72.8608C45.6976 72.6631 45.6278 72.4538 45.5696 72.2445C45.465 72.1399 45.3836 72.0352 45.2906 71.9306C42.0696 67.7213 40.9882 63.5818 41.9999 59.2678C42.3022 57.9655 42.8487 56.7678 43.3255 55.7097C43.5231 55.2678 43.965 54.3027 44.058 53.919C43.9545 53.5629 43.8921 53.1962 43.872 52.8259C43.8178 52.6513 43.7789 52.4724 43.7557 52.2911C43.7557 52.2445 43.7557 52.198 43.7441 52.1631H42.9766C41.6975 52.1631 40.4301 52.0818 39.2092 51.9306C37.9999 52.9655 36.4301 55.5469 35.3371 58.2794C34.1278 61.3376 29.1627 68.1515 22.6743 70.7562C20.9999 71.4306 19.1278 71.7678 17.1162 71.7678C11.7789 71.7678 6.76732 69.3724 5.17429 68.2213C-0.558266 64.0817 -0.383847 58.3841 0.406851 53.8841C0.488246 53.4422 0.558014 52.9422 0.651037 52.3957C0.96499 50.3725 1.40685 47.605 2.18592 45.2794C3.74406 40.6399 6.25569 39.6631 8.08127 39.6631C8.3022 39.6631 8.53476 39.6748 8.75569 39.7097L9.03476 39.7445C9.13941 39.6631 9.24406 39.5934 9.34871 39.5352C10.8952 38.6283 12.3255 38.1631 13.6045 38.1631C14.8836 38.1631 16.4185 38.2562 17.965 38.4073H18.058C18.3952 38.1515 18.7673 37.9655 19.1743 37.8492C21.651 37.1748 23.6045 36.8259 24.9766 36.8259H25.0231C25.0929 36.7794 25.151 36.7329 25.2208 36.6864C26.8255 35.698 28.4534 35.1631 29.9301 35.1631C31.4069 35.1631 32.5231 35.6399 33.3487 36.5585C35.151 34.9538 37.8022 33.419 41.2441 31.9887C41.4417 28.8143 41.8022 25.5585 42.9185 23.105C43.4069 22.0236 43.3836 20.419 43.3603 18.5701C43.2906 14.419 43.1976 8.13989 50.7092 4.27943C54.1394 2.51199 58.6743 2.15152 61.8836 2.15152C62.6045 2.15152 63.3371 2.17478 64.058 2.20966C64.4185 2.23292 64.7673 2.30268 65.0929 2.44222C67.2441 1.60501 69.4534 1.03524 71.651 0.744545C75.4301 0.256173 79.3022 -0.0112686 82.872 -0.0112686C83.5813 -0.0112686 84.2906 -0.0112686 84.965 0.0236151C91.2673 0.22129 92.2441 1.12827 92.8255 1.67478C93.0115 1.8492 93.1743 2.03524 93.3138 2.24455C93.5348 2.57013 93.8371 3.02362 98.1045 12.9887C98.5464 12.9887 99.0348 12.9771 99.5464 12.9771C100.593 12.9771 101.488 13.0004 102.198 13.0469C104.163 13.1748 106.349 13.5352 107.721 15.1748C109.139 16.8725 108.895 19.0701 108.756 20.2562C108.395 23.4887 108.105 26.0934 106.5 27.9771C107.023 28.7562 107.407 29.5469 107.767 30.2562C108.628 31.9887 109.058 32.6864 110.116 33.0818C110.879 33.3714 111.505 33.938 111.869 34.6685C112.234 35.399 112.309 36.2398 112.081 37.0236C112.93 38.6166 113.116 40.3608 113.267 41.6631C113.384 42.7213 113.512 43.9073 113.907 44.2678C114.767 45.0585 115.151 46.2445 114.884 47.3841C114.825 47.6515 114.732 47.8957 114.605 48.1283C114.918 49.6515 114.663 51.1631 114.453 52.3841C114.279 53.419 114.139 54.4887 114.349 54.6515C115.337 55.4073 115.814 56.6864 115.546 57.9073C115.413 58.5074 115.112 59.057 114.677 59.4916C114.243 59.9262 113.693 60.2278 113.093 60.3608C112.593 60.4771 112.128 60.5469 111.686 60.5817C112.337 67.2213 111.581 73.4306 109.558 77.698C105.93 85.3841 91.558 93.7213 82.5697 96.7911C77.5348 98.512 73.8371 99.2794 70.5696 99.2794L70.5464 99.2911Z" fill="#121C57"/>
<path d="M34.6395 48.6395C33.4418 48.6395 32.4883 48.0581 31.779 47.3372C31.8721 48.6047 31.779 49.9186 31.3139 51.1163C29.9883 54.5465 28.186 56.6744 27.3837 57.0349C27.2093 57.1163 26.9418 57.1628 26.6395 57.1628C26.2093 57.1628 25.6976 57.0698 25.2209 56.8837C25.8604 58.5 26.5465 60.9186 26.279 63.3256C26.2558 63.5698 26.0465 63.7442 25.8023 63.7442H25.7441C25.4883 63.7093 25.2907 63.4768 25.3255 63.2209C25.6279 60.4768 24.5232 57.6163 23.8953 56.2442C23.6511 56.7326 23.4069 57.2209 23.1976 57.7209C22.8023 58.6395 21.6511 59.093 20.6046 59.093C20.3837 59.093 20.1628 59.0698 19.9651 59.0349C18.9883 58.8372 18.3255 58.2442 18.1046 57.3954C17.6976 57.4535 17.2558 57.4186 16.8255 57.2791L12.4418 65.0233C12.3784 65.1324 12.2751 65.2128 12.1537 65.2475C12.0323 65.2822 11.9022 65.2685 11.7907 65.2093C11.7353 65.1792 11.6866 65.1381 11.6476 65.0885C11.6086 65.039 11.5801 64.982 11.5638 64.9211C11.5475 64.8602 11.5437 64.7967 11.5527 64.7343C11.5617 64.6719 11.5833 64.6119 11.6162 64.5581L15.9767 56.8605C14.9069 56.1628 14.0116 54.8372 13.3023 52.9186C12.1628 53.3256 10.7441 54.2907 10.7325 54.3023C10.6542 54.357 10.5606 54.3854 10.4651 54.3837C10.3139 54.3837 10.1628 54.314 10.0697 54.1744C10.0339 54.1227 10.0088 54.0644 9.99584 54.0029C9.98288 53.9414 9.98234 53.8779 9.99425 53.8161C10.0062 53.7544 10.0303 53.6956 10.0652 53.6434C10.1001 53.5911 10.1452 53.5463 10.1976 53.5116C10.2674 53.4651 11.7093 52.4884 12.9651 52.0349C12.8953 51.8954 12.8255 51.7558 12.7441 51.6163C12.0116 51.8488 11.2674 51.9302 10.5581 51.9302C8.1395 51.9302 6.0581 50.907 5.94182 50.8488C5.70927 50.7326 5.61624 50.4419 5.73252 50.2093C5.8488 49.9768 6.1395 49.8837 6.37206 50C6.40694 50.0116 9.40694 51.5 12.186 50.7907C12.1279 50.7209 12.0814 50.6512 12.0232 50.5814C11.8953 50.407 11.7558 50.2326 11.6279 50.0581C9.52322 49.907 7.23252 47.4186 7.12787 47.314C7.04306 47.2199 6.99909 47.096 7.00564 46.9695C7.01218 46.843 7.06869 46.7244 7.16275 46.6395C7.25681 46.5547 7.38071 46.5108 7.50719 46.5173C7.63367 46.5239 7.75236 46.5804 7.83717 46.6744C8.3488 47.2326 9.70927 48.4884 10.9651 48.9535C10.8023 48.6047 10.6744 48.2209 10.5814 47.7675C10.5348 47.5116 10.7093 47.2674 10.9651 47.2093C11.2209 47.1628 11.4767 47.3372 11.5232 47.593C11.7093 48.6163 12.2325 49.2907 12.779 50C12.9767 50.2558 13.1744 50.5116 13.3488 50.7791C13.6162 51.1861 13.8721 51.6279 14.0581 52.1744C15 54.9419 16.1395 55.9419 16.9186 56.2907C17.6162 56.6047 18.1395 56.4419 18.3255 56.3605C18.8139 56.1512 18.8139 54.7209 18.8023 53.5814C18.8023 53.093 18.8023 52.593 18.8255 52.1163C18.9186 50.3488 17.5232 46.7674 16.7674 45.2442C16.1976 44.1047 12.4069 43.4535 9.62787 43.0698H9.60461C9.15113 43.0116 8.73252 42.9535 8.3488 42.907C5.47671 42.5349 4.44182 49.0233 3.83717 52.8954C3.74415 53.4535 3.66275 53.9768 3.58136 54.4302C2.88368 58.4186 2.82554 62.5465 7.06973 65.6395C9.1395 67.1395 16.2209 69.8954 21.4767 67.7907C26.9883 65.5814 31.3372 59.6512 32.3488 57.1163C33.4418 54.3721 35.3023 50.9419 37.3139 49.3372C36.0465 49.0465 35.2558 48.7442 34.9651 48.6279C34.8604 48.6279 34.7441 48.6395 34.6395 48.6395Z" fill="white"/>
<path d="M98.7558 22.814C98.3372 21.8372 97.8953 20.7907 97.4419 19.7209C96.8953 20.0349 95.8605 20.593 94.186 21.3605C94.6279 22.0465 95.4418 23.3605 95.9535 24.6744C97.0116 23.9767 97.9535 23.3488 98.7558 22.8023" fill="#121C57"/>
<path d="M71.8256 39.7558C73.9767 38.6279 76.9302 36.8837 80.1395 34.8837C66.1977 39.7442 57.093 41.0116 51.3953 41.0116C47.0349 41.0116 44.686 40.2675 43.686 39.8488C43.5 40.4651 43.2558 40.9419 42.9186 41.2442C42.829 41.3246 42.7134 41.3701 42.593 41.3721C42.4651 41.3721 42.3372 41.3256 42.2442 41.2209C42.1605 41.1271 42.1163 41.0047 42.1206 40.8791C42.1249 40.7535 42.1775 40.6343 42.2674 40.5465C43.0116 39.8605 43.2093 37.2907 43.3605 34.6279C36.4302 37.3605 34.6395 39.7093 34.2325 40.4302C34.5814 40.814 34.9186 41.2791 35.2442 41.8372C35.3953 42.1047 35.686 42.4651 35.9884 42.8605C36.9302 44.0581 38.093 45.5581 37.7209 46.8721C37.5698 47.407 37.1744 47.8372 36.5581 48.1512C39.6977 49.0116 48.2674 50.3488 61.3372 44.6861C65.2093 43.0116 68.6628 41.3372 71.8139 39.7442" fill="#F7752A"/>
<path d="M67.1628 51.6628C66.8721 51.8372 66.3721 52.186 65.9418 52.593C66.4883 52.5232 67.1046 52.4535 67.5465 52.4535C67.7209 52.4535 67.9535 52.4884 68.2674 52.5232C68.6744 52.5814 69.2093 52.6512 69.7907 52.6744C69.458 52.3561 69.2446 51.9334 69.186 51.4767C68.4651 51.5 67.7907 51.5698 67.1628 51.6628ZM72.9651 52.1744C73.3372 52.0116 73.6976 51.8023 74.0349 51.5349H73.1744C73.1395 51.7674 73.0697 51.9884 72.9651 52.186M65.3256 72.3721C67.0116 71.8372 68.186 70.9535 69.2209 70.186C69.4418 70.0116 69.6744 69.8488 69.8953 69.686C68.5 69.8953 66.7558 70.3023 64.5581 70.907C64.3604 70.9651 64.1628 71.0116 63.9651 71.0581L64.3488 72.6279C64.6628 72.5698 64.9883 72.4884 65.3256 72.3721ZM17.6162 44.8256C18.3372 46.2674 19.8837 50.1163 19.779 52.1744C19.7558 52.6279 19.7558 53.1163 19.7558 53.5814C19.7558 55.0465 19.7674 56.4419 19.0232 57.0465C19.1395 57.7558 19.6976 58.0232 20.1744 58.1163C21.0697 58.2907 22.1046 57.9302 22.3488 57.3488C22.6395 56.686 22.9535 56.0581 23.2674 55.4418C24.0116 53.9767 24.779 52.4535 25.2209 50.3256C25.9651 46.7442 23.5697 43.3953 23.2907 43.0232C22.8023 42.3605 20.2907 41.8837 17.7674 41.6163C17.7209 41.6163 17.686 41.6163 17.6511 41.6046C16.1628 41.4535 14.6744 41.3721 13.6162 41.3721C12.7558 41.3721 11.7325 41.8605 10.9883 42.3023C14.2674 42.8139 16.9535 43.4884 17.6162 44.8139" fill="white"/>
<path d="M74.3837 27.6744C89.5581 22.8721 95.6511 19.6395 97.0697 18.8256C96.6744 17.8953 96.279 16.9535 95.8721 16.0116C95.8721 16.0116 95.8721 15.9884 95.8604 15.9767C93.3604 10.1163 90.9186 4.47674 90.6162 4.03488C89.9069 3.37209 82.1511 2.62791 72.0697 3.94186C65.5232 4.80233 60.7442 8.15116 56.9069 10.8488C54.8604 12.2907 53.0814 13.5349 51.5116 14.0233C51.4521 14.0427 51.3892 14.05 51.3268 14.0447C51.2645 14.0393 51.2038 14.0215 51.1484 13.9922C51.0931 13.9629 51.0442 13.9227 51.0047 13.8741C50.9652 13.8255 50.9359 13.7695 50.9186 13.7093C50.8372 13.4535 50.9767 13.1977 51.2325 13.1163C52.6628 12.6744 54.3837 11.4651 56.3604 10.0698C58.5232 8.54651 60.9767 6.82558 63.8837 5.44186C61.1046 5.30233 55.7558 5.32558 52.1744 7.16279C46.4535 10.1047 46.5232 14.3837 46.5814 18.5349C46.6163 20.686 46.6511 22.7209 45.8604 24.4651C44.9302 26.5116 44.6395 29.5233 44.4651 32.4186C46.9186 32.5116 58.7558 32.6279 74.3953 27.6744" fill="#F7752A"/>
<path d="M83.9302 32.5C85.9418 31.2209 87.9767 29.907 89.907 28.6512C89.4186 27.1279 88.279 24.8953 87.8256 24.0233C84.4884 25.314 80.1744 26.8488 74.6744 28.593C61.0814 32.8953 50.3023 33.407 45.9767 33.407C45.279 33.407 44.7558 33.3953 44.4069 33.3837C44.4069 33.5698 44.3837 33.7674 44.3721 33.9535C44.2674 35.8837 44.1628 37.593 43.9186 38.9186C45.6744 39.6977 55.8721 43.0349 83.9302 32.5233" fill="#121C57"/>
<path d="M30.4418 41.7326C30.4651 41.8256 30.5349 42.0233 30.6163 42.2558C30.8256 42.8721 31.186 43.9186 31.4535 45.1395C31.5465 45.3605 32.8953 48.5116 35.7558 47.4767C36.3604 47.2558 36.7093 46.9651 36.8139 46.6163C37.0581 45.7674 36.0116 44.4302 35.2442 43.4419C34.8953 43 34.6046 42.6163 34.4186 42.3023C33.6977 41.0233 32.8372 40.3605 32.0814 39.7674C31.6628 39.4419 31.2674 39.1279 30.9651 38.7674C30.5116 38.2093 28.8256 38.2674 26.9186 39.4535C28.6163 39.9302 30.2093 40.8023 30.4418 41.7326Z" fill="white"/>
<path d="M24.0465 42.4651C25.407 44.2907 26.7674 47.4884 26.1395 50.5232C25.7674 52.3256 25.186 53.6977 24.5698 54.9535C24.6512 55.3256 24.8721 55.6395 25.2674 55.8605C25.9651 56.2558 26.8256 56.2558 27 56.1744C27.3605 56.0116 29.0581 54.3139 30.4302 50.7791C31.5465 47.8953 30.2209 44.0232 29.7209 42.5698C29.6279 42.2907 29.5581 42.093 29.5233 41.9651C29.4186 41.5232 27.7558 40.4651 25.5 40.1163C24.3256 39.9302 21.9186 40.4651 20.0233 40.9884C23.3372 41.5232 23.8605 42.2325 24.0465 42.4767M63.3953 72.7558L63.0233 71.2558C61.7907 71.4884 60.6628 71.5814 59.6977 71.593C60.3372 72.1744 61.5116 72.8837 63.3837 72.7558M47.7209 50.8023C48.1047 50.3488 48.5349 49.8721 49.0698 49.4186C48.2907 49.5465 47.5465 49.6512 46.8256 49.7209C46.8256 50.2209 46.8605 51.0814 46.9651 51.9186C47.1977 51.5 47.4302 51.1512 47.7209 50.8023Z" fill="white"/>
<path d="M88.7209 23.6744C89.1977 24.5814 90.2093 26.5814 90.7442 28.1163C92.314 27.093 93.8023 26.1047 95.1512 25.2093C94.6396 23.8372 93.7326 22.3837 93.314 21.7558C92.0814 22.3023 90.5698 22.9419 88.7326 23.6744" fill="#F7752A"/>
<path d="M101.581 20.907C102.256 20.4651 104.058 19.0233 103.523 18.1279C103.459 18.0198 103.44 17.8908 103.471 17.7688C103.501 17.6469 103.579 17.5419 103.686 17.4767C103.794 17.4126 103.923 17.3936 104.045 17.4241C104.167 17.4546 104.272 17.532 104.337 17.6395C105.43 19.4651 102.453 21.4767 102.105 21.6977C102.035 21.7442 99.5465 23.4302 95.9535 25.814H95.9419C94.3837 26.8488 92.6279 28 90.7674 29.2209C90.7558 29.2326 90.7326 29.2442 90.7093 29.2558C88.7326 30.5465 86.6512 31.8837 84.593 33.1977C89.0465 31.0349 93.407 29.2442 98.3256 28.1047C99.8721 27.7442 101.047 27.4767 101.953 27.1512C102.013 27.1043 102.087 27.0796 102.163 27.0814C104.651 26.1512 105 24.7791 105.535 19.907C105.674 18.6279 105.674 17.7791 105.233 17.2558C104.767 16.7093 103.733 16.3953 101.965 16.2791C100.384 16.1744 98.1279 16.2209 97 16.2558C98.1279 18.8953 99.1046 21.186 99.5581 22.2674C100.802 21.4419 101.547 20.9302 101.581 20.907Z" fill="#F7752A"/>
<path d="M53.907 54.1395C53.4884 53.814 53.2209 53.3372 53.1512 52.7907C52.0814 52.8721 51.0698 53.1628 50.1628 53.4419C50.6163 53.9186 51.686 54.6047 53.907 54.1395Z" fill="white"/>
<path d="M111.244 51.8605C111.535 50.1047 111.814 48.4535 110.581 47.3372C110.539 47.2966 110.504 47.2495 110.477 47.1977V47.1861C110.453 47.1351 110.441 47.0795 110.442 47.0233V47.0116C110.442 46.9535 110.442 46.8954 110.465 46.8488V46.8372C110.477 46.8023 110.488 46.7674 110.512 46.7442C110.523 46.7209 110.535 46.7093 110.558 46.6861C110.593 46.6395 110.639 46.6047 110.698 46.5814H110.709C110.76 46.5576 110.816 46.5457 110.872 46.5465H110.884C110.942 46.5465 111 46.5465 111.046 46.5698H111.058C111.093 46.5814 111.128 46.593 111.151 46.6163C111.337 46.7326 111.523 46.7326 111.698 46.6861C110.407 45.5116 110.209 43.7558 110.023 42.0465C109.779 39.8488 109.558 37.7791 107.151 36.7674C107.037 36.7181 106.946 36.6262 106.898 36.5112C106.851 36.3961 106.849 36.267 106.895 36.1512C106.918 36.0933 106.953 36.0407 106.996 35.9963C107.04 35.952 107.092 35.9168 107.149 35.893C107.207 35.8691 107.269 35.8571 107.331 35.8575C107.393 35.8579 107.454 35.8708 107.512 35.8954C107.512 35.8954 108.244 36.1861 108.953 36.1512C106.616 35.2791 105.721 33.4884 104.86 31.7442C104.163 30.3488 103.512 29.0349 102.128 28.1047C101.186 28.4302 100.012 28.7326 98.5348 29.0698C91.1744 30.7791 85.0232 33.9884 77.8953 37.7093C77.2441 38.0465 76.5814 38.3954 75.8953 38.7442C76.1976 38.8837 76.5116 39.0581 76.8604 39.2558C78.1162 39.9651 80.0116 41.0465 83.4883 41.4884C90.6744 42.407 91.8488 45.3837 91.8953 45.5116C91.9175 45.5696 91.9278 45.6314 91.9258 45.6934C91.9237 45.7555 91.9092 45.8164 91.8832 45.8728C91.8572 45.9291 91.8202 45.9797 91.7743 46.0215C91.7285 46.0633 91.6747 46.0956 91.6162 46.1163C91.5581 46.1395 91.5116 46.1512 91.4535 46.1512C91.2558 46.1512 91.0814 46.0349 91.0116 45.8372C91.0116 45.814 89.9069 43.2674 83.3837 42.4302C79.7209 41.9651 77.7209 40.8372 76.4069 40.0814C75.5232 39.5814 75.0697 39.3488 74.6279 39.407C73.8604 39.8023 73.0697 40.2093 72.2558 40.6163C72.2558 40.6163 72.2325 40.6163 72.2209 40.6279C69.0697 42.2209 65.6046 43.8954 61.7325 45.5814C58.8255 46.8372 56.1395 47.7674 53.686 48.4302C53.7907 48.4535 53.9069 48.4884 54.0116 48.5233C54.5116 48.6744 54.8023 49.2093 54.6395 49.7209C54.5116 50.1395 54.1162 50.407 53.6976 50.3954H53.6279C53.0116 50.3721 52.4302 50.3605 51.9186 50.4419C51.4069 50.5233 50.9535 50.6977 50.4651 50.9884C49.9767 51.2791 49.4651 51.6977 48.8837 52.1163C48.3837 52.4535 47.779 52.7442 47.093 52.8023C47.1279 52.9651 47.1628 53.1163 47.2093 53.2558C47.2093 53.2791 47.2093 53.3023 47.2209 53.3256C47.3023 53.1744 47.4535 53.0698 47.6395 53.0698C48.1976 53.0698 48.9069 52.8488 49.7325 52.593C50.779 52.2674 51.9651 51.907 53.279 51.8488C54.6628 51.7791 55.9302 52.0581 57.1395 52.7093C56.6395 51.7791 55.8023 51.3256 55.7441 51.2907C55.6887 51.2622 55.6396 51.2229 55.5995 51.1751C55.5595 51.1273 55.5294 51.072 55.511 51.0125C55.4926 50.9529 55.4862 50.8903 55.4923 50.8282C55.4984 50.7662 55.5168 50.706 55.5465 50.6512C55.6744 50.4186 55.9535 50.3256 56.186 50.4535C57 50.8837 58.2209 52 58.4186 53.686C58.4186 53.7326 58.4302 53.7791 58.4302 53.8256C58.4767 54.3721 58.4186 54.9767 58.1976 55.6279C56.9069 59.5 56.3488 62.3023 56.5814 63.7093C56.6279 63.9651 56.4535 64.2093 56.186 64.2558H56.1046C55.9924 64.2571 55.8836 64.2178 55.7981 64.1451C55.7127 64.0725 55.6563 63.9714 55.6395 63.8605C55.6046 63.686 55.593 63.4884 55.5814 63.2907C55.3255 63.6744 55.1628 64.186 55.3721 64.8256C55.5814 65.4651 56.3372 65.5581 57.5348 65.6628C58.5581 65.7442 59.7093 65.8372 60.5697 66.5465C60.7674 66.7093 60.8023 67.0116 60.6395 67.2093C60.5465 67.3256 60.4069 67.3837 60.2674 67.3837C60.1628 67.3837 60.0581 67.3488 59.9651 67.2791C59.3372 66.7674 58.3837 66.686 57.4535 66.6163C56.9535 66.5698 56.4186 66.5349 55.9418 66.3953C55.9069 66.6628 55.8604 67 55.779 67.3605C56.0697 67.2907 56.3721 67.2674 56.6744 67.2907C57.0349 67.3256 57.3721 67.3953 57.7442 67.6047L57.8139 67.6395C58.0465 67.7674 58.1279 68.0581 58 68.2907C57.9651 68.3488 57.9186 68.407 57.8721 68.4419C57.4186 68.7791 56.9418 69.0233 56.5348 69.2907C56.1162 69.5581 55.7209 69.7907 55.4069 70.0698C55.093 70.3605 54.8604 70.6977 54.7093 71.1395C54.5581 71.5814 54.5232 72.1279 54.5 72.7326C54.5 72.8023 54.4418 72.8605 54.3721 72.8605C54.3488 72.8605 54.3255 72.8605 54.3023 72.8372H54.279C53.9883 72.6163 53.7442 72.3605 53.5581 72.0581C53.3488 71.7558 53.2325 71.3953 53.1744 71.0116C53.0465 70.2326 53.3023 69.3256 53.8023 68.686C54.0465 68.3605 54.3372 68.0814 54.6511 67.8605C54.9302 67.1047 55 66.3256 55.0232 65.9535C54.779 65.7558 54.5814 65.4884 54.4651 65.1279C53.9535 63.5814 54.9186 62.407 55.6395 61.8837C55.8255 60.2558 56.3721 58.0581 57.279 55.3256C57.4302 54.8605 57.4883 54.4302 57.4767 54.0465C57.4186 54 57.3604 53.9651 57.3023 53.9186C57.1279 54 56.9418 54.093 56.7674 54.1744C56.1395 54.4535 55.5348 54.686 54.9651 54.8605H54.9418C53.9883 55.1512 53.1744 55.2558 52.4883 55.2558C50.4651 55.2558 49.5232 54.2674 49.1744 53.7442C48.6162 53.8954 48.1046 54.0116 47.6395 54.0116C47.574 54.0124 47.509 53.9994 47.4489 53.9733C47.3888 53.9473 47.3349 53.9088 47.2907 53.8605C47.2907 54.7791 46.8139 55.8605 46.2558 57.0698C45.8139 58.0349 45.3604 59.0349 45.1279 60.0349C44.6279 62.1512 44.3721 65.4767 47.8372 69.9884C48.0697 70.186 49.4651 71.2674 50.7558 70.3372C50.9651 70.186 51.2674 70.2326 51.4186 70.4419C51.5697 70.6512 51.5232 70.9535 51.3139 71.1047C50.7674 71.5 50.186 71.6512 49.6395 71.6512C49.3023 71.6512 48.9883 71.593 48.686 71.5C49.0465 72.2674 49.4651 73.2442 49.9651 74.3953C51.9418 79.0116 54.9418 86 58.9767 90.3256C65 96.8023 70.2558 97.6046 81.4883 93.7674C91.0116 90.5116 103.674 82.5581 106.605 76.3488C109.209 70.8256 108.93 62.5814 107.895 57.1279C107.593 56.8372 107.326 56.5349 107.058 56.2209C106.372 55.4186 105.651 54.6047 104.395 54.1395C103.512 56.7209 102.163 58.7558 99.8139 59.1512C100 59.4535 100.139 59.6395 100.139 59.6395C100.291 59.8488 100.256 60.1512 100.035 60.3023C99.9847 60.3397 99.9277 60.3667 99.867 60.3818C99.8062 60.3968 99.7432 60.3995 99.6814 60.3897C99.6196 60.38 99.5604 60.358 99.5073 60.325C99.4542 60.292 99.4082 60.2487 99.3721 60.1977C99.279 60.0814 97.1976 57.2209 97.1976 54.4186C97.1976 52.6628 98.1279 51.5349 98.8837 50.6279C99.3721 50.0465 99.779 49.5349 99.8837 48.9884C100.035 48.1395 99.9186 47.4535 99.5465 47.093C99.2441 46.7907 98.7441 46.7209 98.0697 46.8605H97.8837C97.8604 46.8605 97.8488 46.8605 97.8255 46.8488H97.7907C97.7674 46.8488 97.7558 46.8372 97.7441 46.8256C97.7441 46.8256 97.7209 46.8256 97.7093 46.814C97.6976 46.814 97.686 46.7907 97.6744 46.7791C97.6744 46.7791 97.6511 46.7674 97.6395 46.7558C97.6395 46.7558 97.6162 46.7326 97.6162 46.7209C97.6162 46.7093 97.593 46.6977 97.5814 46.6861C97.5814 46.6744 97.5697 46.6628 97.5581 46.6512C97.5581 46.6395 97.5465 46.6279 97.5348 46.6047C97.5348 46.5814 97.5232 46.5698 97.5116 46.5465V46.407C97.5116 42.0814 99.9418 39.907 100.046 39.814C100.143 39.7404 100.264 39.7063 100.385 39.7187C100.506 39.731 100.618 39.7889 100.698 39.8806C100.778 39.9723 100.82 40.0909 100.815 40.2124C100.811 40.3339 100.761 40.4492 100.674 40.5349C100.674 40.5349 100.639 40.5581 100.605 40.6047C101.174 40.7907 102.012 41.2093 102.639 42.1163C103.605 43.5116 103.744 45.5465 103.046 48.1744C102.988 48.3837 102.802 48.5233 102.593 48.5233C102.558 48.5233 102.512 48.5233 102.465 48.5116C102.405 48.496 102.348 48.4684 102.298 48.4306C102.248 48.3928 102.206 48.3455 102.175 48.2914C102.144 48.2373 102.123 48.1776 102.115 48.1156C102.107 48.0535 102.111 47.9906 102.128 47.9302C102.756 45.593 102.663 43.8256 101.86 42.6628C101.198 41.6977 100.233 41.4651 99.9534 41.407C99.3604 42.2674 98.593 43.7674 98.4883 45.8721C99.372 45.814 99.9186 46.1279 100.233 46.4302C100.837 47.0233 101.058 47.9884 100.837 49.1744C100.698 49.9651 100.186 50.5814 99.6395 51.2442C98.9186 52.1163 98.1744 53.0233 98.1744 54.4302C98.1744 54.7791 98.2209 55.1395 98.2907 55.5C98.8953 55.3953 100.105 54.9884 100.674 53.3837C100.756 53.1395 101.035 53.0116 101.279 53.093C101.523 53.1744 101.651 53.4535 101.57 53.6977C100.93 55.5233 99.5348 56.2209 98.5348 56.4186C98.7558 57.1047 99.0465 57.7326 99.3255 58.2674C102.93 58 104.012 53.1047 104.965 47.2326C105.86 41.6977 104.267 39.8605 101.395 38.6861C100.384 38.2674 99.4534 38.2907 98.6162 38.7442C97.186 39.5116 96.0581 41.5814 95.5 44.4302C95.4534 44.686 95.1976 44.8605 94.9418 44.8023C94.8804 44.7908 94.8219 44.7671 94.7697 44.7327C94.7176 44.6982 94.6728 44.6537 94.6382 44.6017C94.6035 44.5497 94.5796 44.4912 94.5678 44.4298C94.5561 44.3685 94.5567 44.3053 94.5697 44.2442C95.186 41.0814 96.4534 38.8256 98.1627 37.907C99.2441 37.3256 100.477 37.2907 101.756 37.8023C105.558 39.3605 106.756 42.1279 105.907 47.3721C105.593 49.2791 105.256 51.3488 104.721 53.2326C106.221 53.7791 107.07 54.7442 107.814 55.6047C108.884 56.8372 109.744 57.8372 112.395 57.2442C110.605 55.8837 110.965 53.7674 111.279 51.8837M48.5232 55.5116C48.437 55.4259 48.3867 55.3106 48.3823 55.1891C48.378 55.0676 48.42 54.949 48.4998 54.8574C48.5797 54.7657 48.6914 54.7078 48.8123 54.6954C48.9333 54.683 49.0544 54.7171 49.1511 54.7907C49.2442 54.8721 51.3953 56.6744 54.9418 55.5814C55.1976 55.5 55.4535 55.6395 55.5348 55.8953C55.6162 56.1512 55.4767 56.407 55.2209 56.4884C54.3023 56.7674 53.4767 56.8837 52.7209 56.8837C50.1395 56.8837 48.6046 55.5814 48.5232 55.5116ZM87.279 44.6279C87.3488 44.3721 87.6162 44.2326 87.8604 44.3023C87.9534 44.3256 90.1279 44.9767 91.8372 47.4651C93.1628 49.3837 94.8604 49.4884 94.8837 49.4884C95.1511 49.4884 95.3488 49.7209 95.3372 49.9884C95.3372 50.2442 95.1162 50.4419 94.8604 50.4419H94.8372C94.7441 50.4419 92.6395 50.314 91.0465 48.0116C89.5232 45.8023 87.6162 45.2326 87.593 45.2326C87.5333 45.2159 87.4776 45.1877 87.4289 45.1494C87.3802 45.1111 87.3395 45.0636 87.3093 45.0096C87.279 44.9555 87.2597 44.8961 87.2525 44.8346C87.2454 44.773 87.2504 44.7107 87.2674 44.6512M95.4883 51.3488C95.5348 51.6047 95.3721 51.8605 95.1162 51.907C94.8372 51.9535 94.5697 51.9884 94.3139 51.9884C91.3604 51.9884 89.5 48.8605 89.4186 48.7093C89.356 48.5997 89.3392 48.4698 89.3719 48.3479C89.4045 48.2259 89.484 48.1218 89.593 48.0581C89.8139 47.9302 90.1046 48 90.2441 48.2326C90.2674 48.2674 92.1976 51.5 94.9418 50.9767C95.1976 50.9302 95.4534 51.093 95.5 51.3488M59.8372 48.6977C59.7558 48.1163 60.093 47.5581 60.6279 47.3605C62.186 46.7791 63.8721 46.6279 65.4651 46.7093C67.0697 46.7791 68.6046 47.1163 70.0814 47.4419C71.5697 47.7791 73 48.1512 74.4535 48.4302C75.9069 48.7209 77.3721 48.8954 78.8953 48.8954C78.9534 48.8954 78.9883 48.9419 78.9883 48.9884C78.9883 49.0349 78.9651 49.0698 78.9186 49.0814C77.4651 49.593 75.8837 49.7791 74.3372 49.8256C72.779 49.8605 71.2441 49.7558 69.7442 49.6395C68.2442 49.5233 66.779 49.4535 65.3721 49.4302C63.9535 49.4186 62.6046 49.5233 61.2441 49.7326H61.2209C60.5465 49.8372 59.9186 49.3721 59.8139 48.6977M74.6511 70.0698C74.4883 69.6046 74.2558 69.2093 73.9186 68.8954C73.593 68.5814 73.1976 68.3372 72.7558 68.1512C72.3488 68 71.8721 67.8837 71.3488 67.8256C70.3139 67.6861 69.186 67.7326 68.0697 67.7442C66.9418 67.7442 65.7907 67.7326 64.6162 67.5349H64.593C64.4429 67.5081 64.3092 67.4239 64.2202 67.3002C64.1312 67.1764 64.0939 67.0229 64.1162 66.8721C64.1511 66.686 64.2674 66.5349 64.4302 66.4535C65 66.1744 65.5814 65.9884 66.1628 65.8488C66.7558 65.7093 67.3488 65.6163 67.9535 65.5581C68.4418 65.5233 68.9418 65.5116 69.4535 65.5349C68.7209 64.9767 68.1046 64.3605 67.6511 63.8605C67.593 64.0465 67.5 64.2326 67.3488 64.3954C66.8837 64.8953 66.0348 65.0814 64.6744 65C62.5814 64.8721 61.779 65.6047 61.7674 65.6047C61.6778 65.6851 61.5622 65.7305 61.4418 65.7326C61.3791 65.7332 61.3169 65.7212 61.259 65.6972C61.201 65.6733 61.1485 65.6378 61.1046 65.593C61.0178 65.5045 60.9692 65.3856 60.9692 65.2616C60.9692 65.1377 61.0178 65.0187 61.1046 64.9302C61.2093 64.8256 62.2209 63.8954 64.7325 64.0465C66.0116 64.1279 66.4767 63.9302 66.6511 63.7442C66.7442 63.6512 66.8372 63.4767 66.7558 62.9535C66.5232 61.3488 65.4767 60.4884 63.6395 60.3953C63.3721 60.3837 63.1744 60.1628 63.186 59.8953C63.1874 59.8322 63.2017 59.77 63.2279 59.7125C63.2541 59.6551 63.2918 59.6036 63.3385 59.5611C63.3853 59.5187 63.4403 59.4862 63.5 59.4657C63.5597 59.4452 63.623 59.4371 63.686 59.4419C65.7674 59.5465 67.1279 60.5581 67.5814 62.2791C67.8604 62.6628 69.5116 64.814 71.6511 65.7558H71.6744C72.3023 65.8837 72.9767 66.093 73.6162 66.4419C74.2093 66.7907 74.7674 67.2558 75.186 67.8605C75.6046 68.4535 75.8372 69.1628 75.8953 69.8488C75.9418 70.5465 75.8372 71.2093 75.5116 71.8256C75.4186 72.0116 75.186 72.0814 75 71.9884C74.9316 71.9525 74.8759 71.8964 74.8405 71.8277C74.8051 71.7591 74.7918 71.6812 74.8023 71.6047V71.5581C74.8721 71.0698 74.8023 70.5233 74.6511 70.0698ZM71.1162 55.3372C69.4186 55.3372 68.093 54.8954 67.9883 54.8605C67.9293 54.8402 67.8748 54.8085 67.8281 54.767C67.7815 54.7256 67.7435 54.6752 67.7164 54.619C67.6894 54.5627 67.6738 54.5016 67.6706 54.4393C67.6673 54.3769 67.6765 54.3146 67.6976 54.2558C67.779 54.0116 68.0465 53.8721 68.3023 53.9651C68.3488 53.9767 72.8139 55.4651 75.5348 52.7442C75.6243 52.6548 75.7456 52.6045 75.8721 52.6045C75.9985 52.6045 76.1198 52.6548 76.2093 52.7442C76.2987 52.8336 76.3489 52.9549 76.3489 53.0814C76.3489 53.2079 76.2987 53.3292 76.2093 53.4186C74.6744 54.9535 72.7441 55.3488 71.1279 55.3488M75.4186 51.5233C73.1279 54.1395 69.6395 53.6628 68.1395 53.4651C67.8837 53.4302 67.6511 53.3953 67.5465 53.3953C66.7093 53.3953 64.9651 53.686 64.9535 53.686H64.8721C64.7937 53.6855 64.7168 53.6655 64.6481 53.6279C64.5794 53.5902 64.5211 53.5362 64.4785 53.4705C64.4359 53.4048 64.4102 53.3295 64.4038 53.2515C64.3974 53.1734 64.4105 53.095 64.4418 53.0233C64.5697 52.7326 64.7558 52.4651 64.9883 52.2093C64.8837 52.2558 64.8255 52.2907 64.8255 52.2907C64.7558 52.3372 64.6744 52.3488 64.593 52.3488C64.4302 52.3488 64.2674 52.2674 64.1744 52.1163C64.1118 52.0067 64.095 51.8768 64.1277 51.7548C64.1603 51.6329 64.2398 51.5288 64.3488 51.4651C64.3837 51.4419 65.1511 51 66.9418 50.7209C67.6744 50.6047 68.4767 50.5349 69.3255 50.5116C69.9186 50.4884 70.5232 50.4884 71.1279 50.5116C71.8488 50.5349 72.4767 50.5465 73.0465 50.5581C76.2907 50.6163 77.2558 50.4767 78.0232 50.3721C78.279 50.3372 78.5232 50.5116 78.5581 50.7791C78.593 51.0349 78.4186 51.2791 78.1511 51.314C77.5814 51.3954 76.9186 51.4884 75.4069 51.5233M59.1279 68.5698C59.2674 68.3488 59.5465 68.2674 59.779 68.407C59.8372 68.4419 61 69.0814 62.3372 67.8721C62.4312 67.7873 62.5551 67.7433 62.6816 67.7499C62.8081 67.7564 62.9268 67.8129 63.0116 67.907C63.0964 68.001 63.1404 68.1249 63.1338 68.2514C63.1273 68.3779 63.0708 68.4966 62.9767 68.5814C62.1279 69.3488 61.3023 69.5698 60.6628 69.5698C59.8721 69.5698 59.3372 69.2558 59.3023 69.2326C59.1948 69.1674 59.1174 69.0624 59.0869 68.9405C59.0564 68.8185 59.0753 68.6895 59.1395 68.5814M56.093 70.8023C56.1511 70.5465 56.3953 70.3837 56.6511 70.4302C56.686 70.4302 60.1628 71.1279 64.3023 69.9884C68.8604 68.7326 71.4535 68.3372 73.2674 68.6395C73.5232 68.686 73.6976 68.9302 73.6628 69.186C73.6162 69.4419 73.3721 69.6163 73.1162 69.5814C72.8394 69.5347 72.5597 69.5075 72.279 69.5C71.4302 69.7209 70.6744 70.2791 69.8023 70.9419C68.7093 71.7674 67.4651 72.686 65.6279 73.2791C65.093 73.4535 64.593 73.5581 64.1279 73.6279C64.093 73.6279 64.0465 73.6395 64.0116 73.6395C63.6628 73.686 63.3139 73.7209 63 73.7209C60.3023 73.7209 58.8953 72.1628 58.4651 71.5814C57.2907 71.5233 56.5581 71.3721 56.5 71.3605C56.3777 71.3338 56.2705 71.2608 56.2011 71.1566C56.1317 71.0525 56.1054 70.9254 56.1279 70.8023M62.9883 77.4884C62.5581 77.4884 62.1511 77.4419 61.7441 77.3488C58.8023 76.686 57.6511 73.8605 57.6046 73.7326C57.5588 73.6153 57.5612 73.4848 57.6113 73.3693C57.6614 73.2539 57.7552 73.1629 57.8721 73.1163C58.1162 73.0233 58.3953 73.1395 58.4883 73.3837C58.5 73.4186 59.5116 75.8721 61.9535 76.4186C64.3488 76.9535 67.3255 75.5698 70.779 72.3256C70.8728 72.2473 70.993 72.2079 71.1149 72.2155C71.2369 72.2231 71.3512 72.2771 71.4346 72.3664C71.5179 72.4557 71.5639 72.5736 71.5631 72.6957C71.5623 72.8179 71.5147 72.9351 71.4302 73.0233C68.2674 75.9884 65.4302 77.4884 62.9767 77.4884M67.2674 78.4419C67.1976 78.6977 66.9302 78.8372 66.686 78.7674C64.7907 78.2209 62.4186 79.186 62.3953 79.1977C62.3372 79.2209 62.279 79.2326 62.2093 79.2326C62.0232 79.2326 61.8488 79.1163 61.7674 78.9419C61.6628 78.6977 61.779 78.4186 62.0232 78.3256C62.1279 78.2791 64.7209 77.2326 66.9418 77.8605C67.1976 77.9302 67.3372 78.1977 67.2674 78.4419ZM75.4883 88.8372C72.8953 90.186 70.0116 90.8953 67.2325 90.8953C66.7209 90.8953 66.2209 90.8721 65.7093 90.8256C62.8837 90.5465 60.4418 89.1512 58.4535 86.6744C56.9069 84.7326 55.5116 82.4419 54.3372 79.8605C54.2325 79.6163 54.3372 79.3372 54.5697 79.2326C54.8139 79.1279 55.093 79.2326 55.1976 79.4651C56.3372 81.9767 57.686 84.1977 59.186 86.0814C61 88.3605 63.2209 89.6395 65.7907 89.8837C68.8372 90.1744 72.1279 89.5116 75.0348 88C79.1046 85.8953 79.9767 82.407 79.9883 82.3721C80.0465 82.1163 80.3023 81.9651 80.5581 82.0233C80.8139 82.0814 80.9651 82.3372 80.9069 82.593C80.8721 82.7558 79.9186 86.5465 75.4651 88.8488M81.5465 84.8837C81.5026 84.9285 81.4501 84.964 81.3921 84.9879C81.3342 85.0119 81.272 85.0239 81.2093 85.0233C81.1149 85.0233 81.0227 84.9954 80.9443 84.943C80.8659 84.8906 80.8047 84.8161 80.7686 84.729C80.7325 84.6418 80.7231 84.546 80.7415 84.4534C80.7599 84.3609 80.8053 84.276 80.8721 84.2093C80.9186 84.1628 81.9186 83.1047 81.9186 80.9767C81.9186 80.7093 82.1279 80.5 82.3953 80.5C82.6628 80.5 82.8721 80.7093 82.8721 80.9767C82.8721 83.5233 81.6046 84.8256 81.5465 84.8721M91.4418 60.407C88.3721 66.9651 83.5697 68.0581 80.7325 68.0581C79.3488 68.0581 78.4302 67.8023 78.4069 67.7907C78.3465 67.7733 78.2901 67.7442 78.241 67.7049C78.1919 67.6656 78.151 67.6171 78.1207 67.5619C78.0905 67.5068 78.0714 67.4463 78.0647 67.3837C78.0579 67.3212 78.0636 67.258 78.0814 67.1977C78.0987 67.1372 78.1279 67.0808 78.1671 67.0317C78.2064 66.9826 78.255 66.9417 78.3101 66.9115C78.3652 66.8812 78.4258 66.8622 78.4883 66.8554C78.5508 66.8486 78.6141 66.8543 78.6744 66.8721C78.9883 66.9651 86.3604 69 90.5814 60C90.6976 59.7674 90.9767 59.6628 91.2093 59.7674C91.4418 59.8837 91.5465 60.1628 91.4418 60.3953M95.3953 53.3488C94.8721 53.6395 94.3488 53.7442 93.8604 53.7442C92.6279 53.7442 91.6744 53.0581 91.6162 53.0233C91.5155 52.9485 91.4481 52.8372 91.4285 52.7132C91.4089 52.5893 91.4388 52.4626 91.5116 52.3605C91.6627 52.1512 91.9651 52.1047 92.1744 52.2558C92.2325 52.3023 93.593 53.2558 94.9302 52.5233C95.1628 52.3953 95.4535 52.4767 95.5697 52.7093C95.6976 52.9419 95.6162 53.2326 95.3837 53.3488M95.6976 45.7791C95.9535 45.7442 96.1976 45.9302 96.2325 46.1861C96.2674 46.4419 96.0814 46.686 95.8255 46.7209C95.6744 46.7442 95.5348 46.7558 95.3837 46.7558C93.593 46.7558 92.6162 45.1977 92.3372 44.314C92.2558 44.0581 92.3953 43.8023 92.6511 43.7209C92.9069 43.6395 93.1628 43.7791 93.2442 44.0349C93.2674 44.1163 93.9069 46.0233 95.6976 45.7907" fill="white"/>
</g>
</g>
<defs>
<clipPath id="clip0_129_921">
<rect width="350" height="100" fill="white"/>
</clipPath>
</defs>
</svg>
