<svg xmlns="http://www.w3.org/2000/svg" width="350" height="100" fill="none" viewBox="0 0 350 100"><g clip-path="url(#a)"><mask id="b" width="350" height="100" x="0" y="0" maskUnits="userSpaceOnUse" style="mask-type:luminance"><path fill="#fff" d="M0 0h350v99.29H0z"/></mask><g mask="url(#b)"><path fill="#121c57" d="M124.965 71.79h6.221c3.454 0 5.256 1.559 5.256 4.047 0 1.86-1.058 2.954-1.861 3.349 1.221.186 2.489 1.012 2.489 3.267 0 1.977-1.407 4.093-4.617 4.093h-7.488zm6.465 5.93c1.116 0 1.43-.592 1.43-1.29 0-.849-.546-1.267-1.662-1.267H128.5v2.546h2.93zm.233 5.466c1.011 0 1.837-.395 1.837-1.43 0-.884-.698-1.326-1.919-1.326H128.5v2.768h3.163zm11.802-11.395h3.291l5.593 14.755h-3.756l-.826-2.325h-5.395l-.86 2.325h-3.756zm-1.872-4h2.977v2.953h-2.977zm4.977 13.07-1.43-4.094-1.524 4.094zm-1.012-13.07h2.977v2.953h-2.977zm8.175 4h3.651l5.418 8.244V71.79h3.338v14.755h-3.221l-5.838-8.883v8.883h-3.337V71.792zm14.732 0h3.651l5.419 8.244V71.79h3.337v14.755h-3.221l-5.837-8.883v8.883h-3.337V71.792zm14.744 0h9.256v3.372h-5.709v2.36h5.604v3.372h-5.604v2.28h5.825v3.371h-9.36V71.792zm16.872 10.186h-1.837v4.581h-3.546V71.802h6.767c3.314 0 5.186 2.21 5.186 4.686 0 1.873-1.07 3.35-2.198 3.942.931.442 1.396 1.454 1.814 2.64l1.291 3.5h-3.674l-1.093-2.826c-.57-1.43-1.198-1.756-2.721-1.756zm1.268-3.396c1.07 0 1.732-.732 1.732-1.709 0-1.058-.779-1.71-1.732-1.71h-3.105v3.42zm7.663-6.79h3.546v14.755h-3.546zm5.848 0h6.768c3.314 0 5.186 2.15 5.186 5.267 0 3.116-1.872 5.268-5.186 5.268h-3.221v4.22h-3.547zm6.64 7.174c.93 0 1.733-.732 1.733-1.872s-.907-1.919-1.733-1.919h-3.105v3.791zm6.907-7.174h3.546v14.755h-3.546zm5.465 7.337c0-5.058 2.954-7.674 7.209-7.674 3.442 0 6.012 1.686 6.326 5.837h-3.965c0-1.396-1.14-2.047-2.361-2.047-1.5 0-3.476.965-3.476 3.837s1.79 3.989 3.604 3.989c.803 0 1.663-.256 2.07-.954l-.384-.86h-3.651v-3.012h6.221l3.395 8.314h-3.627l-.419-.953c-.802.883-2.047 1.29-3.709 1.29-4.407 0-7.233-2.802-7.233-7.755zm16.419-7.337h3.546v14.755h-3.546zm5.244 9.302h3.686c.186 1.5 1.198 2.302 2.663 2.302 1.174 0 1.767-.523 1.767-1.14 0-2.127-7.523-1.185-7.523-6.301 0-2.652 2-4.489 5.337-4.489s5.419 2.023 5.5 5.419h-3.605c-.151-.989-.755-1.896-2.093-1.896-.883 0-1.523.419-1.523.954 0 1.837 7.419 1.302 7.419 6.279 0 2.384-1.628 4.686-5.57 4.686s-6.163-2.28-6.07-5.802zm16.279-5.93h-3.395V71.79h10.337v3.372h-3.396v11.383h-3.546zm12.163-3.372h3.29l5.593 14.755h-3.755l-.826-2.325h-5.395l-.861 2.325h-3.756zm3.104 9.07-1.43-4.094-1.523 4.094zm6.256-.233h3.523c.105 1.581.547 2.442 1.861 2.442 1.058 0 1.709-.547 1.709-2.082v-9.197h3.547v9.663c0 3.604-1.733 5.441-5.186 5.441-3.71 0-5.442-2.128-5.442-6.267zm17.07-8.837h3.291l5.593 14.755h-3.756l-.826-2.325h-5.395l-.861 2.325h-3.755zm3.093 9.07-1.43-4.094-1.523 4.094zm5.605-4.012c0-3.372 2.767-6.151 6.162-6.151s6.14 2.779 6.14 6.15c0 3.373-2.744 6.164-6.14 6.164a6.174 6.174 0 0 1-6.162-6.163m10.651.023c0-2.511-1.977-4.465-4.465-4.535-2.535.058-4.465 2.023-4.512 4.535.047 2.465 1.977 4.489 4.512 4.489s4.465-2.024 4.465-4.489m-6.861-3.395h2.803c1.372 0 2.151.907 2.151 1.942 0 .779-.442 1.372-.907 1.64.384.162.593.615.732 1.069l.547 1.767h-1.523l-.489-1.476c-.209-.593-.465-.733-1.093-.733h-.756v2.21h-1.476v-6.43zm2.768 2.814c.442 0 .721-.291.721-.698a.703.703 0 0 0-.721-.72h-1.291v1.418zM212.64 24.965h-15.675c-.267 0-.523.035-.779.082a3.5 3.5 0 0 0-.779-.082h-15.674c-.198 0-.384.035-.57.07-.186-.035-.372-.07-.57-.07h-13.256c-.802 0-1.57.268-2.186.756a3.6 3.6 0 0 0-2.186-.756h-12.988a3.53 3.53 0 0 0-2.826 1.407c-.418.547-.628 1.198-.674 1.872-3.268-2.64-7.954-3.93-14.151-3.93-13.14 0-19.524 6.326-19.524 19.349s6.384 19.349 19.524 19.349c6.209 0 10.883-1.291 14.151-3.93.046.674.267 1.325.674 1.871a3.56 3.56 0 0 0 2.826 1.407h13.256a3.6 3.6 0 0 0 1.604-.383 3.6 3.6 0 0 0 1.605.384h14.163a3.53 3.53 0 0 0 2.825-1.407c.419-.559.628-1.21.675-1.884 3.162 2.628 7.895 3.942 14.186 3.942 12.465 0 18.779-5.303 18.779-15.756v-14.36l.988-3.42a3.54 3.54 0 0 0-.568-3.105 3.53 3.53 0 0 0-2.827-1.406zm117.406-.651c-5.953 0-10.499 1.314-13.72 3.942a3.57 3.57 0 0 0-.675-1.884 3.54 3.54 0 0 0-2.825-1.407H299.57a3.5 3.5 0 0 0-2.186.756 3.6 3.6 0 0 0-2.186-.756h-12.989a3.53 3.53 0 0 0-2.825 1.407c-.419.547-.628 1.198-.675 1.872-3.732-3.07-9.035-3.93-13.825-3.93-6.512 0-11.291 1.523-14.349 4.523V28.5A3.55 3.55 0 0 0 247 24.953a3 3 0 0 0-.57.047l-2.709.442c-.942-.116-1.884-.256-2.802-.395-2.186-.314-4.442-.652-6.814-.745-.396-.011-.745-.011-1.093-.011-4.686 0-8.407.988-11.047 2.953-2.872 2.128-4.395 5.29-4.395 9.128 0 2.395.57 4.384 1.488 6.047a3.55 3.55 0 0 0-1.488 2.953l.256 13.512a3.54 3.54 0 0 0 3.546 3.465c.244 0 .488-.023.721-.07l2.302-.477c4.442.593 8.245.989 12.175.989 3.151 0 6.57-.512 9.349-2.14.058.093.104.198.174.29a3.54 3.54 0 0 0 2.826 1.408h15.244c.267 0 .523-.035.779-.082.256.059.511.082.779.082h15.465c.174 0 .349-.035.523-.058.175.023.349.058.524.058h13.255c.558 0 1.117-.14 1.605-.384a3.6 3.6 0 0 0 1.605.384h14.162a3.53 3.53 0 0 0 2.826-1.407c.419-.558.628-1.21.674-1.884 3.21 2.628 7.768 3.942 13.721 3.942 13.617 0 19.954-6.151 19.954-19.349s-6.337-19.349-19.954-19.349z"/><path fill="#121c57" d="M208.221 21.651h-15.674c-.268 0-.524.035-.78.082a3.5 3.5 0 0 0-.779-.082h-15.674c-.198 0-.384.035-.57.07a3 3 0 0 0-.57-.07h-13.255a3.5 3.5 0 0 0-2.186.756 3.6 3.6 0 0 0-2.186-.756h-12.989a3.53 3.53 0 0 0-2.825 1.407c-.419.547-.628 1.198-.675 1.872-3.267-2.64-7.953-3.93-14.151-3.93-13.14 0-19.523 6.326-19.523 19.349s6.383 19.349 19.523 19.349c6.209 0 10.884-1.291 14.151-3.93.047.674.268 1.325.675 1.871a3.54 3.54 0 0 0 2.825 1.407h13.256c.558 0 1.116-.139 1.605-.383a3.6 3.6 0 0 0 1.604.384h14.163a3.53 3.53 0 0 0 2.826-1.407c.418-.559.628-1.21.674-1.884 3.163 2.628 7.895 3.942 14.186 3.942 12.465 0 18.779-5.303 18.779-15.756v-14.36l.989-3.42a3.52 3.52 0 0 0-.569-3.105 3.54 3.54 0 0 0-2.827-1.406zM325.628 21c-5.954 0-10.5 1.314-13.721 3.942a3.56 3.56 0 0 0-.674-1.884 3.56 3.56 0 0 0-2.826-1.407h-13.256c-.802 0-1.57.268-2.186.756a3.6 3.6 0 0 0-2.186-.756h-12.988a3.53 3.53 0 0 0-2.826 1.407c-.418.547-.628 1.198-.674 1.872-3.733-3.07-9.035-3.93-13.826-3.93-6.511 0-11.291 1.523-14.349 4.523v-.337a3.548 3.548 0 0 0-4.104-3.5l-2.71.442c-.942-.116-1.883-.256-2.802-.395-2.186-.314-4.442-.652-6.814-.745-.395-.011-.744-.011-1.093-.011-4.686 0-8.407.988-11.046 2.953-2.873 2.128-4.396 5.29-4.396 9.128 0 2.395.57 4.384 1.489 6.047a3.56 3.56 0 0 0-1.489 2.953l.256 13.512a3.54 3.54 0 0 0 3.547 3.465c.244 0 .488-.023.72-.07l2.303-.477c4.442.593 8.244.989 12.174.989 3.151 0 6.57-.512 9.349-2.14.058.093.105.198.174.29a3.56 3.56 0 0 0 2.826 1.408h15.244c.268 0 .523-.035.779-.081.256.058.512.08.779.08h15.465c.175 0 .349-.034.524-.057.174.023.349.058.523.058h13.256a3.6 3.6 0 0 0 1.604-.384 3.6 3.6 0 0 0 1.605.384h14.163a3.53 3.53 0 0 0 2.825-1.407c.419-.558.628-1.21.675-1.884 3.209 2.628 7.767 3.942 13.721 3.942 13.616 0 19.953-6.151 19.953-19.349s-6.337-19.349-19.953-19.349z"/><path fill="#f7752a" d="M125.872 24.535c11.651 0 16.419 4.5 16.419 15.802s-4.768 15.814-16.419 15.814-15.977-4.942-15.977-15.814 4.768-15.802 15.977-15.802m.174 20.616c1.128 0 1.861-1.605 1.861-5.023 0-3.419-.733-5.023-1.861-5.023-1.034 0-1.779 1.604-1.779 5.023s.733 5.023 1.779 5.023m17.489 10.36 1.128-3.895V29.093l-1.128-3.895h12.988l4.977 10.395h.081v-6.5l-.697-3.895h13.256l-1.128 3.895v22.523l1.128 3.896h-14.163l-3.814-9.965h-.082v6.058l.698 3.895h-13.256zm47.442-30.325-.698 3.895v10.303c0 3.465.221 5.279 1.477 5.279s1.477-1.814 1.477-5.28V29.082l-.698-3.895h15.674l-1.128 3.895v14.86c0 8.315-4.465 12.21-15.244 12.21s-15.418-3.895-15.418-12.21v-14.86l-1.128-3.895zm25.686 7.884c0-5.582 4.244-8.79 12.86-8.535 3.337.128 6.5.779 9.837 1.174l3.21-.523v11l-10.093-3.64a3 3 0 0 0-1.128-.22c-.651 0-1 .348-1 .825 0 2.64 13.209 2.43 13.209 12.826 0 6.674-3.337 9.965-11.43 9.965-4.116 0-8.186-.477-12.302-1.035l-2.907.605L216.663 42l9.139 3.849c1.477.605 2.558 1.21 3.768 1.21.697 0 .907-.478.907-.954 0-2.465-13.814-3.07-13.814-13.035m28.93 18.535V36.79c0-8.314 4.326-12.256 14.861-12.256s15.162 3.942 15.162 12.256v14.814l1.128 3.895h-15.465l.698-3.895v-2.291h-2.942v2.29l.698 3.896h-15.245l1.128-3.895zm16.372-5.977V40c0-2.163-.221-3.988-1.477-3.988-1.255 0-1.476 1.814-1.476 3.988v5.628zm15.814 9.884 1.128-3.896V29.093l-1.128-3.895h12.988l4.977 10.395h.082v-6.5l-.698-3.895h13.256l-1.128 3.895v22.523l1.128 3.896h-14.163l-3.814-9.965h-.093v6.058l.698 3.895h-13.256zm47.849-30.977c11.651 0 16.419 4.5 16.419 15.802s-4.768 15.814-16.419 15.814-15.977-4.942-15.977-15.814 4.768-15.802 15.977-15.802m.174 20.616c1.128 0 1.861-1.605 1.861-5.023 0-3.419-.733-5.023-1.861-5.023-1.035 0-1.779 1.604-1.779 5.023s.733 5.023 1.779 5.023"/><path fill="#121c57" d="M70.546 99.291c-5.337 0-9.5-2.023-13.918-6.779-4.407-4.744-7.535-12.035-9.605-16.849a78 78 0 0 0-1.232-2.802 4 4 0 0 1-.221-.617c-.105-.104-.186-.209-.28-.313-3.22-4.21-4.302-8.35-3.29-12.663.302-1.303.849-2.5 1.325-3.558.198-.442.64-1.407.733-1.791a5 5 0 0 1-.186-1.093 3 3 0 0 1-.116-.535c0-.046 0-.093-.012-.128h-.767c-1.28 0-2.547-.081-3.768-.232-1.21 1.035-2.779 3.616-3.872 6.348-1.21 3.059-6.174 9.872-12.663 12.477-1.674.675-3.546 1.012-5.558 1.012-5.337 0-10.349-2.396-11.942-3.547-5.732-4.14-5.558-9.837-4.767-14.337.081-.442.151-.942.244-1.488.314-2.023.756-4.791 1.535-7.117 1.558-4.64 4.07-5.616 5.895-5.616.221 0 .454.012.675.047l.279.035a2.5 2.5 0 0 1 .314-.21c1.546-.907 2.976-1.372 4.256-1.372 1.279 0 2.814.093 4.36.244h.093q.506-.383 1.116-.558c2.477-.674 4.43-1.023 5.803-1.023h.046c.07-.047.128-.093.198-.14 1.605-.988 3.232-1.523 4.71-1.523 1.476 0 2.592.477 3.418 1.396 1.802-1.605 4.453-3.14 7.895-4.57.198-3.175.558-6.43 1.675-8.884.488-1.081.465-2.686.441-4.535-.07-4.151-.162-10.43 7.35-14.29 3.43-1.768 7.964-2.128 11.174-2.128.72 0 1.453.023 2.174.058.36.023.71.093 1.035.232A28.4 28.4 0 0 1 71.65.745c3.78-.489 7.651-.756 11.221-.756.71 0 1.419 0 2.093.035 6.302.197 7.28 1.104 7.86 1.65.186.175.35.361.489.57.22.326.523.78 4.79 10.745.442 0 .93-.012 1.442-.012 1.047 0 1.942.023 2.652.07 1.965.128 4.151.488 5.523 2.128 1.418 1.697 1.174 3.895 1.035 5.081-.361 3.233-.651 5.837-2.256 7.721.523.78.907 1.57 1.267 2.28.861 1.732 1.291 2.43 2.349 2.825a3.245 3.245 0 0 1 1.965 3.942c.849 1.593 1.035 3.337 1.186 4.64.117 1.057.245 2.243.64 2.604.86.79 1.244 1.977.977 3.116a2.8 2.8 0 0 1-.279.744c.313 1.523.058 3.035-.152 4.256-.174 1.035-.314 2.105-.104 2.267a3.25 3.25 0 0 1 1.197 3.256 3.23 3.23 0 0 1-2.453 2.454c-.5.116-.965.186-1.407.22.651 6.64-.105 12.85-2.128 17.117-3.628 7.686-18 16.023-26.988 19.093-5.035 1.721-8.733 2.488-12 2.488z"/><path fill="#fff" d="M34.64 48.64c-1.198 0-2.152-.582-2.861-1.303.093 1.268 0 2.582-.465 3.78-1.326 3.43-3.128 5.557-3.93 5.918-.175.081-.442.128-.744.128-.43 0-.942-.093-1.42-.28.64 1.617 1.327 4.036 1.059 6.443a.47.47 0 0 1-.477.418h-.058c-.256-.035-.453-.267-.418-.523.302-2.744-.803-5.605-1.43-6.977-.245.489-.49.977-.698 1.477-.396.919-1.547 1.372-2.593 1.372-.221 0-.442-.023-.64-.058-.977-.198-1.64-.79-1.86-1.64a2.86 2.86 0 0 1-1.28-.116l-4.383 7.744a.49.49 0 0 1-.651.186.464.464 0 0 1-.175-.65l4.36-7.698c-1.07-.698-1.964-2.024-2.674-3.942-1.14.407-2.558 1.372-2.57 1.383a.45.45 0 0 1-.267.082.47.47 0 0 1-.395-.21.47.47 0 0 1 .128-.662c.07-.047 1.511-1.024 2.767-1.477-.07-.14-.14-.28-.22-.419a7.2 7.2 0 0 1-2.187.314c-2.418 0-4.5-1.023-4.616-1.081a.48.48 0 0 1-.21-.64.48.48 0 0 1 .64-.209c.035.012 3.035 1.5 5.814.79-.058-.07-.105-.139-.163-.209-.128-.174-.267-.348-.395-.523-2.105-.151-4.395-2.64-4.5-2.744a.478.478 0 0 1 .71-.64c.51.559 1.871 1.814 3.127 2.28a5.3 5.3 0 0 1-.384-1.187.49.49 0 0 1 .384-.558.485.485 0 0 1 .558.384c.186 1.023.71 1.698 1.256 2.407.198.256.395.512.57.78.267.406.523.848.71 1.394.941 2.768 2.08 3.768 2.86 4.117.697.314 1.22.15 1.407.07.488-.21.488-1.64.476-2.78 0-.488 0-.988.024-1.465.093-1.767-1.303-5.349-2.059-6.872-.57-1.14-4.36-1.79-7.14-2.174h-.022c-.454-.058-.872-.117-1.256-.163-2.872-.372-3.907 6.116-4.512 9.988-.093.558-.174 1.082-.256 1.535-.697 3.989-.755 8.117 3.489 11.21 2.07 1.5 9.15 4.255 14.407 2.15 5.511-2.209 9.86-8.139 10.872-10.674 1.093-2.744 2.953-6.174 4.965-7.779-1.267-.29-2.058-.593-2.349-.71-.105 0-.22.012-.326.012"/><path fill="#121c57" d="M98.756 22.814c-.419-.977-.86-2.023-1.314-3.093-.547.314-1.581.872-3.256 1.64.442.686 1.256 2 1.767 3.313 1.059-.697 2-1.325 2.803-1.872"/><path fill="#f7752a" d="M71.826 39.756c2.15-1.128 5.104-2.872 8.314-4.872-13.942 4.86-23.047 6.128-28.745 6.128-4.36 0-6.709-.745-7.709-1.163-.186.616-.43 1.093-.767 1.395a.5.5 0 0 1-.326.128.46.46 0 0 1-.349-.151.49.49 0 0 1 .023-.674c.745-.686.942-3.256 1.093-5.92-6.93 2.733-8.72 5.082-9.127 5.803.348.384.686.85 1.011 1.407.151.268.442.628.744 1.023.942 1.198 2.105 2.698 1.733 4.012-.151.535-.547.965-1.163 1.28 3.14.86 11.71 2.197 24.78-3.466 3.871-1.674 7.325-3.349 10.476-4.942"/><path fill="#fff" d="M67.163 51.663c-.29.174-.79.523-1.221.93.546-.07 1.163-.14 1.605-.14.174 0 .407.035.72.07.407.058.942.128 1.524.151a2 2 0 0 1-.605-1.197c-.72.023-1.395.093-2.023.186m5.802.511a4.8 4.8 0 0 0 1.07-.64h-.86a2 2 0 0 1-.21.652m-7.64 20.186c1.687-.535 2.861-1.418 3.896-2.186.22-.174.453-.337.674-.5-1.395.21-3.14.616-5.337 1.221-.198.058-.395.105-.593.151l.384 1.57c.314-.058.64-.14.977-.256M17.617 44.826c.721 1.441 2.268 5.29 2.163 7.348-.023.454-.023.942-.023 1.407 0 1.465.011 2.86-.733 3.465.117.71.675.977 1.151 1.07.896.175 1.93-.186 2.175-.767.29-.663.604-1.29.918-1.907.745-1.465 1.512-2.989 1.954-5.116.744-3.582-1.651-6.93-1.93-7.303-.489-.663-3-1.14-5.524-1.407-.046 0-.081 0-.116-.011-1.488-.151-2.977-.233-4.035-.233-.86 0-1.883.489-2.628.93 3.28.512 5.965 1.186 6.628 2.512"/><path fill="#f7752a" d="M74.384 27.674c15.174-4.802 21.267-8.034 22.686-8.848-.396-.93-.791-1.873-1.198-2.814 0 0 0-.024-.012-.035-2.5-5.86-4.941-11.5-5.244-11.942-.71-.663-8.465-1.407-18.546-.093-6.547.86-11.326 4.21-15.163 6.907-2.047 1.442-3.826 2.686-5.395 3.174a.47.47 0 0 1-.593-.314.466.466 0 0 1 .314-.593c1.43-.442 3.15-1.65 5.127-3.046 2.163-1.523 4.617-3.244 7.524-4.628-2.78-.14-8.128-.116-11.71 1.72-5.72 2.943-5.65 7.222-5.593 11.373.035 2.151.07 4.186-.72 5.93-.93 2.047-1.221 5.058-1.396 7.954 2.454.093 14.29.209 29.93-4.745"/><path fill="#121c57" d="M83.93 32.5a690 690 0 0 0 5.977-3.849c-.488-1.523-1.628-3.756-2.081-4.628-3.338 1.291-7.652 2.826-13.152 4.57-13.593 4.302-24.372 4.814-28.697 4.814-.698 0-1.221-.012-1.57-.023 0 .186-.023.383-.035.57-.105 1.93-.21 3.639-.453 4.965 1.755.779 11.953 4.116 40.011-6.396"/><path fill="#fff" d="M30.442 41.733c.023.093.093.29.174.523.21.616.57 1.663.837 2.883.094.221 1.442 3.373 4.303 2.338.604-.221.953-.512 1.058-.86.244-.85-.802-2.187-1.57-3.175-.349-.442-.64-.826-.825-1.14-.721-1.279-1.582-1.941-2.338-2.535-.418-.325-.814-.64-1.116-1-.453-.558-2.14-.5-4.046.686 1.697.477 3.29 1.35 3.523 2.28"/><path fill="#fff" d="M24.047 42.465c1.36 1.826 2.72 5.023 2.093 8.058-.373 1.803-.954 3.175-1.57 4.43.081.373.302.686.697.907.698.396 1.559.396 1.733.314.36-.162 2.058-1.86 3.43-5.395 1.117-2.884-.21-6.756-.71-8.21-.092-.278-.162-.476-.197-.604-.104-.442-1.767-1.5-4.023-1.849-1.174-.186-3.581.35-5.477.872 3.314.535 3.837 1.245 4.024 1.489m39.348 30.279-.372-1.5c-1.232.232-2.36.325-3.325.337.64.581 1.814 1.29 3.686 1.163M47.72 50.802c.384-.453.814-.93 1.349-1.383a34 34 0 0 1-2.244.302c0 .5.035 1.36.14 2.198.232-.419.464-.768.755-1.117"/><path fill="#f7752a" d="M88.72 23.674c.478.907 1.49 2.907 2.024 4.442 1.57-1.023 3.058-2.011 4.407-2.907-.511-1.372-1.418-2.825-1.837-3.453a132 132 0 0 1-4.581 1.918"/><path fill="#f7752a" d="M101.581 20.907c.675-.442 2.477-1.884 1.942-2.78a.475.475 0 0 1 .814-.487c1.093 1.825-1.884 3.837-2.232 4.058-.07.046-2.559 1.732-6.151 4.116h-.012c-1.558 1.035-3.314 2.186-5.175 3.407a.3.3 0 0 1-.058.035 718 718 0 0 1-6.116 3.942c4.453-2.163 8.814-3.954 13.733-5.093 1.546-.36 2.721-.628 3.627-.954a.33.33 0 0 1 .21-.07c2.488-.93 2.837-2.302 3.372-7.174.139-1.28.139-2.128-.302-2.651-.466-.547-1.5-.86-3.268-.977-1.581-.105-3.837-.058-4.965-.023 1.128 2.64 2.105 4.93 2.558 6.011 1.244-.825 1.989-1.337 2.023-1.36"/><path fill="#fff" d="M53.907 54.14a2 2 0 0 1-.756-1.35c-1.07.082-2.081.373-2.988.652.453.477 1.523 1.163 3.744.697"/><path fill="#fff" d="M111.244 51.86c.291-1.755.57-3.407-.663-4.523a.5.5 0 0 1-.104-.14v-.01a.4.4 0 0 1-.035-.164v-.011c0-.059 0-.117.023-.163v-.012c.012-.035.023-.07.047-.093.011-.023.023-.035.046-.058a.3.3 0 0 1 .14-.105h.011a.4.4 0 0 1 .163-.035h.012c.058 0 .116 0 .162.024h.012a.2.2 0 0 1 .093.046.66.66 0 0 0 .547.07c-1.291-1.174-1.489-2.93-1.675-4.64-.244-2.197-.465-4.267-2.872-5.279a.48.48 0 0 1-.256-.616.48.48 0 0 1 .254-.258.47.47 0 0 1 .363.002s.732.291 1.441.256c-2.337-.872-3.232-2.663-4.093-4.407-.697-1.395-1.348-2.71-2.732-3.64-.942.326-2.116.629-3.593.966-7.36 1.71-13.512 4.918-20.64 8.64-.65.337-1.314.685-2 1.034.303.14.617.314.965.512 1.256.71 3.152 1.79 6.628 2.232 7.186.919 8.36 3.896 8.407 4.024a.466.466 0 0 1-.279.604.4.4 0 0 1-.162.035.46.46 0 0 1-.442-.314c0-.023-1.105-2.57-7.628-3.407-3.663-.465-5.663-1.593-6.977-2.349-.884-.5-1.337-.732-1.78-.674-.767.395-1.557.802-2.371 1.21 0 0-.023 0-.035.01a200 200 0 0 1-10.489 4.954c-2.907 1.256-5.593 2.186-8.046 2.85.105.023.22.057.326.092.5.151.79.686.627 1.198a.96.96 0 0 1-.941.674h-.07c-.616-.023-1.198-.035-1.71.047-.511.081-.965.256-1.453.546s-1 .71-1.581 1.128c-.5.337-1.105.628-1.791.686.035.163.07.314.116.454 0 .023 0 .046.012.07a.47.47 0 0 1 .419-.256c.558 0 1.267-.221 2.093-.477 1.046-.326 2.232-.686 3.546-.744a7.17 7.17 0 0 1 3.86.86c-.5-.93-1.337-1.383-1.395-1.418a.47.47 0 0 1-.197-.64.47.47 0 0 1 .639-.198c.814.43 2.035 1.547 2.233 3.233 0 .047.011.093.011.14a4.4 4.4 0 0 1-.232 1.802c-1.291 3.872-1.85 6.674-1.617 8.081a.473.473 0 0 1-.395.547h-.081a.465.465 0 0 1-.465-.395 4 4 0 0 1-.059-.57 1.7 1.7 0 0 0-.209 1.535c.21.64.965.732 2.163.837 1.023.081 2.174.174 3.035.883a.477.477 0 0 1 .07.663.47.47 0 0 1-.373.175.5.5 0 0 1-.302-.105c-.628-.512-1.581-.593-2.512-.663-.5-.046-1.034-.081-1.511-.22-.035.267-.082.604-.163.965.29-.07.593-.094.895-.07.36.035.698.104 1.07.314l.07.034a.48.48 0 0 1 .186.652.6.6 0 0 1-.128.15c-.453.338-.93.582-1.337.85-.419.267-.814.5-1.128.779-.314.29-.547.628-.698 1.07-.15.441-.186.988-.209 1.593a.13.13 0 0 1-.128.127c-.023 0-.047 0-.07-.023h-.023a2.9 2.9 0 0 1-.72-.779c-.21-.302-.326-.663-.385-1.046-.127-.78.128-1.686.628-2.326.245-.326.535-.605.85-.826.278-.755.348-1.534.371-1.906a1.7 1.7 0 0 1-.558-.826c-.512-1.547.454-2.721 1.174-3.244.186-1.628.733-3.826 1.64-6.558.151-.465.21-.896.198-1.28-.058-.046-.117-.08-.175-.127-.174.081-.36.174-.535.255-.628.28-1.232.512-1.802.687h-.023c-.954.29-1.768.395-2.454.395-2.023 0-2.965-.989-3.314-1.512-.558.151-1.07.268-1.535.268a.46.46 0 0 1-.348-.151c0 .918-.477 2-1.035 3.209-.442.965-.896 1.965-1.128 2.965-.5 2.116-.756 5.442 2.71 9.953.232.198 1.627 1.28 2.918.35a.48.48 0 0 1 .663.104.48.48 0 0 1-.105.663 2.8 2.8 0 0 1-1.675.546 3.2 3.2 0 0 1-.953-.151c.36.767.78 1.744 1.28 2.895 1.976 4.617 4.976 11.605 9.01 15.93 6.024 6.477 11.28 7.28 22.512 3.442 9.524-3.255 22.186-11.209 25.117-17.418 2.604-5.523 2.325-13.768 1.29-19.221-.302-.29-.569-.593-.837-.907-.686-.802-1.407-1.616-2.663-2.081-.883 2.58-2.232 4.616-4.581 5.011.186.302.325.488.325.488a.47.47 0 0 1-.104.663.47.47 0 0 1-.528.023.5.5 0 0 1-.135-.127c-.093-.117-2.174-2.977-2.174-5.78 0-1.755.93-2.883 1.686-3.79.488-.581.895-1.093 1-1.64.151-.849.035-1.535-.338-1.895-.302-.302-.802-.372-1.476-.233h-.186c-.024 0-.035 0-.058-.011h-.035c-.024 0-.035-.012-.047-.023 0 0-.023 0-.035-.012-.011 0-.023-.023-.035-.035 0 0-.023-.012-.035-.023 0 0-.023-.023-.023-.035s-.023-.023-.035-.035c0-.012-.011-.023-.023-.035 0-.012-.012-.023-.023-.046 0-.024-.012-.035-.023-.058v-.14c0-4.326 2.43-6.5 2.534-6.593a.48.48 0 0 1 .628.72s-.035.024-.069.07a3.96 3.96 0 0 1 2.034 1.512c.966 1.396 1.105 3.43.407 6.058a.47.47 0 0 1-.453.35c-.035 0-.081 0-.128-.012a.48.48 0 0 1-.35-.396.5.5 0 0 1 .013-.186c.628-2.337.535-4.104-.268-5.267a3.06 3.06 0 0 0-1.907-1.256c-.593.86-1.36 2.36-1.465 4.465.884-.058 1.43.256 1.745.558.604.593.825 1.558.604 2.744-.139.791-.651 1.407-1.198 2.07-.72.872-1.465 1.78-1.465 3.186 0 .35.047.71.117 1.07.604-.105 1.814-.512 2.383-2.116a.48.48 0 0 1 .605-.291c.244.081.372.36.291.605-.64 1.825-2.035 2.523-3.035 2.72.22.687.511 1.315.79 1.85 3.605-.268 4.687-5.163 5.64-11.035.895-5.535-.698-7.372-3.57-8.547-1.011-.419-1.942-.395-2.779.058-1.43.768-2.558 2.837-3.116 5.686a.47.47 0 0 1-.558.372.47.47 0 0 1-.372-.558c.616-3.163 1.883-5.418 3.593-6.337 1.081-.581 2.314-.616 3.593-.105 3.802 1.559 5 4.326 4.151 9.57-.314 1.907-.651 3.977-1.186 5.86 1.5.547 2.349 1.512 3.093 2.373 1.07 1.232 1.93 2.232 4.581 1.64-1.79-1.361-1.43-3.478-1.116-5.361m-62.756 3.628a.48.48 0 0 1 .628-.721c.093.081 2.244 1.883 5.79.79a.466.466 0 0 1 .594.314.467.467 0 0 1-.314.593c-.919.28-1.744.396-2.5.396-2.581 0-4.116-1.303-4.198-1.372M87.28 44.628a.47.47 0 0 1 .581-.326c.093.024 2.268.675 3.977 3.163 1.326 1.919 3.023 2.023 3.047 2.023.267 0 .465.233.453.5 0 .256-.22.454-.477.454h-.023c-.093 0-2.198-.128-3.79-2.43-1.524-2.21-3.43-2.78-3.454-2.78a.47.47 0 0 1-.326-.58m8.221 6.697a.477.477 0 0 1-.372.558 5 5 0 0 1-.802.081c-2.954 0-4.814-3.127-4.895-3.279a.48.48 0 0 1 .174-.65.48.48 0 0 1 .651.174c.023.034 1.954 3.267 4.698 2.744a.477.477 0 0 1 .558.372m-35.663-2.651a1.244 1.244 0 0 1 .79-1.337c1.559-.582 3.245-.733 4.838-.652 1.605.07 3.14.407 4.616.733 1.489.337 2.919.71 4.373.988 1.453.29 2.918.465 4.441.465.058 0 .093.047.093.093 0 .047-.023.082-.07.093-1.453.512-3.034.698-4.58.745-1.559.035-3.094-.07-4.594-.187a72 72 0 0 0-4.372-.209 25.5 25.5 0 0 0-4.128.303h-.023a1.235 1.235 0 0 1-1.407-1.035M74.65 70.07c-.163-.465-.395-.86-.732-1.175a3.8 3.8 0 0 0-1.163-.744 6 6 0 0 0-1.407-.325c-1.035-.14-2.163-.093-3.28-.082-1.127 0-2.278-.011-3.453-.21h-.023a.586.586 0 0 1-.477-.662.58.58 0 0 1 .314-.418 8.3 8.3 0 0 1 1.733-.605c.593-.14 1.186-.233 1.79-.29.489-.036.989-.047 1.5-.024a13.7 13.7 0 0 1-1.802-1.674 1.4 1.4 0 0 1-.302.534c-.465.5-1.314.686-2.675.605-2.093-.128-2.895.605-2.907.605a.5.5 0 0 1-.325.128.466.466 0 0 1-.473-.471c0-.124.049-.243.136-.332.104-.104 1.116-1.035 3.628-.884 1.279.082 1.744-.116 1.918-.302.093-.093.186-.267.105-.79-.233-1.605-1.28-2.466-3.117-2.559a.47.47 0 0 1-.453-.5.466.466 0 0 1 .5-.453c2.081.105 3.442 1.116 3.895 2.837.28.384 1.93 2.535 4.07 3.477h.023a7 7 0 0 1 1.942.686c.593.349 1.151.814 1.57 1.419.419.593.651 1.302.71 1.988.046.697-.059 1.36-.384 1.977a.38.38 0 0 1-.512.162.38.38 0 0 1-.198-.383v-.047c.07-.488 0-1.035-.15-1.488m-3.535-14.733c-1.697 0-3.023-.442-3.128-.477a.473.473 0 0 1-.29-.604.467.467 0 0 1 .604-.29c.047.01 4.512 1.5 7.233-1.222a.477.477 0 0 1 .674.675c-1.535 1.535-3.465 1.93-5.081 1.93m4.29-3.826c-2.29 2.616-5.779 2.14-7.279 1.942-.255-.035-.488-.07-.593-.07-.837 0-2.58.291-2.593.291h-.08a.473.473 0 0 1-.431-.663c.128-.29.314-.558.546-.814-.104.047-.162.082-.162.082a.4.4 0 0 1-.233.058.49.49 0 0 1-.419-.233.48.48 0 0 1 .175-.65c.035-.024.802-.466 2.593-.745a19 19 0 0 1 2.384-.21 23 23 0 0 1 1.802 0c.72.024 1.349.035 1.918.047 3.245.058 4.21-.081 4.977-.186.256-.035.5.14.535.407.035.256-.14.5-.407.535-.57.081-1.232.174-2.744.21M59.127 68.57a.473.473 0 0 1 .652-.163c.058.035 1.221.674 2.558-.535a.477.477 0 1 1 .64.71c-.85.767-1.675.988-2.314.988-.79 0-1.326-.314-1.36-.337a.477.477 0 0 1-.163-.652m-3.047 2.221a.483.483 0 0 1 .558-.372c.035 0 3.512.698 7.651-.442 4.558-1.255 7.151-1.65 8.965-1.349a.49.49 0 0 1 .396.547.49.49 0 0 1-.547.395 6 6 0 0 0-.837-.081c-.849.22-1.605.78-2.477 1.442-1.093.825-2.337 1.744-4.174 2.337a9 9 0 0 1-1.5.349c-.035 0-.082.011-.116.011a8 8 0 0 1-1.012.082c-2.698 0-4.105-1.558-4.535-2.14-1.174-.058-1.907-.209-1.965-.22a.483.483 0 0 1-.372-.559m6.86 6.686c-.43 0-.837-.046-1.244-.14-2.942-.662-4.093-3.487-4.14-3.615a.477.477 0 0 1 .268-.617.476.476 0 0 1 .616.268c.012.035 1.024 2.488 3.465 3.035 2.396.535 5.373-.85 8.826-4.093a.478.478 0 0 1 .651.697c-3.163 2.965-6 4.465-8.453 4.465m4.29.954a.47.47 0 0 1-.581.325c-1.895-.546-4.267.419-4.29.43a.5.5 0 0 1-.187.036.5.5 0 0 1-.442-.291.46.46 0 0 1 .256-.616c.105-.047 2.698-1.093 4.919-.465a.47.47 0 0 1 .325.58m8.221 10.395c-2.593 1.349-5.476 2.058-8.255 2.058-.512 0-1.012-.023-1.524-.07-2.825-.279-5.267-1.674-7.256-4.15-1.546-1.942-2.941-4.233-4.116-6.814a.48.48 0 0 1 .233-.628.48.48 0 0 1 .628.232c1.14 2.512 2.488 4.733 3.988 6.616 1.814 2.28 4.035 3.558 6.605 3.803 3.046.29 6.337-.372 9.244-1.884 4.07-2.105 4.942-5.593 4.953-5.628a.47.47 0 0 1 .57-.349.47.47 0 0 1 .349.57c-.035.163-.988 3.953-5.442 6.256m6.081-3.965a.46.46 0 0 1-.337.14.477.477 0 0 1-.337-.815c.047-.046 1.047-1.104 1.047-3.232 0-.268.209-.477.476-.477.268 0 .477.21.477.477 0 2.546-1.267 3.849-1.326 3.895m9.896-24.465c-3.07 6.558-7.872 7.651-10.71 7.651-1.383 0-2.302-.256-2.325-.267a.476.476 0 0 1-.24-.76.48.48 0 0 1 .507-.159C78.988 66.965 86.36 69 90.581 60c.117-.233.396-.337.628-.233a.486.486 0 0 1 .233.628m3.953-7.046a3.1 3.1 0 0 1-1.535.395c-1.232 0-2.186-.686-2.244-.72a.48.48 0 0 1-.104-.663.48.48 0 0 1 .662-.105c.058.046 1.419 1 2.756.267a.46.46 0 0 1 .64.186.46.46 0 0 1-.186.64m.314-7.57a.48.48 0 0 1 .535.407.48.48 0 0 1-.407.535c-.152.023-.291.035-.442.035-1.791 0-2.768-1.558-3.047-2.442a.467.467 0 0 1 .314-.593.467.467 0 0 1 .593.314c.023.081.663 1.988 2.454 1.756"/></g></g><defs><clipPath id="a"><path fill="#fff" d="M0 0h350v100H0z"/></clipPath></defs></svg>