<svg width="354" height="224" viewBox="0 0 354 224" fill="none" xmlns="http://www.w3.org/2000/svg">
<path d="M111.239 152.396C111.239 152.396 117.707 149.927 118.681 148.414C119.662 146.901 118.316 142.611 118.316 142.611L112.51 135.284L106.425 126.166C106.425 126.166 99.3132 117.825 95.6472 117.674C91.9813 117.523 79.9914 123.256 79.9914 123.256C79.9914 123.256 62.8913 123.65 59.5792 126.838C56.267 130.027 49.1787 127.917 49.1787 127.917C49.1787 127.917 34.6714 124.253 27.5309 132.293C27.5309 132.293 13.4645 126.195 8.07575 147.388C2.687 168.58 -0.352509 188.996 4.50838 198.827C9.36928 208.653 18.4298 215.383 35.7794 219.956C53.1289 224.536 68.8891 220.397 78.7617 211.766C88.5647 203.198 98.5591 193.929 102.666 184.423C106.767 174.916 112.724 164.111 117.672 159.601C119.244 158.169 120.323 157.265 121.239 156.662L118.589 155.155L111.239 152.408V152.396Z" fill="white"/>
<path d="M351.61 53.7828C350.125 50.5946 346.726 46.1718 333.291 45.8819C319.857 45.5921 318.123 45.6733 318.123 45.6733L304.944 12.4177C304.944 12.4177 302.925 3.94294 295.501 3.22995C288.076 2.51696 262.136 0.55768 239.49 3.77484C216.85 6.992 213.544 9.61789 213.544 9.61789C213.544 9.61789 197.482 5.89063 181.362 10.0874C165.243 14.2842 154.332 20.904 150.759 36.1203C147.185 51.3308 151.211 62.2749 147.412 71.4859C143.618 80.691 141.269 97.142 141.211 104.469C141.211 104.469 118.548 111.379 106.43 126.166L112.515 135.284L118.322 142.611C118.322 142.611 119.667 146.907 118.687 148.414C117.713 149.927 111.245 152.396 111.245 152.396L118.594 155.144L121.245 156.651C123.212 155.352 124.319 155.602 127.301 156.059C131.669 156.732 152.632 157.735 167.035 154.274C181.438 150.813 217.164 137.168 230.604 129.922C244.044 122.682 283.615 103.594 296.719 98.4868C309.822 93.3799 323.407 90.2092 332.195 88.1455C340.983 86.0819 346.517 83.514 348.773 74.9987C351.03 66.4833 353.1 56.971 351.616 53.7828H351.61Z" fill="#E77D3F"/>
<path d="M158.172 157.352L173.694 154.239C182.018 152.135 191.096 149.08 200.922 144.999C214.032 139.556 225.807 134.026 236.468 128.844H236.544C239.305 127.476 241.985 126.183 244.595 124.885L248.922 122.653C251.231 121.575 253.47 120.421 255.709 119.268C279.868 107.1 300.675 96.5853 325.559 91.235C330.536 90.122 334.475 89.2119 337.671 88.1453C337.671 88.1453 340.908 87.2121 342.677 86.2904C344.446 85.3687 346.848 83.0906 346.848 83.0906C350.838 78.4823 351.83 70.877 353.002 61.127C353.414 58.0258 354.151 52.9305 351.384 49.5626C348.541 46.1194 343.077 45.2267 338.048 44.8615C335.757 44.6818 332.944 44.5659 329.608 44.5195L319.91 44.3862L318.048 39.9227C308.883 17.6693 303.929 6.12808 303.059 4.78905C302.914 4.56298 302.769 4.3427 302.473 4.11663C300.426 2.0878 293.117 0.806729 280.756 0.26184C278.76 0.1575 276.614 0.0589566 274.462 0.0241765H274.091C262.542 -0.143927 249.798 0.569065 237.263 2.02403C230.366 2.81818 223.527 4.49922 216.827 6.99179L213.997 8.06417L211.276 6.84108C210.98 6.76572 210.685 6.68456 210.319 6.60341C208.028 6.49907 205.655 6.38893 203.364 6.35995C193.37 6.22083 179.286 7.13671 169.071 12.174C147.597 22.8283 147.655 39.7025 147.69 53.4638C147.737 60.5705 147.731 66.6339 145.289 71.7059C141.855 79.0561 140.671 89.5481 139.946 98.9388L139.587 103.449L135.341 105.164C124.47 109.529 116.187 114.149 110.642 118.879L105.096 123.685L100.288 118.143C99.4119 117.094 97.8748 115.888 94.3248 115.842C90.769 115.79 86.6042 117.14 82.422 119.598L81.8999 119.963L79.8117 121.192L77.5901 121.163C74.8522 121.123 69.6607 121.644 59.9969 124.102C59.5503 124.241 59.1036 124.462 58.657 124.751L56.7138 126.206L53.158 126.154C47.9839 125.563 43.0998 125.198 39.2482 125.146C36.3595 125.105 32.6413 126.311 28.3141 128.768L25.9185 130.658L21.7072 130.009C21.336 130.009 20.9647 129.922 20.5993 129.922C15.1236 129.847 10.7615 134.519 7.52479 143.654C4.90292 151.092 3.29036 160.615 2.32166 166.372C2.32166 166.372 1.59658 170.58 1.43417 171.467C-1.1993 185.269 -1.79096 200.949 13.9692 212.635C18.5111 215.956 33.7376 223.417 49.7299 223.643C55.5769 223.724 60.925 222.837 65.6873 220.982C85.3397 213.412 101.036 192.613 104.714 183.64C108.008 175.768 114.012 164.754 120.155 159.659L122.626 157.619L125.88 158.036C129.72 158.61 133.717 158.888 137.644 158.94C137.644 158.94 142.383 159.16 146.524 158.981C150.672 158.807 155.504 157.706 158.172 157.375V157.352ZM337.63 48.4091C343.622 48.8612 347.085 49.9452 348.617 51.8175C350.073 53.6145 350.032 56.4259 349.527 60.7096C347.491 76.7549 346.326 81.4792 338.332 84.476C338.158 84.5398 336.621 85.1195 336.36 85.2006C333.413 86.1049 329.637 86.9512 324.863 87.9714C308.303 91.5886 293.482 97.3737 278.43 104.417C285.448 100.15 292.473 95.7332 299.196 91.461C299.271 91.461 299.347 91.3915 299.422 91.3915C305.698 87.3338 311.673 83.5718 316.98 80.1633C329.231 72.3436 337.677 66.7614 337.903 66.6165C339.098 65.8919 349.185 59.2257 345.571 53.0348C345.351 52.7334 345.061 52.4378 344.62 52.3566C344.179 52.2001 343.808 52.2697 343.431 52.4899C343.06 52.7044 342.758 53.0754 342.677 53.4406C342.52 53.8811 342.59 54.3275 342.805 54.6985C344.614 57.6838 338.477 62.4834 336.157 63.9326C336.006 64.0022 333.541 65.6716 329.283 68.425C327.781 64.7789 324.631 56.965 320.977 48.1077C324.753 48.0149 332.381 47.9685 337.636 48.4149L337.63 48.4091ZM292.792 72.6508C299.045 70.222 304.109 68.1468 308.28 66.3556C309.654 68.5178 312.7 73.445 314.335 78.0591C309.701 81.027 304.695 84.2905 299.393 87.6932C297.612 82.4878 294.3 75.7057 292.792 72.6508ZM148.531 73.3058C151.281 67.4222 151.229 60.6169 151.252 53.3652C151.223 39.3779 151.205 25.0253 170.591 15.3796C182.743 9.40901 200.737 9.58291 210.058 10.1568C200.22 14.684 191.85 20.3358 184.524 25.3383C177.795 29.9814 171.966 33.9695 167.128 35.3839C166.235 35.668 165.782 36.4737 166.066 37.3664C166.066 37.5113 166.211 37.7374 166.357 37.8881C166.426 38.0388 166.647 38.1895 166.797 38.3402C167.018 38.4156 167.163 38.491 167.389 38.4968C167.615 38.5026 167.836 38.5026 168.056 38.433C173.335 36.8795 179.39 32.7464 186.345 28.0337C199.356 19.1126 215.574 8.09316 237.681 5.51364C271.649 1.5487 297.676 4.42386 300.089 6.67877C301.029 8.17431 308.987 27.228 317.149 47.099C317.224 47.099 317.224 47.1744 317.224 47.1744C318.512 50.3742 319.799 53.5739 321.087 56.6983C316.313 59.3706 295.652 69.9612 244.415 85.3803C191.543 101.292 151.722 100.371 143.433 99.959C144.163 90.2032 145.335 80.1517 148.543 73.3174L148.531 73.3058ZM97.7413 120.694C98.7622 121.894 100.079 122.949 101.471 124.073C103.96 126.108 106.819 128.369 109.198 132.693C109.778 133.736 110.717 135.081 111.883 136.577C114.43 139.944 117.916 144.506 117.063 147.306C116.674 148.483 115.48 149.428 113.467 150.141C103.791 153.486 99.3539 142.843 99.0639 142.095C98.2344 138.014 97.0975 134.443 96.384 132.362C96.0998 131.62 95.8852 130.948 95.8155 130.577C95.1195 127.458 89.7539 124.427 84.0752 122.792C90.5718 118.885 96.2042 118.74 97.7297 120.688L97.7413 120.694ZM79.3187 124.954C86.8536 126.241 92.4338 129.87 92.7064 131.354C92.8457 131.8 93.0603 132.467 93.3445 133.359C94.9803 138.263 99.2379 151.347 95.4037 160.992C90.5718 172.841 84.7944 178.458 83.5995 179.032C83.002 179.246 80.1192 179.205 77.7641 177.837C76.4416 177.078 75.7165 176.035 75.4381 174.771C77.5727 170.58 79.6319 166.024 80.9776 159.972C83.1935 149.793 78.756 138.924 74.249 132.797C73.6689 131.974 71.9229 129.58 60.8438 127.58C67.236 125.969 75.3279 124.23 79.3187 124.954ZM39.283 128.612C42.8388 128.664 47.7925 129.029 52.8216 129.539C52.897 129.615 53.042 129.615 53.1928 129.621C61.6965 130.629 70.1131 132.374 71.7083 134.612C72.6538 135.881 80.5658 147.243 77.8801 159.265C76.3024 166.348 73.6399 171.49 71.0528 176.336C69.9855 178.394 68.9182 180.527 67.8509 182.73C67.0098 184.643 63.5121 185.848 60.5596 185.217C58.9354 184.898 57.0966 183.912 56.6848 181.536C59.2312 179.571 59.295 174.841 59.3646 169.954C59.3878 168.4 59.4111 166.696 59.5039 165.218C59.8983 158.268 54.8924 145.248 52.52 140.402V140.327C50.3621 135.858 41.3596 133.441 30.3559 131.586C32.8966 130.142 36.3247 128.56 39.283 128.6V128.612ZM101.547 182.388C98.0198 190.921 83.0833 210.618 64.475 217.759C46.6788 224.617 22.9718 215.035 16.0807 209.91C1.93882 199.279 2.35066 185.448 4.83331 172.012C5.15234 170.534 5.47138 168.766 5.79041 166.916C8.04684 153.926 11.8288 132.148 21.4346 133.539C22.7629 133.707 24.1725 133.875 25.6458 134.113H25.7212C35.1066 135.504 47.8099 137.898 49.6777 141.776C52.1255 146.918 56.621 159.039 56.2381 164.957C56.1395 166.586 56.1163 168.284 56.0931 169.913C56.1163 173.762 56.0467 178.568 54.4109 179.211C53.7381 179.501 51.9573 179.994 49.6777 178.921C47.0268 177.698 43.2274 174.319 40.2459 164.951C39.6078 163.091 38.7378 161.601 37.8677 160.181C37.2876 159.282 36.6321 158.459 35.9767 157.566C34.2307 155.172 32.4905 152.854 31.8699 149.445C31.7364 148.553 30.9302 147.95 30.0369 148.089C29.1436 148.298 28.5403 149.103 28.7491 149.996C29.0218 151.48 29.451 152.819 29.9557 153.932C25.756 152.32 21.2258 148.037 19.5494 146.164C19.2594 145.863 18.8881 145.637 18.4473 145.631C18.0064 145.55 17.5598 145.695 17.2582 145.985C16.9565 146.274 16.7303 146.715 16.7245 147.086C16.7187 147.532 16.8579 147.979 17.1538 148.274C17.4438 148.651 25.0252 157.114 32.1251 157.735C32.5601 158.332 32.9952 158.859 33.436 159.456C33.6564 159.758 33.8015 159.978 33.9465 160.204C24.5843 162.441 14.5841 157.271 14.4391 157.271C13.7024 156.888 12.7395 157.172 12.2813 157.908C11.8984 158.714 12.1827 159.682 12.9889 160.14C13.3544 160.291 20.3441 163.867 28.4881 163.983C30.8548 164.018 33.378 163.757 35.8317 162.975C36.1217 163.496 36.3363 163.943 36.5509 164.389C32.3107 165.885 27.3744 169.073 27.154 169.287C27.0032 169.357 26.8523 169.508 26.7015 169.728C26.6261 169.873 26.4753 170.093 26.4695 170.244C26.3941 170.464 26.3883 170.684 26.4579 170.91C26.5275 171.131 26.6029 171.281 26.6725 171.507C27.038 171.954 27.4788 172.186 27.9951 172.191C28.3663 172.191 28.6621 172.128 28.8884 171.907C28.9638 171.907 33.7434 168.719 37.6124 167.438C39.8921 173.907 42.8678 178.388 46.4583 180.805L31.4406 206.496C31.2898 206.641 31.2144 206.861 31.2086 207.087C31.1332 207.232 31.1274 207.458 31.2028 207.679C31.2724 207.905 31.3478 208.05 31.4928 208.276C31.6378 208.426 31.7828 208.577 32.0033 208.653C32.3687 208.879 32.8154 208.884 33.1866 208.815C33.6332 208.676 33.9291 208.455 34.1611 208.09L49.26 182.254C50.7334 182.718 52.2125 182.886 53.5467 182.683C54.3239 185.582 56.5166 187.611 59.7649 188.318C60.432 188.399 61.1686 188.486 61.9111 188.497C65.4669 188.55 69.3359 187.124 70.7106 184.034C71.4009 182.341 72.3116 180.724 73.1468 179.107C75.1538 183.721 78.7212 193.39 77.6307 202.63C77.4683 203.441 78.1238 204.264 79.0112 204.427H79.1563C79.9683 204.438 80.7166 203.859 80.8036 203.047C81.8071 194.92 79.6261 186.753 77.5495 181.321C79.1679 181.936 80.8674 182.254 82.277 182.278C83.3153 182.289 84.2028 182.156 84.8002 181.941C87.5555 180.724 93.7273 173.704 98.3272 162.227C99.9398 158.181 100.294 153.816 100.062 149.521C102.399 151.996 105.555 153.961 109.627 154.019L110.735 154.036C111.692 154.419 114.343 155.491 118.548 156.511C111.738 161.821 105.282 173.275 101.523 182.394L101.547 182.388ZM116.106 152.477C118.194 151.468 119.546 150.008 120.091 148.24C121.414 143.817 117.556 138.733 114.43 134.617C113.409 133.342 112.463 132.073 111.959 131.18C110.949 129.313 109.783 127.673 108.617 126.398C110.056 123.975 116.164 116.219 139.616 107.292C138.972 116.236 138.183 124.885 135.712 127.145C135.335 127.435 135.184 127.876 135.178 128.247C135.173 128.693 135.312 129.139 135.532 129.435C135.898 129.812 136.263 129.963 136.71 129.968C137.156 129.974 137.528 129.829 137.829 129.539C138.955 128.519 139.865 126.977 140.486 124.914C143.798 126.369 151.687 128.919 166.345 129.122C185.522 129.389 216.23 125.598 263.395 109.9C252.489 116.48 242.489 122.189 235.18 125.859H235.105C224.444 131.035 212.744 136.495 199.634 141.939C155.393 160.413 126.657 155.503 116.106 152.465V152.477Z" fill="#121C57"/>
</svg>
