<svg width="235" height="239" viewBox="0 0 235 239" fill="none" xmlns="http://www.w3.org/2000/svg">
<path d="M39.4075 100.201C39.187 99.3145 38.2995 98.8682 37.4817 99.1638C25.486 102.787 18.3049 96.7234 17.9337 96.4973C17.6379 96.2017 17.1912 96.1263 16.8258 96.1263C16.3791 96.2017 16.0137 96.422 15.7875 96.7176C15.4916 97.0132 15.3408 97.3842 15.3408 97.8248C15.4162 98.1958 15.5612 98.6363 15.8571 98.8624C16.1529 99.158 21.2632 103.523 29.9989 103.523C32.5164 103.523 35.2542 103.152 38.3634 102.19C39.2508 101.894 39.6975 101.083 39.4017 100.19L39.4075 100.201Z" fill="#121C57"/>
<path d="M56.6584 146.146C58.88 146.146 61.6179 145.404 64.5066 142.819C64.8024 142.598 64.9532 142.152 65.0228 141.712C65.0228 141.341 64.872 140.9 64.5762 140.604C64.2804 140.233 63.9091 140.088 63.4683 140.088C63.0216 140.013 62.6562 140.164 62.3604 140.459C57.8417 144.529 53.9205 142.384 53.6943 142.233C52.9518 141.787 51.9889 142.083 51.5481 142.824C51.3276 143.195 51.2522 143.636 51.3973 144.082C51.4727 144.453 51.7685 144.824 52.1397 145.045C52.2151 145.12 54.0655 146.152 56.6584 146.152V146.146Z" fill="#121C57"/>
<path d="M61.2467 175.599C60.4346 175.895 60.0634 176.857 60.4346 177.668C60.655 178.26 61.2467 178.631 61.9138 178.631C62.1342 178.631 62.3604 178.631 62.5054 178.555C62.5808 178.48 70.574 175.228 76.9431 177.077C77.7552 177.297 78.6485 176.857 78.9443 175.97C79.1647 175.158 78.6485 174.266 77.8364 174.045C70.3594 171.976 61.6237 175.454 61.2525 175.599H61.2467Z" fill="#121C57"/>
<path d="M93.382 156.655C93.382 156.284 93.2312 155.844 92.9354 155.548C92.6395 155.252 92.2683 155.102 91.8275 155.102C91.4562 155.026 91.0154 155.177 90.7195 155.473C79.0952 166.347 69.1007 171.014 61.0263 169.234C52.8069 167.385 49.4019 159.096 49.4019 159.02C49.0307 158.209 48.1432 157.762 47.3311 158.058C46.8845 158.278 46.5887 158.574 46.4436 158.945C46.2986 159.316 46.2232 159.756 46.4436 160.127C46.5945 160.574 50.4402 170.115 60.3651 172.335C61.6992 172.631 63.1029 172.782 64.5125 172.782C72.7319 172.782 82.2855 167.75 92.947 157.762C93.2428 157.467 93.3936 157.096 93.3936 156.655H93.382Z" fill="#121C57"/>
<path d="M41.7045 151.473C41.9249 151.844 42.2961 152.064 42.6674 152.215C42.8878 152.215 45.3356 152.731 49.3323 152.957C50.7418 154.882 55.4751 160.133 64.582 160.133C65.6203 160.133 66.8036 159.988 67.9869 159.838H68.3582C69.9128 159.617 71.6181 159.246 73.3931 158.655C79.6113 156.655 83.7588 153.548 87.4595 150.812C90.3482 148.592 92.9411 146.668 95.7544 145.931C96.7173 145.931 97.6802 146.082 98.5677 146.227C99.4551 146.302 100.273 145.711 100.418 144.894C100.569 144.007 99.9714 143.19 99.0839 143.045C93.0107 142.007 84.275 143.34 68.9498 147.56C55.0284 151.409 43.3345 149.038 43.1836 149.038C42.3716 148.894 41.4783 149.485 41.3333 150.296H41.4087C41.3333 150.743 41.4841 151.183 41.7045 151.479V151.473ZM69.8373 150.662C77.1693 148.662 83.0917 147.259 87.7554 146.592C87.0129 147.108 86.2008 147.63 85.4583 148.221C81.978 150.812 78.0568 153.769 72.3548 155.618C71.2469 155.989 70.1332 156.284 69.0949 156.429L67.8361 151.177C68.5032 151.027 69.1703 150.882 69.8373 150.662ZM64.6574 151.844L65.9161 156.876H65.8407C59.5471 157.322 55.6201 154.951 53.4739 152.957C56.6584 152.957 60.51 152.586 64.6516 151.85L64.6574 151.844Z" fill="#121C57"/>
<path d="M104.27 153.027C104.27 153.247 104.27 153.543 104.42 153.769C104.496 153.989 104.716 154.215 104.937 154.285C105.528 154.58 106.346 154.36 106.642 153.769C107.75 151.699 108.121 149.479 107.976 147.108C107.756 144.813 107.013 142.448 105.534 140.448C104.125 138.378 102.274 136.825 100.279 135.637C98.1326 134.454 95.8356 133.787 93.7648 133.341H93.6894C86.5082 130.159 80.9513 122.907 79.9942 121.649C78.4396 115.876 73.8514 112.473 66.8906 112.102C66.6702 112.102 66.444 112.102 66.2236 112.177C66.0786 112.253 65.8523 112.398 65.7073 112.473C65.5623 112.624 65.4115 112.844 65.3361 112.989C65.2607 113.209 65.1853 113.435 65.1853 113.656C65.1853 114.542 65.8523 115.284 66.7398 115.284C72.8826 115.655 76.4384 118.542 77.1809 123.939C77.4767 125.643 77.1809 126.234 76.885 126.605C76.2934 127.197 74.7388 127.863 70.371 127.568C61.9311 127.052 58.5262 130.234 58.2304 130.53C57.9345 130.825 57.7141 131.272 57.7141 131.712C57.7141 132.083 57.9345 132.524 58.2304 132.819C58.3754 132.97 58.5262 133.04 58.7466 133.115C58.8974 133.19 59.1178 133.26 59.3383 133.26C59.7095 133.26 60.1504 133.115 60.4462 132.814C60.4462 132.814 63.1841 130.373 70.2202 130.814C74.8084 131.034 77.6217 130.443 79.1763 128.744C79.6925 128.228 79.9884 127.562 80.2146 126.971C81.7692 128.675 83.84 130.744 86.2878 132.593C84.5824 132.518 82.8829 132.518 81.2529 132.669C79.1821 132.889 77.1809 133.185 75.1797 133.631C73.2539 134.147 71.3281 134.738 69.4023 135.7C68.8106 135.921 68.4394 136.442 68.2944 137.109C68.219 137.625 68.3698 138.147 68.6656 138.518C68.9615 138.964 69.4081 139.26 69.9243 139.329H69.9998C73.9964 139.996 77.848 139.996 81.6241 139.996C85.4003 139.996 89.1765 139.845 92.6569 140.291C94.4318 140.512 96.0618 140.883 97.3959 141.398C98.8751 141.99 100.209 142.807 101.317 143.914C102.425 144.952 103.243 146.279 103.759 147.839C104.275 149.392 104.502 151.166 104.275 152.87V153.021L104.27 153.027Z" fill="#121C57"/>
<path d="M109.449 90.7296C109.449 90.2833 109.299 89.9181 109.003 89.6225C108.707 89.3268 108.26 89.1066 107.895 89.1066C107.448 89.1066 107.007 89.3268 106.712 89.6225C97.6047 98.7233 82.5754 93.7671 82.4245 93.6917C81.5371 93.3961 80.6496 93.8424 80.3537 94.654C80.2783 94.8743 80.2783 95.1003 80.2783 95.3206C80.2783 95.5409 80.3537 95.6916 80.4291 95.9119C80.5045 96.0626 80.6496 96.2828 80.8004 96.4278C80.9454 96.5031 81.1716 96.648 81.3166 96.7234C81.6879 96.7988 86.1311 98.3523 91.9027 98.3523C97.3843 98.3523 103.823 97.019 109.009 91.8426C109.304 91.547 109.455 91.176 109.455 90.7354L109.449 90.7296Z" fill="#121C57"/>
<path d="M116.926 82.9563C116.776 82.0694 115.964 81.4781 115.076 81.623C112.559 81.994 109.299 82.4346 98.3414 82.2143C96.4156 82.2143 94.3448 82.1389 91.8969 82.0636C89.8957 81.9882 87.8249 81.9882 85.8237 82.0636C83.0104 82.1389 80.2726 82.3592 77.8247 82.8055C71.7515 83.6924 69.234 85.1706 69.089 85.3213C68.7178 85.472 68.422 85.8372 68.3465 86.2836C68.1957 86.6545 68.2711 87.0951 68.4916 87.4661C68.7874 87.982 69.379 88.2776 69.9011 88.2776C70.1969 88.2776 70.4173 88.2023 70.7132 88.0574C70.7132 88.0574 70.864 87.9066 71.2294 87.7617C70.4173 88.6486 69.8199 89.5355 69.379 90.4977C69.3036 90.7934 69.234 91.0137 69.234 91.3093C69.3094 91.5296 69.379 91.8252 69.5299 92.0513C69.6807 92.2715 69.8257 92.4223 70.1215 92.5672C70.3419 92.7179 70.5682 92.7179 70.864 92.7179H71.0844C71.1598 92.7179 77.0068 91.7556 79.8201 91.7556C80.1913 91.7556 81.0034 91.9063 81.8213 91.9759C86.8562 92.6425 98.6314 94.2714 106.329 85.4662C111.364 85.3909 113.585 85.0199 115.511 84.7996C116.399 84.6489 116.99 83.8374 116.921 82.9505L116.926 82.9563ZM82.2796 88.8805C81.2412 88.7356 80.4292 88.5848 79.8375 88.5848C78.3584 88.5848 76.2817 88.8805 74.4314 89.1007C75.9105 87.6922 77.6159 86.5096 78.5788 85.9937C80.6496 85.6227 82.9466 85.4025 85.3887 85.3271C85.6091 86.8806 86.2762 88.2892 87.3899 89.3964C85.4641 89.2457 83.6891 89.0254 82.2796 88.8805ZM98.121 87.6922C98.4168 87.0255 98.7126 86.2836 98.788 85.5474H101.677C100.569 86.4343 99.3101 87.1009 98.121 87.6922Z" fill="#121C57"/>
<path d="M58.6597 79.4782C63.248 78.7363 67.7666 78.4406 72.5811 78.4406C77.2448 78.516 82.2043 78.7363 87.2392 79.1826C92.2741 79.5536 97.4598 79.9246 102.715 79.7739C107.901 79.6232 113.232 78.9623 118.116 77.2581C118.267 77.2581 118.336 77.1132 118.336 76.9625C118.336 76.8118 118.261 76.6668 118.04 76.6668C112.93 76.6668 107.97 76.0756 103.086 75.1133C98.1965 74.1511 93.3878 72.8932 88.4283 71.786C83.3934 70.6789 78.2831 69.5659 72.8769 69.2703C67.4708 69.05 61.8442 69.5659 56.5889 71.4904C54.8139 72.157 53.6248 74.0062 53.9206 76.006H53.8452C54.2165 78.2262 56.2873 79.855 58.5843 79.484H58.6597V79.4782Z" fill="#121C57"/>
<path d="M123.667 188.027C122.779 187.876 121.892 188.323 121.741 189.209C121.666 189.36 118.777 201.046 105.082 208.153C95.3079 213.26 84.1997 215.48 73.9849 214.442C65.3246 213.631 57.8419 209.336 51.699 201.713C46.6641 195.348 42.1455 187.876 38.2997 179.442C37.9284 178.63 37.041 178.335 36.2289 178.631C35.4168 179.001 35.0456 179.964 35.4168 180.775C39.338 189.43 44.0771 197.128 49.2628 203.713C55.9277 212.002 64.1471 216.738 73.6949 217.625C75.4002 217.775 77.0998 217.845 78.8052 217.845C88.1326 217.845 97.8311 215.48 106.573 210.964C121.527 203.197 124.711 190.543 124.786 189.951C125.007 189.14 124.491 188.247 123.679 188.027H123.667Z" fill="#121C57"/>
<path d="M129.81 182.92C128.922 182.92 128.18 183.662 128.18 184.549C128.18 191.65 124.85 195.203 124.699 195.424C124.479 195.644 124.328 195.87 124.253 196.235C124.177 196.531 124.253 196.826 124.328 197.122C124.473 197.418 124.699 197.713 124.92 197.864C125.216 198.009 125.511 198.16 125.807 198.16C126.028 198.16 126.254 198.084 126.474 198.009C126.625 197.934 126.846 197.789 126.991 197.638C127.136 197.487 131.434 193.053 131.434 184.543C131.434 183.656 130.691 182.914 129.804 182.914L129.81 182.92Z" fill="#121C57"/>
<path d="M157.357 113.963C143.139 144.227 118.336 137.416 117.298 137.121C117.077 137.045 116.851 137.045 116.706 137.045C116.486 137.045 116.259 137.121 116.039 137.265C115.888 137.341 115.743 137.486 115.592 137.636C115.442 137.787 115.372 138.007 115.297 138.228C115.221 138.373 115.221 138.599 115.221 138.819C115.297 139.039 115.297 139.265 115.442 139.41C115.517 139.63 115.662 139.781 115.813 139.926C116.033 140.001 116.184 140.146 116.404 140.146C116.48 140.222 119.589 141.109 124.253 141.109C133.731 141.109 149.944 137.41 160.24 115.36V115.284C160.611 114.542 160.24 113.58 159.497 113.215C158.685 112.844 157.722 113.215 157.351 113.957L157.357 113.963Z" fill="#121C57"/>
<path d="M146.765 64.0881C146.916 64.1635 147.136 64.3084 147.281 64.3084C147.356 64.3084 153.795 66.2329 158.905 73.7048C164.312 81.397 171.342 81.8434 171.713 81.8434H171.788C172.601 81.8434 173.343 81.1767 173.343 80.2898C173.418 79.4029 172.751 78.661 171.864 78.661C171.788 78.661 166.017 78.29 161.574 71.8557C155.872 63.4969 148.54 61.2767 148.174 61.2014C147.362 60.9811 146.469 61.4216 146.249 62.3085V62.3839C146.173 62.6042 146.173 62.7549 146.173 62.9752C146.173 63.1954 146.249 63.4215 146.324 63.5664C146.475 63.7867 146.62 63.9374 146.771 64.0823L146.765 64.0881Z" fill="#121C57"/>
<path d="M156.243 74.4468C155.727 73.6352 154.764 73.4092 154.021 73.8555C153.65 74.0758 153.43 74.3714 153.279 74.8177C153.204 75.1887 153.204 75.6293 153.43 76.0003C153.726 76.5162 160.019 87.0255 169.938 87.0255C170.75 87.0255 171.713 86.9502 172.607 86.8053C173.494 86.6546 174.016 85.7677 173.865 84.8808H173.941C173.796 84.0692 172.902 83.4722 172.015 83.6229C162.833 85.3967 156.318 74.5221 156.243 74.4468Z" fill="#121C57"/>
<path d="M172.015 88.8805C167.496 91.3209 162.908 88.1385 162.757 87.9182C162.015 87.4719 160.982 87.6226 160.46 88.2892C160.24 88.6602 160.164 89.1008 160.24 89.4717C160.315 89.9181 160.535 90.2833 160.831 90.5094C161.052 90.6543 164.236 92.9498 168.384 92.9498C170.014 92.9498 171.789 92.5788 173.569 91.6165C174.312 91.1702 174.608 90.2833 174.161 89.4717C173.79 88.7298 172.751 88.4341 172.015 88.8805Z" fill="#121C57"/>
<path d="M166.313 60.3145C166.017 59.4276 165.205 58.9813 164.311 59.2769C163.499 59.4972 162.977 60.3841 163.273 61.2768C164.236 64.2389 167.496 69.4907 173.494 69.4907C174.01 69.4907 174.532 69.4153 174.973 69.3457C175.86 69.195 176.528 68.3835 176.382 67.572C176.232 66.6851 175.42 66.0938 174.608 66.1634V66.2387C168.534 66.9807 166.388 60.6159 166.313 60.3203V60.3145Z" fill="#121C57"/>
<path d="M133.145 54.9178C155.06 57.7292 158.836 66.3141 158.836 66.3836C159.056 67.0503 159.648 67.4212 160.315 67.4212C160.466 67.4212 160.686 67.4212 160.831 67.2705C161.052 67.2705 161.202 67.1198 161.348 66.9749C161.493 66.8242 161.643 66.6793 161.719 66.459C161.794 66.3083 161.87 66.088 161.87 65.8677C161.87 65.6475 161.87 65.4967 161.794 65.2765C161.643 64.8301 157.647 54.8424 133.511 51.7354C121.811 50.2573 115.442 46.6285 111.225 44.2635C110.041 43.5969 104.635 39.9276 103.672 39.4059L100.772 42.3622C102.251 42.1419 106.712 45.3707 109.67 46.9995C114.113 49.5906 120.848 53.3643 133.139 54.9178H133.145Z" fill="#121C57"/>
<path d="M232.805 101.825C228.512 98.4972 229.475 93.0193 230.438 87.1763C231.105 83.478 231.772 79.3334 231.03 75.5597L230.659 72.302L231.993 69.937C232.289 68.6791 231.842 67.3458 230.885 66.5343C227.555 63.4273 226.964 58.4711 226.366 52.9179C225.92 48.9994 225.403 44.1881 223.257 40.1942L221.848 37.5277L222.66 34.641C222.88 33.8294 222.811 32.8672 222.439 32.1252C221.993 31.3137 221.331 30.6471 220.513 30.3514C213.924 27.911 211.331 22.7288 208.669 17.3263L208.222 16.5147C207.259 14.5903 206.221 12.4455 204.817 10.3761L197.781 0L194.26 3.15919C198.924 6.26621 203.042 14.2946 205.409 18.9551C208.297 24.8736 211.331 30.8673 219.179 33.8294C216.813 33.9048 214.365 32.9425 214.365 32.9425C214.144 32.8672 213.918 32.7976 213.698 32.7976C213.477 32.7976 213.327 32.873 213.106 32.9425C212.886 33.0179 212.735 33.1628 212.59 33.3135C212.439 33.4642 212.369 33.6092 212.294 33.8294C212.074 34.2004 212.074 34.641 212.294 35.012C212.439 35.383 212.741 35.6786 213.106 35.8989C221.25 39.3015 221.993 46.2575 222.805 53.6541C223.396 59.3522 224.063 65.2706 228.431 69.195C227.84 69.3457 227.173 69.3457 226.581 68.9747C226.505 68.8994 226.36 68.8994 226.285 68.8298H226.21C226.065 68.7544 225.838 68.7544 225.693 68.7544H225.618C225.467 68.7544 225.247 68.8298 225.102 68.8994H225.026C224.876 68.9747 224.731 69.0501 224.58 69.195C224.504 69.2704 224.429 69.3457 224.429 69.4153C224.353 69.4906 224.284 69.6355 224.284 69.7109V69.7862C224.208 69.9312 224.208 70.1572 224.208 70.3022V70.3775C224.208 70.5282 224.208 70.7485 224.284 70.8934V70.9688C224.359 71.1195 224.504 71.2644 224.655 71.4151C228.803 75.1888 227.84 80.7362 226.877 86.6546L227.028 86.73C225.92 93.0194 224.731 100.12 230.728 104.711C221.842 106.711 218.953 103.378 215.328 99.2334C212.81 96.3467 209.997 93.0947 204.962 91.2398C206.737 84.875 207.851 77.919 208.959 71.56C211.772 53.8744 207.775 44.5533 194.962 39.3711C190.669 37.5973 186.522 37.7422 182.891 39.6667C177.113 42.7737 172.821 50.3964 170.75 60.9753V61.6419C170.826 61.8622 170.901 62.0129 170.971 62.2332L171.417 62.6795C171.638 62.7549 171.789 62.8302 172.009 62.8998C172.896 63.0505 173.784 62.4535 173.935 61.6419C175.785 52.0252 179.561 45.0692 184.376 42.4781C187.189 40.9999 190.374 40.9246 193.779 42.3274C203.402 46.2459 208.732 52.4658 205.774 71.0383C202.514 90.7934 198.889 107.297 186.818 108.183C185.855 106.334 184.892 104.259 184.15 101.969C187.479 101.303 192.149 98.9378 194.295 92.7933C194.591 91.9817 194.15 91.0195 193.332 90.7934C192.52 90.4978 191.557 90.9441 191.331 91.7557C189.405 97.1582 185.333 98.4914 183.262 98.8566C183.042 97.6741 182.891 96.4162 182.891 95.2337C182.891 90.4978 185.408 87.4661 187.85 84.5794C189.701 82.2839 191.406 80.2145 191.847 77.548C192.589 73.6237 191.847 70.3717 189.846 68.3719C188.738 67.3343 186.957 66.3024 183.923 66.4474C184.295 59.416 186.887 54.3845 188.883 51.4282C189.846 51.6484 193.106 52.4658 195.327 55.7177C197.996 59.5667 198.291 65.5605 196.215 73.4034C196.139 73.6236 196.139 73.8497 196.139 73.9946C196.215 74.2149 196.29 74.441 196.36 74.5859C196.435 74.8062 196.58 74.9569 196.806 75.1018C196.957 75.1772 197.102 75.3221 197.323 75.3221C197.474 75.3974 197.619 75.3974 197.769 75.3974C198.512 75.3974 199.104 74.9511 199.324 74.2149C201.621 65.4098 201.174 58.5291 197.914 53.8686C195.844 50.7615 193.025 49.353 191.105 48.7617C191.18 48.611 191.325 48.5414 191.325 48.5414C191.621 48.2458 191.772 47.8748 191.772 47.4342C191.772 47.0633 191.621 46.6227 191.4 46.3271C191.105 46.0314 190.733 45.8112 190.362 45.8112C189.915 45.7358 189.55 45.8865 189.179 46.1068C188.883 46.4024 180.663 53.7294 180.663 68.3023V68.7486C180.739 68.824 180.739 68.8936 180.739 68.9689C180.789 69.0192 180.814 69.0694 180.814 69.1196C180.89 69.1196 180.89 69.195 180.89 69.195C180.965 69.2704 181.04 69.2703 181.04 69.3457L181.116 69.4906L181.191 69.566C181.267 69.566 181.336 69.6413 181.336 69.6413C181.412 69.7167 181.487 69.7167 181.487 69.7167C181.487 69.7167 181.563 69.7921 181.638 69.7921H182.525C184.822 69.3457 186.522 69.5718 187.56 70.6036C188.744 71.7861 189.19 74.0816 188.668 76.9683C188.297 78.8175 186.963 80.5217 185.263 82.5158C182.746 85.5474 179.637 89.3211 179.637 95.2453C179.637 104.642 186.597 114.258 186.969 114.629C187.044 114.85 187.189 115 187.415 115.076C187.566 115.221 187.787 115.296 188.007 115.296C188.158 115.371 188.378 115.296 188.599 115.296C188.819 115.221 188.97 115.145 189.19 115C189.933 114.484 190.002 113.522 189.486 112.78C189.486 112.78 189.039 112.189 188.448 111.151C196.296 109.818 200.884 102.937 203.848 94.283C208.071 95.8365 210.513 98.5726 212.805 101.314C213.692 102.352 214.58 103.384 215.618 104.346C219.098 122.698 220.061 150.372 211.25 168.938C201.401 189.876 158.83 216.587 126.77 227.543C88.9329 240.417 71.3107 237.757 51.0261 216.002C37.4759 201.423 27.3307 177.894 20.6716 162.429C19.0416 158.51 17.6379 155.253 16.3791 152.661C17.4175 152.957 18.45 153.177 19.6391 153.177C21.4141 153.177 23.4153 152.661 25.2657 151.328C25.9327 150.812 26.0777 149.775 25.5615 149.108C25.1148 148.366 24.0823 148.221 23.3399 148.737C19.0474 151.844 14.3084 148.221 13.5659 147.555C1.86609 132.385 2.75357 121.214 4.45895 114.108C5.20142 110.78 6.75598 107.372 8.23513 104.12C10.0855 100.051 11.7155 96.4278 11.7155 93.315C11.8663 93.5353 12.0113 93.6106 12.2317 93.7613C12.4522 93.8367 12.6784 93.8367 12.8988 93.8367C14.4534 93.8367 16.1587 93.4657 18.0091 92.9498C19.1924 94.7236 22.377 98.0567 29.1869 98.0567C31.4839 98.0567 34.2218 97.6857 37.4817 96.7234H37.5571C39.4075 96.1322 41.4841 95.3148 43.5549 94.4279C44.1466 94.1323 44.8136 93.8367 45.4053 93.5411C45.5561 93.6918 45.7765 93.8367 45.997 93.9874C45.997 95.2453 45.8461 96.7234 45.3299 98.2769C42.2962 107.453 40.4458 114.85 39.7787 120.328C37.3367 122.101 34.1522 126.026 35.8575 131.202C36.2288 132.46 36.8958 133.347 37.7079 134.013C37.6325 135.271 37.4121 137.862 36.4492 140.454C35.4109 141.196 34.448 142.082 33.6359 143.19C31.9305 145.334 31.043 148.372 31.4897 151.033C31.7101 152.29 32.0813 153.548 32.8238 154.511C33.4155 155.548 34.2334 156.435 35.1905 157.177H35.2659C35.4167 157.252 35.4863 157.252 35.5617 157.252C35.7821 157.252 35.9329 157.032 35.9329 156.806C36.0084 154.806 36.1534 152.957 36.6754 151.479C37.1975 150.001 37.9341 148.812 39.0421 147.856C40.0804 146.894 41.4087 146.152 42.8182 145.265C44.1524 144.303 45.7824 143.491 47.3369 142.378C47.4877 142.227 47.6327 142.082 47.7081 141.862C48.1548 141.12 47.9286 140.088 47.1165 139.717L46.8961 139.573C45.6373 138.831 44.5294 138.61 43.2707 138.535C42.3078 138.46 41.2695 138.535 40.3066 138.755C40.527 137.573 40.6778 136.39 40.8228 135.497C42.4528 135.944 44.2278 136.089 45.9332 136.239C49.0423 136.46 52.2268 136.755 54.373 138.46C54.6688 138.68 55.0401 138.831 55.4113 138.831C55.858 138.831 56.2988 138.61 56.5946 138.239C57.1863 137.573 57.0413 136.535 56.3742 136.019C53.4855 133.654 49.6339 133.283 46.1536 133.057C42.157 132.686 39.6395 132.39 38.897 130.246C38.23 128.101 38.752 126.321 39.6395 125.063C39.6395 125.73 39.7149 126.397 39.7845 126.988C39.8599 127.359 40.0804 127.655 40.3008 127.95C40.5966 128.17 40.9678 128.321 41.3391 128.321H41.6349C42.5224 128.17 43.1141 127.359 42.9691 126.472C42.157 121.736 44.077 112.34 48.3752 99.3145C49.1873 97.0944 49.3381 95.0946 49.1873 93.2454V92.7295C48.5202 87.1067 44.3728 83.3331 41.6349 81.9245C40.8228 81.4782 39.9296 81.7796 39.4887 82.5911C39.4133 82.7418 39.3379 82.9621 39.3379 83.1824C39.2625 83.3273 39.3379 83.5534 39.3379 83.7736C39.4133 83.9939 39.5583 84.1446 39.6337 84.2896C39.7787 84.5098 39.9295 84.5852 40.15 84.7359C40.3704 84.8113 43.1837 86.3648 44.8137 89.4718C40.7416 87.2516 36.5188 86.3648 31.8551 86.585C27.4119 86.8053 23.4153 87.9936 19.9349 89.1008C17.1216 89.9123 14.7492 90.6543 12.8988 90.6543C12.2317 90.6543 11.7155 91.0253 11.4893 91.5412C11.4138 91.4658 11.4138 91.3905 11.4138 91.3209C11.263 90.8746 11.118 90.3587 11.0426 89.7674C13.3397 89.6225 15.3351 88.5849 17.0404 87.4719C19.0416 86.0633 20.7412 84.6605 22.3712 83.6983C24.0011 82.736 25.5557 82.1448 27.2553 81.8491C28.9606 81.5535 30.956 81.6289 33.0327 81.7042H33.2531C34.6626 81.7042 35.991 80.8173 36.4376 79.4087C36.9538 77.7045 35.9909 75.9307 34.2914 75.4148C33.9201 75.2699 33.5489 75.1946 33.1835 75.1192C30.7124 74.5859 23.1368 74.8931 17.7075 78.4465C15.8571 79.9246 14.4476 81.5535 13.1192 83.0317C12.1563 84.2142 11.4138 85.3967 10.6018 86.8053C10.2305 83.9939 7.86389 73.2295 7.86389 71.5311L3.94849 72.1919L6.67477 85.2518L7.12141 86.956L8.38015 93.3961L7.93349 95.2453C7.56225 96.7988 6.75018 98.8682 5.26523 102.126L4.89399 102.868C3.41484 106.195 1.86028 109.604 1.0424 113.227C-1.84629 125.585 1.26282 137.202 10.4452 149.259L11.0368 149.925L12.4464 151.334L12.9626 153.183C13.038 153.479 13.183 153.85 13.2584 154.07C14.5172 156.661 15.9963 160.064 17.6263 163.913C24.3666 179.599 34.5814 203.353 48.5028 218.297C61.5367 232.354 73.1611 238.348 88.2659 238.719H90.0408C100.186 238.719 111.886 236.279 128.023 230.725C156.307 221.109 203.396 194.027 214.579 170.347C220.722 157.322 223.095 137.718 221.024 116.705L220.357 109.233L227.758 108.641C228.942 108.566 230.125 108.346 231.535 108.05C232.202 107.899 232.793 107.604 233.24 107.088C233.687 106.642 234.052 106.05 234.203 105.384C234.499 104.126 233.907 102.648 232.793 101.83L232.805 101.825ZM31.4085 89.7674C31.6289 91.6166 32.5164 93.1701 33.9259 94.283C26.5244 95.8365 22.8932 93.541 21.3387 91.918C24.4478 91.0311 27.7831 90.0688 31.4085 89.7732V89.7674Z" fill="#121C57"/>
</svg>
